<svg xmlns="http://www.w3.org/2000/svg" xmlns:xlink="http://www.w3.org/1999/xlink" width="505" height="724" viewBox="0 0 505 724">
  <defs>
    <clipPath id="clip-path">
      <rect id="Rectángulo_378283" data-name="Rectángulo 378283" width="505" height="724" transform="translate(810 4824)" fill="#fff"/>
    </clipPath>
    <clipPath id="clip-path-2">
      <rect id="Rectángulo_378276" data-name="Rectángulo 378276" width="459.667" height="718.616" fill="none"/>
    </clipPath>
  </defs>
  <g id="Enmascarar_grupo_393" data-name="Enmascarar grupo 393" transform="translate(-810 -4824)" clip-path="url(#clip-path)">
    <g id="hombre_recicla" data-name="hombre recicla" transform="translate(810 4823.692)" clip-path="url(#clip-path-2)">
      <g id="Grupo_1075437" data-name="Grupo 1075437" transform="translate(33.873 10.104)">
        <g id="Grupo_1075404" data-name="Grupo 1075404" transform="translate(0 198.137)">
          <path id="Trazado_824030" data-name="Trazado 824030" d="M60.984,192.689C42.5,209.064,19.384,231.7,25.842,258.338c8.686,25.794,43.874,26.414,62.361,10.3,29.753-22.951,35.111-66,66.421-87.482a65.44,65.44,0,0,1-2.794-43.423c-31.6,3.553-66.04,35.546-90.846,54.959Z" transform="translate(-20.849 -137.73)" fill="#aad447"/>
          <path id="Trazado_824031" data-name="Trazado 824031" d="M22.832,225.725a36.172,36.172,0,0,1,3.908-24.539A30.246,30.246,0,0,1,46.723,186.6c10.808-2.086,21.693,2.374,32.638,3.629,3.4.393,7.266.68,9.465,3.3,1.618,1.92,1.847,4.611,1.862,7.106a63.887,63.887,0,0,1-10.655,35.652c-5.007,7.53-11.923,14.152-20.532,17.055a26.508,26.508,0,0,1-19.067-.711c-6.274-2.827-10.457-9.147-13.495-15.059a43.054,43.054,0,0,1-4.106-11.854Z" transform="translate(-22.189 -112.994)" fill="#7cac35"/>
        </g>
        <g id="Grupo_1075405" data-name="Grupo 1075405" transform="translate(119.126 407.724)">
          <path id="Trazado_824032" data-name="Trazado 824032" d="M122.17,291.726c31.264-3.19,62.635-5.246,93.93-8.1,16.044-1.467,32.073-3.1,48.041-5.2,15.434-2.026,30.119-1.92,45.721-2.071,2.641-.03,8.243,39.4,8.961,43.378,2.809,15.618,5.435,31.282,7.6,47.007,4.32,31.313,6.885,62.943,5.633,94.558-.092,2.525-.229,5.065-.366,7.59-.626,10.584-1.679,21.273.015,31.736,1.42,8.709,4.7,17.009,6.946,25.537,8.243,31.207,2.519,64.152-3.252,95.9-11.724.786-23.692,1.149-35.462,1.149-14.884.257-29.28-2.706-43.889-2.162.977-.03-7.74-85.017-8.732-92.713q-6.091-46.651-15.571-92.789-4.328-21.069-9.358-42c1.038,3.946-.5,6.259-1.572,9.873-1.557,5.246-2.168,10.931-3.282,16.3-2.275,10.9-4.793,21.757-7.923,32.447-4.076,13.88-9.22,27.548-11.083,41.881-2.03,15.664-.061,31.57-.855,47.339-1.511,30.088-12.93,58.694-24.211,86.665-11.251,1.648-23.143.363-34.607.438-12.869.076-25.723.408-38.592.771-.656.015,6.992-157.772,8.091-172.106,4.213-55.292,10.61-110.342,13.8-165.438Z" transform="translate(-100.224 -276.35)" fill="#111414"/>
          <path id="Trazado_824033" data-name="Trazado 824033" d="M195.926,368.51a205.525,205.525,0,0,1-8.5-33.278,96.52,96.52,0,0,1-36.073-5.972" transform="translate(-73.302 -249.263)" fill="none" stroke="#fff" stroke-linecap="round" stroke-linejoin="round" stroke-width="1"/>
          <path id="Trazado_824034" data-name="Trazado 824034" d="M224.87,283.4a408.667,408.667,0,0,1,16.991,151.12c-1.985,26.2-6.5,52.48-3.74,78.622,1.817,17.07,6.7,33.656,9.648,50.575s3.847,34.729-2.122,50.847" transform="translate(-34.589 -272.741)" fill="none" stroke="#fff" stroke-linecap="round" stroke-linejoin="round" stroke-width="1"/>
        </g>
        <g id="Grupo_1075406" data-name="Grupo 1075406" transform="translate(115.207 175.452)">
          <path id="Trazado_824035" data-name="Trazado 824035" d="M121.781,392.313a1257.774,1257.774,0,0,0-17.968-140.506C94.7,217.7,97.1,182.439,102.073,147.8c47.812-20,100.326-31.237,152.016-21.53,4.778.5,9.144,2.979,9.236,8.059,2.824,30.118,13.159,58.316,19.082,87.769,9.74,47.944,13.2,96.841,16.67,145.556" transform="translate(-97.657 -122.726)" fill="#aad447"/>
          <path id="Trazado_824036" data-name="Trazado 824036" d="M105.02,221.77c10.121,13.638,24.761,23.42,40.195,30.678s31.86,12.217,47.919,18.007c3.358,1.21,6.839,2.555,9.159,5.216,2.443,2.8,3.236,6.622,3.847,10.266a215.735,215.735,0,0,1,2.885,42.531q-45.431,8.165-91.32,13.683" transform="translate(-93.78 -72.02)" fill="#7cac35"/>
          <path id="Trazado_824037" data-name="Trazado 824037" d="M101.521,214.636A277.693,277.693,0,0,1,98.3,156.38" transform="translate(-97.501 -105.497)" fill="none" stroke="#111414" stroke-linecap="round" stroke-linejoin="round" stroke-width="1"/>
        </g>
        <g id="Grupo_1075409" data-name="Grupo 1075409" transform="translate(154.292 135.966)">
          <g id="Grupo_1075407" data-name="Grupo 1075407">
            <path id="Trazado_824038" data-name="Trazado 824038" d="M123.26,115.57c5.633,13.547,11.19,27.034,13.312,41.639.26,1.784.534,3.7,1.786,5.02a10.674,10.674,0,0,0,3.984,2.147,23.2,23.2,0,0,1,11.266,9.767,116.7,116.7,0,0,1,10.5-16.632c2.091-2.782,4.335-5.488,5.832-8.633a13.431,13.431,0,0,0,.015-12.02q-3.023-6.758-6.183-13.426-6.412-13.54-13.419-26.822c.244.272.489.544.733.8L123.26,115.54Z" transform="translate(-123.26 -96.61)" fill="#df9271"/>
            <path id="Trazado_824039" data-name="Trazado 824039" d="M125.755,122.933a119.822,119.822,0,0,1,7.053,18.567c12.548-9.041,28.165-20.774,24.3-37.3L125.74,122.933Z" transform="translate(-121.954 -92.724)" fill="#d17e54"/>
          </g>
          <g id="Grupo_1075408" data-name="Grupo 1075408" transform="translate(0.011 31.04)">
            <path id="Trazado_824040" data-name="Trazado 824040" d="M128.431,163.812c7.557-4.884,17.281-7.393,25.906-3.931C152.78,145.593,134.6,134.994,132.263,125c-3.816,5.912-7.74,11.2-8.289,18.355-.076,4.642-3.236,22.1,4.458,20.457Z" transform="translate(-123.267 -113.116)" fill="#7cac35"/>
            <path id="Trazado_824041" data-name="Trazado 824041" d="M155.227,134.784c-2.122,10.81-10.778,19.534-12.777,30.466,8.06-7.7,27.555-14.076,37.325-6.774-.076-16.314-9.3-33.52-24.044-41.337a30.224,30.224,0,0,1-.488,17.644Z" transform="translate(-113.166 -117.14)" fill="#7cac35"/>
          </g>
        </g>
        <g id="Grupo_1075414" data-name="Grupo 1075414" transform="translate(85.743 49.515)">
          <path id="Trazado_824042" data-name="Trazado 824042" d="M108.774,61.87A61.518,61.518,0,0,0,90.135,77.579c-2.992,3.78-5.587,8.1-6.015,12.882a16.9,16.9,0,0,0,6.473,14.485,19.6,19.6,0,0,0,15.739,3.568,22.444,22.444,0,0,0,13.571-8.89" transform="translate(-75.352 -27.945)" fill="#111414"/>
          <path id="Trazado_824043" data-name="Trazado 824043" d="M98.4,131.8c4.763,9.8,12.655,18.446,22.883,22.392,11.663,4.506,25.2,2.374,36.21-3.538,14.075-7.575,24.669-21.394,27.753-36.952a50.531,50.531,0,0,0-12.594-44.073c-11.007-11.521-28.15-17.085-43.813-13.759C95.221,62.994,84.81,103.923,98.4,131.8Z" transform="translate(-70.851 -31.503)" fill="#df9271"/>
          <g id="Grupo_1075410" data-name="Grupo 1075410">
            <path id="Trazado_824044" data-name="Trazado 824044" d="M198.213,77.863c13.19,6.668,14.625,26.973,7.266,38.434-14.564,18.491-41.477-3.069-34.669-22.573a29.451,29.451,0,0,1-24.761,1.3,21.962,21.962,0,0,0,13.144-7.378c-20.227,8.5-45.583,4.536-65.292-4.128-35.218-14.107-1.695-52.45,13.48-22.075,14.67-27.684,73.535-32.3,79.031,3.855,6.2-16.6,25.921-6.335,13.129,2.495,11.4-2.676,10.045,14.046-1.359,10.054Z" transform="translate(-78.356 -39.432)" fill="#111414"/>
            <path id="Trazado_824045" data-name="Trazado 824045" d="M97.8,53.46a72.933,72.933,0,0,0,41.492,19.686c7.037.847,14.335.635,21.006-1.769s12.64-7.2,15.388-13.668" transform="translate(-68.118 -32.25)" fill="none" stroke="#333" stroke-linecap="round" stroke-linejoin="round" stroke-width="1"/>
            <path id="Trazado_824046" data-name="Trazado 824046" d="M113.78,41.69A31.189,31.189,0,0,0,135,60.045a31.428,31.428,0,0,0,27.4-6.5" transform="translate(-59.703 -38.276)" fill="none" stroke="#333" stroke-linecap="round" stroke-linejoin="round" stroke-width="1"/>
            <path id="Trazado_824047" data-name="Trazado 824047" d="M158.443,64.06a22.134,22.134,0,0,0,7.679,37.769" transform="translate(-40.189 -26.824)" fill="none" stroke="#333" stroke-linecap="round" stroke-linejoin="round" stroke-width="1"/>
          </g>
          <g id="Grupo_1075411" data-name="Grupo 1075411" transform="translate(27.362 60.219)">
            <path id="Trazado_824048" data-name="Trazado 824048" d="M125.47,102.846a8.193,8.193,0,0,0,1.557,6.819,6.367,6.367,0,0,0,6.534,2.132,7.494,7.494,0,0,0,3.954-3.281,9.466,9.466,0,0,0,1.481-6.38,7.09,7.09,0,0,0-3.71-5.277,7.7,7.7,0,0,0-6.427.181c-1.862,1.043-2.992,3.855-3.374,5.806Z" transform="translate(-81.001 -70.567)" fill="#d17e54"/>
            <path id="Trazado_824049" data-name="Trazado 824049" d="M101.043,100.547a4.541,4.541,0,0,0-2.58,3.266,8.458,8.458,0,0,0,.305,4.264,9.256,9.256,0,0,0,1.71,3.417,5.109,5.109,0,0,0,3.282,1.86,4.754,4.754,0,0,0,4.534-2.585,6.332,6.332,0,0,0,.061-5.337c-1.008-2.359-4.351-6.063-7.312-4.884Z" transform="translate(-95.212 -68.479)" fill="#d17e54"/>
            <path id="Trazado_824050" data-name="Trazado 824050" d="M99.774,88.536c-.137,2.162,1.038,3.992,2.626,4.082s2.977-1.572,3.114-3.735-1.038-3.992-2.626-4.082S99.911,86.374,99.774,88.536Z" transform="translate(-94.446 -76.426)" fill="#111414"/>
            <path id="Trazado_824051" data-name="Trazado 824051" d="M119.374,90.976c-.137,2.162,1.038,3.992,2.626,4.082s2.992-1.572,3.114-3.735-1.038-3.992-2.626-4.082S119.511,88.814,119.374,90.976Z" transform="translate(-84.125 -75.177)" fill="#111414"/>
            <path id="Trazado_824052" data-name="Trazado 824052" d="M129.5,104.08a11.538,11.538,0,0,1-21.158,4.566" transform="translate(-89.93 -66.555)" fill="none" stroke="#111414" stroke-linecap="round" stroke-linejoin="round" stroke-width="1"/>
            <path id="Trazado_824053" data-name="Trazado 824053" d="M113,84.7a55.924,55.924,0,0,1,1.252,7.257,15.275,15.275,0,0,1-.153,5.337,6.35,6.35,0,0,1-3.1,4.188,13.835,13.835,0,0,1-2.473.786,5.1,5.1,0,0,0-2.29,1.179,2.134,2.134,0,0,0-.534,2.359,3.065,3.065,0,0,0,2.122,1.346,16.11,16.11,0,0,0,10.823-1.073" transform="translate(-91.409 -76.476)" fill="none" stroke="#111414" stroke-linecap="round" stroke-linejoin="round" stroke-width="1"/>
            <path id="Trazado_824054" data-name="Trazado 824054" d="M111.317,81.769A9.861,9.861,0,0,0,103.15,79.4a9.752,9.752,0,0,0-6.87,4.959" transform="translate(-96.28 -79.261)" fill="none" stroke="#111414" stroke-linecap="round" stroke-linejoin="round" stroke-width="1"/>
            <path id="Trazado_824055" data-name="Trazado 824055" d="M117.68,82.609a13.07,13.07,0,0,1,18.441,3.372" transform="translate(-85.011 -78.785)" fill="none" stroke="#111414" stroke-linecap="round" stroke-linejoin="round" stroke-width="1"/>
          </g>
          <g id="Grupo_1075413" data-name="Grupo 1075413" transform="translate(106.164 66.745)">
            <path id="Trazado_824056" data-name="Trazado 824056" d="M152.281,89.66c7.48-12.5,29.28-4.067,24.41,10.266-4.091,10.674-22.2,15.482-28.791,4.672Z" transform="translate(-147.9 -83.577)" fill="#df9271"/>
            <g id="Grupo_1075412" data-name="Grupo 1075412" transform="translate(13.738 7.187)">
              <path id="Trazado_824057" data-name="Trazado 824057" d="M159.022,88.33a11.639,11.639,0,0,0-1.13,11.4" transform="translate(-156.899 -88.33)" fill="none" stroke="#111414" stroke-linecap="round" stroke-linejoin="round" stroke-width="1"/>
              <path id="Trazado_824058" data-name="Trazado 824058" d="M157,92.779a6.843,6.843,0,0,0,7.3-1.8" transform="translate(-156.846 -86.973)" fill="none" stroke="#111414" stroke-linecap="round" stroke-linejoin="round" stroke-width="1"/>
            </g>
          </g>
        </g>
        <g id="Grupo_1075429" data-name="Grupo 1075429" transform="translate(144.049)">
          <g id="Grupo_1075415" data-name="Grupo 1075415" transform="translate(105.196 177.635)">
            <path id="Trazado_824059" data-name="Trazado 824059" d="M185.46,124.442c66.91-4.491,161.832,47.037,143.712,123.647-2.58,12.489-12.991,21.893-26.242,19.928-45.171-7.756-8.549-38.071-32.547-57.409-19.479-18.642-50.652-19.232-76.054-15.18" transform="translate(-185.46 -124.17)" fill="#aad447"/>
            <path id="Trazado_824060" data-name="Trazado 824060" d="M243.275,199.72c-2.336-8.316,2.152-17.508,9.236-22.543,7.068-5.05,16.2-6.532,24.9-6.169,7.953.333,16.365,2.359,21.738,8.18,5.374,5.836,6.641,14.273,6.9,22.165a96.427,96.427,0,0,1-1.5,21.273c-.946,4.944-2.458,9.979-5.847,13.729a16.085,16.085,0,0,1-11.465,5.322,14.224,14.224,0,0,1-11.358-5.307c-2.122-2.752-3.038-6.214-4.824-9.193-3.542-5.972-10-9.314-16.258-11.824-1.3-.514-3.267-.832-4.366-1.693-1.13-.892-1.588-2.661-2.259-3.9-1.756-3.3-3.893-6.426-4.916-10.039Z" transform="translate(-155.344 -100.218)" fill="#7cac35"/>
          </g>
          <g id="Grupo_1075424" data-name="Grupo 1075424">
            <g id="Grupo_1075416" data-name="Grupo 1075416" transform="translate(0 230.958)">
              <path id="Trazado_824061" data-name="Trazado 824061" d="M293.068,160.923A293.722,293.722,0,0,0,116.55,199.054c15.3,13.713,37.157,17.765,57.781,17.1a168.75,168.75,0,0,0,118.722-55.232Z" transform="translate(-116.55 -159.437)" fill="#487424"/>
              <path id="Trazado_824062" data-name="Trazado 824062" d="M278.655,167.679c-52.606-8.966-108.539,2.948-152.795,32.522a210.48,210.48,0,0,0,65.887.937,211.536,211.536,0,0,0,86.908-33.46Z" transform="translate(-111.648 -156.713)" fill="#375b1a"/>
            </g>
            <g id="Grupo_1075421" data-name="Grupo 1075421" transform="translate(70.665)">
              <g id="Grupo_1075418" data-name="Grupo 1075418" transform="translate(40.306)">
                <path id="Trazado_824063" data-name="Trazado 824063" d="M208.717,207.3c-8.839-.665-14.594-10.826-10.564-18.642-.168.333-5.893-7.046-6.3-7.877a25.056,25.056,0,0,1-2.58-10.1,28.72,28.72,0,0,1,6.534-19.232c1.42-1.739,6.274-4.6,5.954-6.895-.336-2.434-5.77-5.624-7.221-7.771a26.153,26.153,0,0,1-2.855-23.692c3.939-10.024,14.838-16.919,25.677-16.238a40.968,40.968,0,0,1,12.411-58.709A30.841,30.841,0,0,1,246.9,33.289c6.015.272,12.06,3.054,15.479,7.953-2.931-9.692,1.008-20.774,8.793-27.306s18.868-8.618,28.822-6.4,18.746,8.467,24.99,16.465a33.014,33.014,0,0,1,6.885,14.243c.916,5.231-.076,10.947-3.465,15.089,14.457,3.311,25.341,17.932,24.242,32.583s-14.014,27.548-28.806,28.727c9.678,8.815,12.518,23.889,7.511,35.939-4.992,12.05-17.143,20.623-30.18,22.3s-26.578-3.22-36.134-12.171c.611,5.383,1.191,10.992-.656,16.1-4.977,13.729-27.677,10.508-30.409-3.13.977,11.007-7.648,18.174-18.349,17.312a6.7,6.7,0,0,1,.824,9.026" transform="translate(-189.243 -6.683)" fill="#333"/>
                <g id="Grupo_1075417" data-name="Grupo 1075417" transform="translate(12.117 189.19)">
                  <path id="Trazado_824064" data-name="Trazado 824064" d="M212.951,136.56l-10.991,6.275,15.983,32.2,14.411-8.24Z" transform="translate(-194.664 -129.382)" fill="#111414"/>
                  <path id="Trazado_824094" data-name="Trazado 824094" d="M0,0,21.016.087l.039,9.382L.039,9.382Z" transform="translate(0 10.663) rotate(-29.96)" fill="#111414"/>
                  <line id="Línea_1077" data-name="Línea 1077" y1="6.471" x2="11.312" transform="translate(8.777 9.975)" fill="none" stroke="#333" stroke-linecap="round" stroke-linejoin="round" stroke-width="1"/>
                </g>
              </g>
              <g id="Grupo_1075420" data-name="Grupo 1075420" transform="translate(0 220.756)">
                <path id="Trazado_824065" data-name="Trazado 824065" d="M187.616,233.9,162.84,188.962l30.638-.559-7.4-12.716,33.676,1.285L210.79,161.58l42.851-8.89,8.717,32.658Z" transform="translate(-162.84 -152.69)" fill="#111414"/>
                <line id="Línea_1078" data-name="Línea 1078" y1="3.357" x2="16.105" transform="translate(70.772 0.801)" fill="none" stroke="#333" stroke-linecap="round" stroke-linejoin="round" stroke-width="1"/>
                <g id="Grupo_1075419" data-name="Grupo 1075419" transform="translate(17.021 16.979)">
                  <path id="Trazado_824066" data-name="Trazado 824066" d="M173.99,182.178l12.274-.438,6.58,11.294-9.4,5.367" transform="translate(-173.99 -154.797)" fill="#333"/>
                  <path id="Trazado_824067" data-name="Trazado 824067" d="M188.82,174.468l12.274-.438,6.564,11.294-9.4,5.367" transform="translate(-166.181 -158.744)" fill="#333"/>
                  <path id="Trazado_824068" data-name="Trazado 824068" d="M204.71,164.358l12.258-.438,6.58,11.309-9.4,5.367" transform="translate(-157.814 -163.92)" fill="#333"/>
                </g>
              </g>
            </g>
            <g id="Grupo_1075423" data-name="Grupo 1075423" transform="translate(0.015 232.428)">
              <path id="Trazado_824069" data-name="Trazado 824069" d="M116.56,198.557l64.956,197.37a186.312,186.312,0,0,0,133.346-27.17q-10.9-104.166-21.8-208.347a192.618,192.618,0,0,1-61.857,34.881c-50.988,17.3-95.625,8.285-114.646,3.251Z" transform="translate(-116.56 -160.41)" fill="#487424"/>
              <g id="Grupo_1075422" data-name="Grupo 1075422" transform="translate(99.563 154.023)">
                <path id="Trazado_824070" data-name="Trazado 824070" d="M188.33,284.6l9.953-22.316,17.113,15.2,6.213-7.242,4.5,19.232-18.762,1.6,2.641-6.486-8.64-7.711-4.946,11.279Z" transform="translate(-178.331 -262.28)" fill="#fff"/>
                <path id="Trazado_824071" data-name="Trazado 824071" d="M216,286.283l6.641,7.454-12.167,3.372-.9-8.467-8.885,11.914,11.77,8.331-.672-6.441,22.1-5.942L223.405,282.79Z" transform="translate(-171.822 -251.78)" fill="#fff"/>
                <path id="Trazado_824072" data-name="Trazado 824072" d="M181.78,293.334,194.695,280.8l10.579,10.251-7.205.65-3.328,10.372L205.5,299.79l.641,7.424-21.265,3.538,4.793-18.264Z" transform="translate(-181.78 -252.799)" fill="#fff"/>
              </g>
              <path id="Trazado_824073" data-name="Trazado 824073" d="M118.58,204.7a201.167,201.167,0,0,0,74.909,4.415c49.8-6.516,84.16-30.269,99.517-42.456" transform="translate(-115.496 -157.21)" fill="none" stroke="#111414" stroke-linecap="round" stroke-linejoin="round" stroke-width="1"/>
            </g>
          </g>
          <g id="Grupo_1075428" data-name="Grupo 1075428" transform="translate(57.726 267.222)">
            <g id="Grupo_1075425" data-name="Grupo 1075425" transform="translate(52.6)">
              <path id="Trazado_824074" data-name="Trazado 824074" d="M312.014,222.367a40.818,40.818,0,0,0-8.274-22.619A31.29,31.29,0,0,0,283.6,188c-3.511,3.78-4.839,8.679-7.114,13.532-16.762,30.783-56.392,42.274-87.671,52.933.229,10.191,2.687,19.943,1.893,30.239,43.309-.242,86.938-11.43,118.645-41.443a59.56,59.56,0,0,0,2.656-20.9Z" transform="translate(-188.82 -181.079)" fill="#df9271"/>
              <path id="Trazado_824075" data-name="Trazado 824075" d="M254.258,187.546a16.17,16.17,0,0,0-3.358,2.8,31.252,31.252,0,0,1,20.135,11.748,40.818,40.818,0,0,1,8.274,22.619,59.561,59.561,0,0,1-2.656,20.9c1.328-1.255,2.641-2.54,3.939-3.871,23.54-24.736,15.052-72.619-26.333-54.188Z" transform="translate(-156.13 -183.423)" fill="#d17e54"/>
            </g>
            <g id="Grupo_1075427" data-name="Grupo 1075427" transform="translate(0 61.467)">
              <path id="Trazado_824076" data-name="Trazado 824076" d="M221.771,241.439c-2.7-13.547-16.579-21.576-29.264-15.059-4.015,1.149-7.908-.6-11.831-1.013-11.571,3.22,5.19,10.9,9.816,11.748-8.93-.922-17.556-3.568-26.517-4.052-4.564-.166-6.564,4.748-2.076,6.7,1.42.726,3.053,1.149,4.244,2.207-11.938-7.167-17.754,6.774-3.023,7.681-2.687-.665-7.4-.03-7.251,3.583,2.2,5.126,9.816,5.262,14.64,6.668-3.084-1.361-9.175-.318-7.6,4.007,19.418,7.726,45.477,11.022,64.345-.287l-5.48-22.18Z" transform="translate(-154.364 -224.076)" fill="#df9271"/>
              <path id="Trazado_824077" data-name="Trazado 824077" d="M177.03,232.07a37.238,37.238,0,0,0,8.182.862" transform="translate(-142.429 -219.984)" fill="none" stroke="#111414" stroke-linecap="round" stroke-linejoin="round" stroke-width="1"/>
              <g id="Grupo_1075426" data-name="Grupo 1075426" transform="translate(6.406 16.41)">
                <path id="Trazado_824078" data-name="Trazado 824078" d="M160.56,234.93a93.012,93.012,0,0,0,28.852,5.655" transform="translate(-157.507 -234.93)" fill="none" stroke="#111414" stroke-linecap="round" stroke-linejoin="round" stroke-width="1"/>
                <path id="Trazado_824079" data-name="Trazado 824079" d="M158.56,240.74a258.087,258.087,0,0,0,28.013,4.823" transform="translate(-158.56 -231.956)" fill="none" stroke="#111414" stroke-linecap="round" stroke-linejoin="round" stroke-width="1"/>
                <path id="Trazado_824080" data-name="Trazado 824080" d="M162.29,247.01a85.465,85.465,0,0,0,23.189,3.689" transform="translate(-156.596 -228.746)" fill="none" stroke="#111414" stroke-linecap="round" stroke-linejoin="round" stroke-width="1"/>
              </g>
            </g>
          </g>
        </g>
        <g id="Grupo_1075436" data-name="Grupo 1075436" transform="translate(12.052 193.223)">
          <g id="Grupo_1075430" data-name="Grupo 1075430" transform="translate(0 42.108)">
            <path id="Trazado_824081" data-name="Trazado 824081" d="M49.893,224.562A39.732,39.732,0,0,1,34.719,204.68a22.191,22.191,0,0,0-3.068,5.4C21.407,241.753,63.907,255.088,86.3,238.714c4.137-2.722,8.106-5.655,11.984-8.709a66.67,66.67,0,0,1-20.822,3.054,50.615,50.615,0,0,1-27.585-8.5Z" transform="translate(-30.084 -140.649)" fill="#d17e54"/>
            <path id="Trazado_824082" data-name="Trazado 824082" d="M150.386,162.33c-25.021,11.037-99.365,39.931-117.256,64.046A39.647,39.647,0,0,0,48.3,246.258a50.615,50.615,0,0,0,27.585,8.5A66.67,66.67,0,0,0,96.712,251.7c20.2-15.951,37.371-35.818,56.621-52.858q3.618-3.447,7.251-6.895a84.208,84.208,0,0,1-10.167-29.619Z" transform="translate(-28.48 -162.33)" fill="#df9271"/>
          </g>
          <g id="Grupo_1075435" data-name="Grupo 1075435" transform="translate(118.838)">
            <path id="Trazado_824083" data-name="Trazado 824083" d="M115.12,157.546c4-3.236,9.327-5.821,14.564-5.549,1.923,2.631-.305,7.378,2.29,10.3,3.175,3.976-12.457,3.825-15.083,6.32-14.777,6.774-8.274-5.458-1.771-11.068Z" transform="translate(-107.93 -125.522)" fill="#df9271"/>
            <g id="Grupo_1075432" data-name="Grupo 1075432" transform="translate(6.961)">
              <path id="Trazado_824084" data-name="Trazado 824084" d="M112.49,151.036,157.051,211.6l41.279-31.3L185.995,173.9l4.549-3.765-18.426-10.674,3.816-4.46-17.708-8.724,6.87-5.957-22.776-5.836Z" transform="translate(-112.49 -134.48)" fill="#111414"/>
              <g id="Grupo_1075431" data-name="Grupo 1075431" transform="translate(16.441 10.009)">
                <path id="Trazado_824085" data-name="Trazado 824085" d="M123.26,147.768l12.793-6.668,8.2,2.994-17.021,10.311" transform="translate(-123.26 -141.1)" fill="#333"/>
                <path id="Trazado_824086" data-name="Trazado 824086" d="M132.08,154.178l12.808-6.668,8.182,2.994-17.006,10.312" transform="translate(-118.616 -137.818)" fill="#333"/>
                <path id="Trazado_824087" data-name="Trazado 824087" d="M140,163.633l12.808-6.653,8.182,2.979L143.984,170.27" transform="translate(-114.445 -132.97)" fill="#333"/>
                <path id="Trazado_824088" data-name="Trazado 824088" d="M142.72,174.032l17.54-9.132,8.182,2.994-21.861,13.245" transform="translate(-113.013 -128.916)" fill="#333"/>
              </g>
            </g>
            <g id="Grupo_1075434" data-name="Grupo 1075434" transform="translate(0.717 21.238)">
              <path id="Trazado_824089" data-name="Trazado 824089" d="M108.873,170.425a.588.588,0,0,1-.473.242c13.861-4.249,28-9.026,39.2-18.657,6.518-7.484,12.487-1.724,7.862,6.154,10.5-9.162,12.762,2.162,5.374,9,12.442-7.454,6.625,8.028.107,11.582,10.854-1.633-.137,9.011-4.076,10.75-11.312,4.536-27.4,14.953-39.492,9.752l-8.518-28.8Z" transform="translate(-108.4 -148.527)" fill="#df9271"/>
              <path id="Trazado_824090" data-name="Trazado 824090" d="M124.133,158.17a25.828,25.828,0,0,0-7.633,2.192" transform="translate(-104.135 -143.59)" fill="none" stroke="#111414" stroke-linecap="round" stroke-linejoin="round" stroke-width="1"/>
              <g id="Grupo_1075433" data-name="Grupo 1075433" transform="translate(25.555 9.999)">
                <path id="Trazado_824091" data-name="Trazado 824091" d="M146.237,155.14a53.954,53.954,0,0,1-21.1,14.817" transform="translate(-125.14 -155.14)" fill="none" stroke="#111414" stroke-linecap="round" stroke-linejoin="round" stroke-width="1"/>
                <path id="Trazado_824092" data-name="Trazado 824092" d="M151.178,160.15a58.747,58.747,0,0,1-21.738,14.379" transform="translate(-122.876 -152.575)" fill="none" stroke="#111414" stroke-linecap="round" stroke-linejoin="round" stroke-width="1"/>
                <path id="Trazado_824093" data-name="Trazado 824093" d="M150.607,168.4a57,57,0,0,1-20.777,10.236" transform="translate(-122.67 -148.352)" fill="none" stroke="#111414" stroke-linecap="round" stroke-linejoin="round" stroke-width="1"/>
              </g>
            </g>
          </g>
        </g>
      </g>
    </g>
  </g>
</svg>
