<svg xmlns="http://www.w3.org/2000/svg" xmlns:xlink="http://www.w3.org/1999/xlink" width="400" height="285" viewBox="0 0 400 285">
  <defs>
    <clipPath id="clip-path">
      <path id="Trazado_823016" data-name="Trazado 823016" d="M355.411,163.4c0,15.74-69.685,28.494-155.655,28.494S44.1,179.136,44.1,163.4c-10.76,30.725,6.647,167.922,165.817,167.922S355.411,147.665,355.411,163.4Z" transform="translate(-41.543 -162.44)" fill="none"/>
    </clipPath>
    <radialGradient id="radial-gradient" cx="0.5" cy="0.5" r="0.546" gradientTransform="translate(0.075) scale(0.851 1)" gradientUnits="objectBoundingBox">
      <stop offset="0.07" stop-color="#95cf4b"/>
      <stop offset="1" stop-color="#79cf4b"/>
    </radialGradient>
    <radialGradient id="radial-gradient-2" cx="0.5" cy="0.501" r="0.692" gradientTransform="translate(0.203) scale(0.595 1)" xlink:href="#radial-gradient"/>
    <radialGradient id="radial-gradient-3" cx="0.5" cy="0.5" r="0.416" gradientTransform="translate(-0.304) scale(1.608 1)" xlink:href="#radial-gradient"/>
    <radialGradient id="radial-gradient-4" cx="0.5" cy="0.5" r="0.451" gradientTransform="translate(-0.133) scale(1.266 1)" xlink:href="#radial-gradient"/>
    <radialGradient id="radial-gradient-5" cx="0.5" cy="0.5" r="0.447" gradientTransform="translate(-0.145) scale(1.291 1)" xlink:href="#radial-gradient"/>
    <radialGradient id="radial-gradient-6" cx="0.5" cy="0.5" r="0.391" gradientTransform="translate(-0.554) scale(2.109 1)" xlink:href="#radial-gradient"/>
    <radialGradient id="radial-gradient-7" cx="0.5" cy="0.5" r="0.807" gradientTransform="translate(0.256) scale(0.488 1)" xlink:href="#radial-gradient"/>
    <radialGradient id="radial-gradient-8" cx="0.5" cy="0.501" r="0.472" gradientTransform="translate(-0.063) scale(1.126 1)" xlink:href="#radial-gradient"/>
    <radialGradient id="radial-gradient-9" cx="0.5" cy="0.502" r="0.57" gradientTransform="translate(0.104) scale(0.791 1)" xlink:href="#radial-gradient"/>
    <radialGradient id="radial-gradient-10" cx="0.499" cy="0.499" r="0.885" gradientTransform="translate(0.282) scale(0.436 1)" xlink:href="#radial-gradient"/>
    <radialGradient id="radial-gradient-11" cx="0.5" cy="0.5" r="0.462" gradientTransform="translate(-0.095) scale(1.191 1)" xlink:href="#radial-gradient"/>
    <radialGradient id="radial-gradient-12" cx="0.499" cy="0.499" r="0.829" gradientTransform="translate(0.264) scale(0.471 1)" xlink:href="#radial-gradient"/>
    <radialGradient id="radial-gradient-13" cx="0.5" cy="0.5" r="0.527" gradientTransform="translate(0.048) scale(0.905 1)" xlink:href="#radial-gradient"/>
    <radialGradient id="radial-gradient-14" cx="0.501" cy="0.5" r="0.518" gradientTransform="translate(0.034) scale(0.933 1)" xlink:href="#radial-gradient"/>
    <radialGradient id="radial-gradient-15" cx="0.5" cy="0.5" r="0.764" gradientTransform="translate(0.239) scale(0.522 1)" xlink:href="#radial-gradient"/>
    <radialGradient id="radial-gradient-16" cx="0.501" cy="0.501" r="0.446" gradientTransform="translate(-0.155) scale(1.31 1)" xlink:href="#radial-gradient"/>
    <radialGradient id="radial-gradient-17" cx="0.5" cy="0.5" r="0.409" gradientTransform="translate(-0.36) scale(1.72 1)" xlink:href="#radial-gradient"/>
  </defs>
  <g id="tierra" transform="translate(0.01 -11.85)">
    <g id="OBJECTS" transform="translate(-0.01 11.85)">
      <g id="Grupo_1073931" data-name="Grupo 1073931">
        <g id="Grupo_1073901" data-name="Grupo 1073901" transform="translate(321.72 145.414)">
          <path id="Trazado_822952" data-name="Trazado 822952" d="M397.146,212.1c-5.413,3.16-9.04,7.769-9.966,11.994,4.132,1.271,9.928.374,15.341-2.786s9.04-7.769,9.966-11.994C408.355,208.04,402.559,208.937,397.146,212.1Z" transform="translate(-346.931 -199.187)" fill="#95b702"/>
          <path id="Trazado_822953" data-name="Trazado 822953" d="M389.922,212.122c-3.394,4.581-7.918,7.413-11.835,7.834-.739-3.87.645-9.021,4.039-13.6s7.918-7.413,11.835-7.834C394.7,202.39,393.315,207.541,389.922,212.122Z" transform="translate(-346.326 -198.52)" fill="#95b702"/>
          <path id="Trazado_822954" data-name="Trazado 822954" d="M384.6,244.548c-4.871-2.964-8.105-7.217-8.872-11.069,3.786-1.084,9.04-.178,13.911,2.786s8.105,7.217,8.872,11.069C394.726,248.418,389.472,247.512,384.6,244.548Z" transform="translate(-346.185 -200.768)" fill="#95b702"/>
          <path id="Trazado_822955" data-name="Trazado 822955" d="M397.464,216.754a43.655,43.655,0,0,1-14.444,6.9,62.981,62.981,0,0,1-13.172,2.4,43.215,43.215,0,0,0,8.021-6.74c2.225-2.393,4.749-5.31,5.918-8.4.309-.813-.851-1.131-1.3-.542-.869,1.159-1.533,2.477-2.365,3.665a38.858,38.858,0,0,1-2.8,3.524,41.558,41.558,0,0,1-6.544,5.946,43.243,43.243,0,0,1-16.052,7.3,41,41,0,0,1-10.012.982c-.795-.019-.785,1.187,0,1.225a40.556,40.556,0,0,0,13.939-1.73.855.855,0,0,0,.15-.009c3.777-1.056,8,.075,11.63,1.225a97.936,97.936,0,0,1,10.826,4.4c.963.43,1.8-.991.832-1.421a93.183,93.183,0,0,0-11.658-4.6,28.147,28.147,0,0,0-7.077-1.318c1.3-.57,2.58-1.2,3.814-1.888a58.67,58.67,0,0,0,16.687-2.505,62.1,62.1,0,0,0,7.759-2.935c2.412-1.1,5.17-2.318,6.965-4.338a.814.814,0,0,0-1.15-1.15Z" transform="translate(-344.126 -199.272)" fill="#045604"/>
        </g>
        <g id="Grupo_1073905" data-name="Grupo 1073905" transform="translate(324.454 18.482)">
          <path id="Trazado_822956" data-name="Trazado 822956" d="M354.919,43.421c8.255,18.23,10.125,39.461,2.328,58.186a59.216,59.216,0,0,1-9.143,15.135c-.767.916.533,2.262,1.309,1.337,13.658-16.379,17.417-38.666,12.733-59.149a86.491,86.491,0,0,0-5.6-16.435c-.5-1.094-2.122-.168-1.627.926Z" transform="translate(-347.103 -32.296)" fill="#00cad2"/>
          <g id="Grupo_1073902" data-name="Grupo 1073902" transform="translate(1.717 48.959)">
            <path id="Trazado_822957" data-name="Trazado 822957" d="M366.927,97.336c-4.1,2.449-6.834,5.992-7.507,9.218,3.16.935,7.572.206,11.676-2.244s6.834-5.992,7.507-9.218C375.444,94.158,371.031,94.887,366.927,97.336Z" transform="translate(-349.573 -84.688)" fill="#00b2b2"/>
            <path id="Trazado_822958" data-name="Trazado 822958" d="M357.584,93.376c1.468,4.543,1.187,9.012-.439,11.882-2.992-1.384-5.833-4.843-7.3-9.386s-1.187-9.012.439-11.882C353.274,85.374,356.116,88.833,357.584,93.376Z" transform="translate(-348.887 -83.99)" fill="#00b2b2"/>
          </g>
          <g id="Grupo_1073903" data-name="Grupo 1073903" transform="translate(3.929 34.917)">
            <path id="Trazado_822959" data-name="Trazado 822959" d="M368.776,75.555c-2.786,3.066-4.16,6.7-3.908,9.554,2.861-.019,6.338-1.739,9.134-4.815s4.16-6.7,3.908-9.554C375.049,70.759,371.571,72.479,368.776,75.555Z" transform="translate(-352.138 -69.085)" fill="#00b2b2"/>
            <path id="Trazado_822960" data-name="Trazado 822960" d="M359.879,74.925c2.365,3.4,3.263,7.18,2.636,9.975-2.833-.393-6.067-2.552-8.432-5.955s-3.263-7.18-2.636-9.975C354.279,69.363,357.514,71.522,359.879,74.925Z" transform="translate(-351.253 -68.97)" fill="#00b2b2"/>
          </g>
          <g id="Grupo_1073904" data-name="Grupo 1073904">
            <path id="Trazado_822961" data-name="Trazado 822961" d="M365.6,52.92c-2.019,3.618-2.543,7.47-1.645,10.19,2.786-.664,5.787-3.132,7.806-6.75s2.543-7.47,1.645-10.19C370.616,46.834,367.615,49.3,365.6,52.92Z" transform="translate(-348.123 -32.568)" fill="#00b2b2"/>
            <path id="Trazado_822962" data-name="Trazado 822962" d="M353,41.932c1.318,3.936,3.814,6.909,6.422,8.077,1.384-2.505,1.58-6.385.262-10.312s-3.814-6.909-6.422-8.077C351.876,34.125,351.68,38.005,353,41.932Z" transform="translate(-347.379 -31.62)" fill="#00b2b2"/>
            <path id="Trazado_822963" data-name="Trazado 822963" d="M356.6,54.517c3.076,2.786,4.8,6.264,4.824,9.124-2.851.262-6.479-1.112-9.554-3.889s-4.8-6.264-4.824-9.124c2.851-.262,6.479,1.112,9.554,3.889Z" transform="translate(-347.05 -32.856)" fill="#00b2b2"/>
          </g>
        </g>
        <g id="Grupo_1073906" data-name="Grupo 1073906" transform="translate(325.8 63.238)">
          <path id="Trazado_822964" data-name="Trazado 822964" d="M348.509,144.006v-.355c0-.224,0-.589.019-1.01s.037-.963.094-1.552c.037-.608.112-1.271.206-2,.178-1.477.467-3.169.879-5.02a50.079,50.079,0,0,1,1.673-5.871,51.927,51.927,0,0,1,16.014-23.026A51.007,51.007,0,0,1,379.8,97.553a52.2,52.2,0,0,1,19.314-4.244c1.9-.047,3.627,0,5.1.1.739.047,1.4.112,2.01.187.589.056,1.112.14,1.543.206s.767.14,1,.178.346.065.346.065V94.4c0,.224,0,.589-.019,1.01s-.037.963-.094,1.552c-.037.608-.112,1.271-.206,2.01a49.83,49.83,0,0,1-.869,5.039,52.039,52.039,0,0,1-7.853,18.155,51.166,51.166,0,0,1-9.853,10.714,51.712,51.712,0,0,1-12.434,7.591,52.362,52.362,0,0,1-13.228,3.721,51.482,51.482,0,0,1-6.086.524,49.039,49.039,0,0,1-5.1-.093c-.739-.047-1.4-.1-2.01-.178-.589-.056-1.112-.14-1.543-.206s-.767-.14-.991-.178-.346-.065-.346-.065Z" transform="translate(-348.49 -93.291)" fill="#007500"/>
          <path id="Trazado_822965" data-name="Trazado 822965" d="M349.632,144.23c-.318-.047-.589-.1-.776-.14-.224-.047-.346-.065-.346-.065V143.2c2.038-1.673,4.067-3.356,6.1-5.03q.659-9.83,1.309-19.651c.524-.869,1.066-1.739,1.645-2.58,0-.009.019-.028.028-.037q-.7,10.489-1.393,20.969l7.657-6.31q.785-11.821,1.571-23.652.785-.715,1.6-1.4-.785,11.877-1.58,23.746l7.657-6.31,1.514-22.773c.514-.3,1.038-.58,1.561-.86L374.7,121.634l7.657-6.31q.645-9.62,1.281-19.23c.514-.178,1.019-.337,1.533-.5q-.617,9.213-1.225,18.417l7.656-6.31q.463-6.885.916-13.78l.514-.084c.337-.047.673-.084,1-.131q-.421,6.338-.841,12.686,7.5-6.17,15-12.35a.746.746,0,0,1,.206-.112l.393.075c.215.037.327.065.337.065h.009v.346c0,.187,0,.467-.009.785l-14.977,12.34,12.406,1.571c-.084.262-.168.533-.262.795-.075.215-.159.43-.234.645l-13.49-1.711-7.657,6.31q9.045,1.15,18.08,2.29c-.252.467-.514.944-.785,1.412q-9.437-1.192-18.875-2.393l-7.657,6.31,21.923,2.777c-.374.458-.757.916-1.15,1.365l-22.362-2.833-7.657,6.31,23.278,2.945c-.552.439-1.122.879-1.692,1.3q-11.583-1.472-23.175-2.935l-7.657,6.31,20.389,2.58c-.972.411-1.944.795-2.926,1.141l-19.053-2.412q-2.973,2.44-5.946,4.9Z" transform="translate(-348.491 -93.318)" fill="#80a900" opacity="0.5"/>
        </g>
        <g id="Grupo_1073907" data-name="Grupo 1073907" transform="translate(321.266 98.33)">
          <path id="Trazado_822966" data-name="Trazado 822966" d="M343.64,154.3s.075-.093.234-.271.374-.449.673-.748c.29-.318.654-.7,1.084-1.112.43-.439.916-.9,1.458-1.384a49.815,49.815,0,0,1,3.936-3.235,50.673,50.673,0,0,1,5.1-3.366,52.685,52.685,0,0,1,12.686-5.291,51.712,51.712,0,0,1,41.312,6.32,50.214,50.214,0,0,1,4.955,3.581,49.388,49.388,0,0,1,3.8,3.412c.524.514,1,1,1.4,1.449.411.43.757.832,1.038,1.169.28.318.5.608.645.785s.215.28.215.28-.075.093-.234.271-.374.449-.673.757-.654.71-1.084,1.122c-.421.439-.916.9-1.458,1.393-1.094,1.01-2.421,2.113-3.936,3.253a50.7,50.7,0,0,1-5.1,3.375,52.029,52.029,0,0,1-41.527,4.656,52.384,52.384,0,0,1-12.471-5.8,51.314,51.314,0,0,1-4.955-3.571,49.462,49.462,0,0,1-3.8-3.394c-.523-.514-1-.991-1.4-1.44-.411-.43-.757-.832-1.038-1.159s-.5-.608-.645-.776l-.215-.271Z" transform="translate(-343.64 -137.131)" fill="#005100"/>
          <path id="Trazado_822967" data-name="Trazado 822967" d="M344.361,155.192c-.206-.243-.383-.467-.5-.608l-.215-.271s.075-.093.234-.271c.084-.093.187-.215.308-.346,2.636.056,5.273.1,7.909.159q6.9-7.025,13.789-14.06c.963-.318,1.935-.626,2.935-.888a.084.084,0,0,0,.047-.009q-7.362,7.5-14.715,15l9.919.2q8.3-8.47,16.6-16.93c.711-.019,1.412-.028,2.122-.028q-8.33,8.5-16.669,17l9.919.2,15.986-16.295q.883.168,1.739.365l-15.668,15.977,9.919.2q6.745-6.885,13.49-13.761c.5.206,1,.411,1.486.626l-12.929,13.182,9.919.2q4.838-4.936,9.676-9.863c.15.093.3.178.439.271.29.187.561.374.841.552q-4.445,4.543-8.9,9.078l19.426.393a.794.794,0,0,1,.224.047c.093.122.178.234.252.318.14.168.206.262.215.271v.009s-.075.093-.224.262c-.122.14-.3.355-.514.589l-19.4-.393q4.193,4.642,8.386,9.274c-.243.14-.477.29-.72.43-.2.112-.4.224-.6.337q-4.557-5.048-9.124-10.087l-9.919-.2q6.114,6.759,12.228,13.509c-.5.2-1.01.374-1.514.561q-6.38-7.054-12.77-14.107l-9.919-.2q7.418,8.189,14.827,16.388c-.589.1-1.169.2-1.767.28q-7.558-8.358-15.126-16.706l-9.919-.2,15.743,17.4c-.71-.028-1.421-.065-2.131-.122q-7.839-8.666-15.668-17.323l-9.919-.2q6.885,7.614,13.789,15.238c-1-.318-1.991-.664-2.964-1.038q-6.436-7.124-12.882-14.238c-2.561-.056-5.132-.1-7.694-.159Z" transform="translate(-343.641 -137.132)" fill="#007500"/>
        </g>
        <g id="Grupo_1073911" data-name="Grupo 1073911" transform="translate(7.46 137.434)">
          <path id="Trazado_822968" data-name="Trazado 822968" d="M19.339,200.155c6.834,18.809,20.352,35.3,39.012,43.237a59.031,59.031,0,0,0,17.117,4.431c1.187.122,1.2,1.991,0,1.87-21.212-2.16-39.479-15.472-50.455-33.393a86.7,86.7,0,0,1-7.488-15.668c-.411-1.131,1.4-1.6,1.8-.477Z" transform="translate(-8.589 -190.844)" fill="#00cad2"/>
          <g id="Grupo_1073908" data-name="Grupo 1073908" transform="translate(28.074 33.085)">
            <path id="Trazado_822969" data-name="Trazado 822969" d="M47.919,247.191c4.646-1.112,9.078-.5,11.817,1.346-1.608,2.879-5.273,5.441-9.919,6.553s-9.078.5-11.817-1.346C39.608,250.865,43.273,248.3,47.919,247.191Z" transform="translate(-38 -226.998)" fill="#00b2b2"/>
            <path id="Trazado_822970" data-name="Trazado 822970" d="M52.661,237.447c2.131,4.272,5.45,7.273,8.619,8.189,1.178-3.085.785-7.535-1.346-11.817s-5.45-7.273-8.619-8.189C50.137,228.715,50.529,233.165,52.661,237.447Z" transform="translate(-38.825 -225.63)" fill="#00b2b2"/>
          </g>
          <g id="Grupo_1073909" data-name="Grupo 1073909" transform="translate(12.901 23.746)">
            <path id="Trazado_822971" data-name="Trazado 822971" d="M31.661,232.888c4.141.243,7.657,1.879,9.47,4.095-2.057,1.991-5.749,3.188-9.891,2.945s-7.657-1.879-9.47-4.095C23.827,233.841,27.519,232.645,31.661,232.888Z" transform="translate(-21.77 -216.761)" fill="#00b2b2"/>
            <path id="Trazado_822972" data-name="Trazado 822972" d="M38.073,225.793c.692,4.085,2.692,7.413,5.1,8.975,1.758-2.262,2.552-6.058,1.86-10.153s-2.692-7.413-5.1-8.975C38.176,217.9,37.381,221.7,38.073,225.793Z" transform="translate(-22.816 -215.64)" fill="#00b2b2"/>
          </g>
          <g id="Grupo_1073910" data-name="Grupo 1073910">
            <path id="Trazado_822973" data-name="Trazado 822973" d="M18.272,214.44c3.973,1.178,7.04,3.562,8.3,6.133-2.459,1.468-6.32,1.8-10.3.626s-7.04-3.562-8.3-6.133c2.459-1.468,6.32-1.8,10.3-.626Z" transform="translate(-7.97 -191.77)" fill="#00b2b2"/>
            <path id="Trazado_822974" data-name="Trazado 822974" d="M19.992,197.429c1.8,3.73,2.1,7.6,1.056,10.265-2.739-.832-5.59-3.459-7.4-7.189s-2.1-7.6-1.056-10.265C15.327,191.072,18.179,193.7,19.992,197.429Z" transform="translate(-8.232 -190.24)" fill="#00b2b2"/>
            <path id="Trazado_822975" data-name="Trazado 822975" d="M26.018,208.9c-.252,4.141.944,7.834,2.926,9.891,2.225-1.8,3.861-5.329,4.113-9.461s-.944-7.834-2.926-9.891C27.906,201.244,26.27,204.769,26.018,208.9Z" transform="translate(-9.143 -190.839)" fill="#00b2b2"/>
          </g>
        </g>
        <path id="Trazado_822976" data-name="Trazado 822976" d="M359.219,87.957c-9.7-18.79-25.3-34.851-45.462-42.55-24.344-9.294-51.95-5.126-74.845,6.15-11.686,5.753-21.717,13.968-32.767,20.726a67.289,67.289,0,0,1-17.173,7.892,42.6,42.6,0,0,1-20.53.258c-6.9-1.494-13.584-3.826-20.53-5.145a108.841,108.841,0,0,0-18.211-1.9,110.8,110.8,0,0,0-36.366,5.384c-23.157,7.551-42.957,22.976-54.9,44.034-11.574,20.394-15.734,45.1-9.779,67.868,5.665,21.63,20.576,40.6,39.919,52.083A81.8,81.8,0,0,0,100.1,253.666c14.331,1.77,28.784-.415,42.854-3.116,14.163-2.72,28.27-6.011,42.733-6.712a.893.893,0,0,0,.776-.5,271.93,271.93,0,0,1,29.682,4.877c14.322,3.079,28.672,6.528,43.35,7.477a95.578,95.578,0,0,0,36.151-4.278c20.95-6.906,38.759-21.141,51.773-38.558a123.5,123.5,0,0,0,24.063-61.543,115.225,115.225,0,0,0-12.247-63.35Z" transform="translate(-1.681 -13.703)" fill="#52daf0" opacity="0.29"/>
        <path id="Trazado_822977" data-name="Trazado 822977" d="M272.61,144.437,304.582,35.46l12.7,34.683,5.871-21.306,37.123,96.656Z" transform="translate(-17.748 -13.388)" fill="#34a6ce"/>
        <path id="Trazado_822978" data-name="Trazado 822978" d="M56.12,145.245,83.166,59.49l14.92,27.046,13.06-40.106,32.645,99.778Z" transform="translate(-3.646 -14.102)" fill="#34a6ce"/>
        <path id="Trazado_822979" data-name="Trazado 822979" d="M95.641,53.12a6.265,6.265,0,0,0-5.721-3.693h-.037A7.777,7.777,0,0,1,84.142,47a8.8,8.8,0,0,0-6.4-2.739c-.243,0-.486.009-.72.028a8.866,8.866,0,0,1-7.133-2.431,11.749,11.749,0,0,0-8.4-3.515c-6.32,0-10,9.48-12.929,11.078s-4.73,1.514-5.721,3.693H95.65Z" transform="translate(-2.781 -13.575)" fill="#fff"/>
        <path id="Trazado_822980" data-name="Trazado 822980" d="M174.952,69.521a4.878,4.878,0,0,0-4.441-2.87h-.028A5.505,5.505,0,0,1,166.23,65a6.841,6.841,0,0,0-5.179-2.356,6.568,6.568,0,0,0-.748.037,6.287,6.287,0,0,1-5.273-1.814,9.115,9.115,0,0,0-6.609-2.814c-4.908,0-12.91,2.477-14.481,11.471h41.012Z" transform="translate(-8.715 -14.859)" fill="#fff"/>
        <g id="Grupo_1073912" data-name="Grupo 1073912" transform="translate(46.322 199.721)">
          <path id="Trazado_822981" data-name="Trazado 822981" d="M119.488,279.616s-.112-.047-.327-.14-.533-.243-.935-.383c-.4-.159-.9-.346-1.458-.533-.57-.206-1.215-.4-1.916-.608a49.263,49.263,0,0,0-4.955-1.187,51.592,51.592,0,0,0-6.049-.795,52.71,52.71,0,0,0-13.724.795A51.633,51.633,0,0,0,55.749,300.51a52.894,52.894,0,0,0-2.889,5.385c-.795,1.73-1.449,3.319-1.935,4.73-.243.7-.458,1.337-.626,1.916-.178.561-.318,1.075-.421,1.505-.112.411-.178.767-.234.982s-.075.346-.075.346.112.047.327.14.533.243.935.383c.4.159.9.346,1.468.533.57.206,1.215.411,1.926.617,1.421.43,3.1.841,4.964,1.206a49.77,49.77,0,0,0,6.058.8,51.907,51.907,0,0,0,13.724-.795,50.961,50.961,0,0,0,13.752-4.786,51.64,51.64,0,0,0,11.91-8.4,52.435,52.435,0,0,0,8.676-10.657,51.153,51.153,0,0,0,2.9-5.375,49.761,49.761,0,0,0,1.935-4.712c.252-.692.458-1.328.636-1.916.178-.561.318-1.075.43-1.5.112-.4.178-.757.234-.982s.075-.346.075-.346Z" transform="translate(-49.542 -275.83)" fill="#007500"/>
          <path id="Trazado_822982" data-name="Trazado 822982" d="M119.234,280.761c.075-.309.14-.589.178-.767.047-.224.075-.346.075-.346s-.112-.047-.327-.14c-.112-.047-.262-.112-.43-.178-2.347,1.2-4.693,2.4-7.04,3.6q-9.283-3.309-18.557-6.61c-1.01.131-2.019.29-3.029.486a.084.084,0,0,0-.047.009q9.9,3.534,19.791,7.058l-8.834,4.515q-11.162-3.982-22.334-7.965c-.645.29-1.29.589-1.916.907q11.2,4,22.418,7.993l-8.834,4.515q-10.756-3.828-21.5-7.666c-.477.355-.944.72-1.412,1.084q10.545,3.758,21.081,7.516L79.68,299.29q-9.073-3.239-18.155-6.469-.547.6-1.066,1.206l17.388,6.2-8.834,4.515Q62.507,302.426,56,300.1c-.093.15-.187.29-.28.439-.178.29-.346.58-.514.869q5.988,2.131,11.976,4.272-8.652,4.431-17.295,8.844a.732.732,0,0,0-.187.15c-.037.15-.065.29-.084.393-.047.215-.075.327-.075.337v.009s.112.047.318.14c.168.065.43.187.72.3l17.276-8.834q-1.739,6-3.487,12c.28.028.552.056.841.075.224.019.458.028.692.037q1.893-6.535,3.8-13.06l8.834-4.515q-2.538,8.75-5.086,17.5c.533-.047,1.066-.1,1.608-.159q2.65-9.143,5.31-18.277l8.834-4.515q-3.085,10.615-6.17,21.221c.57-.159,1.141-.337,1.711-.514q3.141-10.826,6.292-21.642l8.834-4.515q-3.267,11.26-6.544,22.53c.626-.337,1.243-.682,1.86-1.038q3.253-11.218,6.516-22.427l8.834-4.515q-2.861,9.872-5.731,19.735c.767-.729,1.5-1.468,2.206-2.234q2.678-9.227,5.357-18.445c2.281-1.169,4.571-2.337,6.853-3.506Z" transform="translate(-49.54 -275.862)" fill="#80a900" opacity="0.5"/>
        </g>
        <g id="Grupo_1073913" data-name="Grupo 1073913" transform="translate(19.772 185.913)">
          <path id="Trazado_822983" data-name="Trazado 822983" d="M98.36,274.693l-.168-.309c-.112-.2-.28-.514-.5-.869-.224-.374-.5-.823-.832-1.309-.327-.514-.71-1.056-1.15-1.655-.869-1.206-1.945-2.552-3.2-3.973a50.556,50.556,0,0,0-4.3-4.328,52.316,52.316,0,0,0-11.349-7.759,51.792,51.792,0,0,0-13.8-4.665,51.141,51.141,0,0,0-14.546-.682,51.757,51.757,0,0,0-13.387,3.132,50.944,50.944,0,0,0-5.581,2.5c-1.683.879-3.179,1.748-4.422,2.561-.617.4-1.178.776-1.673,1.131-.486.337-.907.664-1.253.926s-.608.5-.785.636-.271.224-.271.224l.168.308c.112.2.28.524.5.879.224.374.5.823.832,1.318.327.514.71,1.066,1.15,1.664a48.468,48.468,0,0,0,3.2,3.992,50.66,50.66,0,0,0,4.3,4.347,51.986,51.986,0,0,0,11.349,7.759,51.021,51.021,0,0,0,13.808,4.628,51.87,51.87,0,0,0,14.556.636,52.439,52.439,0,0,0,13.387-3.132,54.359,54.359,0,0,0,9.984-5.03c.617-.393,1.178-.767,1.673-1.131.486-.337.907-.654,1.253-.926.337-.252.608-.486.785-.636s.271-.224.271-.224Z" transform="translate(-21.14 -248.905)" fill="#005100"/>
          <path id="Trazado_822984" data-name="Trazado 822984" d="M97.483,275.414c.252-.2.467-.383.608-.5.178-.15.271-.224.271-.224l-.168-.308c-.056-.1-.14-.243-.224-.4q-3.884-.729-7.778-1.458-5.315-8.288-10.639-16.575c-.879-.514-1.776-1-2.692-1.468-.019,0-.028-.009-.047-.019q5.679,8.849,11.349,17.688l-9.751-1.823q-6.394-9.97-12.808-19.95c-.692-.168-1.374-.318-2.075-.458q6.423,10.012,12.854,20.034l-9.751-1.823q-6.17-9.606-12.331-19.211c-.6-.009-1.187-.009-1.776,0q6.044,9.423,12.088,18.838-4.88-.911-9.751-1.823-5.2-8.105-10.405-16.22c-.533.094-1.056.2-1.58.309q4.978,7.769,9.966,15.537-4.88-.912-9.751-1.823-3.73-5.82-7.46-11.63c-.159.056-.327.112-.486.178-.318.122-.626.243-.935.374q3.436,5.343,6.862,10.695-9.55-1.781-19.1-3.571a.978.978,0,0,0-.234,0q-.182.154-.309.252c-.168.14-.252.215-.262.224v.009l.168.308c.093.159.224.4.383.682q9.536,1.781,19.071,3.571-5.048,3.688-10.106,7.367c.206.187.4.383.617.57.168.15.346.3.524.449q5.5-4.01,10.985-8.012,4.88.911,9.751,1.823Q45.2,272.4,37.839,277.76c.449.29.907.58,1.374.851Q46.9,273,54.591,267.4l9.751,1.823q-8.933,6.507-17.856,13.023c.552.224,1.1.43,1.664.636q9.1-6.633,18.211-13.275l9.751,1.823L57.153,285.258c.7.122,1.4.224,2.1.318q9.437-6.885,18.866-13.761,4.88.911,9.751,1.823-8.3,6.058-16.6,12.107c1.047-.1,2.085-.243,3.113-.411L89.9,274.021c2.524.467,5.048.944,7.563,1.412Z" transform="translate(-21.142 -248.905)" fill="#007500"/>
        </g>
        <path id="Trazado_822985" data-name="Trazado 822985" d="M355.59,161.367c0,17.547-69.685,31.767-155.655,31.767S44.28,178.914,44.28,161.367,113.965,129.6,199.935,129.6,355.59,143.819,355.59,161.367Z" transform="translate(-2.875 -39.015)" fill="#19c9db"/>
        <path id="Trazado_822986" data-name="Trazado 822986" d="M342.448,161.568c0,15.949-63.365,28.887-141.529,28.887S59.39,177.526,59.39,161.568s63.365-28.878,141.529-28.878S342.448,145.619,342.448,161.568Z" transform="translate(-3.859 -39.303)" fill="#52daf0"/>
        <path id="Trazado_822987" data-name="Trazado 822987" d="M225.7,181.7c0,3.244-12.892,5.871-28.784,5.871s-28.784-2.627-28.784-5.871,12.892-5.871,28.784-5.871S225.7,178.457,225.7,181.7Z" transform="translate(-10.942 -45.253)" fill="#5cf0ff"/>
        <path id="Trazado_822988" data-name="Trazado 822988" d="M279.478,169.393c0,2.505-9.966,4.543-22.259,4.543s-22.259-2.038-22.259-4.543,9.966-4.543,22.259-4.543S279.478,166.888,279.478,169.393Z" transform="translate(-15.295 -42.84)" fill="#5cf0ff"/>
        <path id="Trazado_822989" data-name="Trazado 822989" d="M44.28,161.763c0,8.993,18.333,17.117,47.79,22.9,45.64-4.8,76.855-14.5,76.855-25.7,0-9.554-22.755-18.034-57.812-23.287-40.4,5.74-66.833,15.285-66.833,26.083Z" transform="translate(-2.875 -39.354)" fill="#97ed4c"/>
        <path id="Trazado_822990" data-name="Trazado 822990" d="M72.02,128.88H16.47s3.833-5.862,8.18-4.871c4.871,1.113,6.394-3.852,10.545-4.562,4.123-.7,8.012,2.337,10.854,1.112s5.375-6,11.5-5.88C65.588,114.839,70.8,123,72.02,128.88Z" transform="translate(-1.063 -32.907)" fill="#43d7ff"/>
        <path id="Trazado_822991" data-name="Trazado 822991" d="M54.3,94.78c-3.908,1.4-4.786,2.533-5.862,7.6-1.084-5.067-1.954-6.2-5.862-7.6,3.908-1.4,4.787-2.533,5.862-7.6C49.526,92.247,50.4,93.378,54.3,94.78Z" transform="translate(-2.764 -27.31)" fill="#fff"/>
        <path id="Trazado_822992" data-name="Trazado 822992" d="M15.4,250.245c-5.132,1.832-6.282,3.328-7.7,9.975-1.421-6.647-2.571-8.143-7.7-9.975,5.132-1.832,6.282-3.328,7.7-9.975,1.421,6.647,2.571,8.143,7.7,9.975Z" transform="translate(0.01 -59.219)" fill="#fff"/>
        <path id="Trazado_822993" data-name="Trazado 822993" d="M264.807,75.665c-5.132,1.832-6.282,3.328-7.7,9.975-1.421-6.647-2.571-8.143-7.7-9.975,5.132-1.832,6.282-3.328,7.7-9.975C258.524,72.337,259.674,73.833,264.807,75.665Z" transform="translate(-16.236 -22.53)" fill="#fff"/>
        <path id="Trazado_822994" data-name="Trazado 822994" d="M427.043,126.71c-3.908,1.4-4.786,2.533-5.862,7.6-1.084-5.067-1.954-6.2-5.862-7.6,3.908-1.4,4.787-2.533,5.862-7.6C422.266,124.177,423.135,125.308,427.043,126.71Z" transform="translate(-27.043 -33.863)" fill="#fff"/>
        <path id="Trazado_822995" data-name="Trazado 822995" d="M412.453,191.55c-3.908,1.4-4.786,2.534-5.862,7.6-1.084-5.067-1.954-6.2-5.862-7.6,3.908-1.4,4.786-2.533,5.862-7.6C407.676,189.017,408.546,190.148,412.453,191.55Z" transform="translate(-26.093 -47.17)" fill="#fff"/>
        <path id="Trazado_822996" data-name="Trazado 822996" d="M32.632,100.965c-2.477.888-3.029,1.608-3.721,4.815-.682-3.216-1.243-3.926-3.721-4.815,2.477-.888,3.038-1.608,3.721-4.815C29.593,99.366,30.154,100.076,32.632,100.965Z" transform="translate(-1.631 -28.945)" fill="#fff"/>
        <path id="Trazado_822997" data-name="Trazado 822997" d="M75.872,273.885c-2.477.888-3.029,1.608-3.721,4.815-.682-3.216-1.243-3.926-3.721-4.815,2.477-.888,3.038-1.608,3.721-4.815C72.833,272.286,73.394,273,75.872,273.885Z" transform="translate(-4.448 -64.01)" fill="#b8f2ff"/>
        <g id="Grupo_1073916" data-name="Grupo 1073916" transform="translate(38.38 116.122)" clip-path="url(#clip-path)">
          <g id="Grupo_1073915" data-name="Grupo 1073915" transform="translate(3.503 -136.216)">
            <ellipse id="Elipse_5917" data-name="Elipse 5917" cx="154.823" cy="138.874" rx="154.823" ry="138.874" transform="translate(0.009 0)" fill="#00aeec"/>
            <path id="Trazado_822998" data-name="Trazado 822998" d="M308.071,42.81a28.218,28.218,0,0,0-8.629,3.79,32.923,32.923,0,0,0-3.422,2.75,16.291,16.291,0,0,1-1.636,1.35,22.411,22.411,0,0,1-2.01,1.023,27.273,27.273,0,0,0-6.151,3.706l-.589-1.3L280.081,63.3a31.141,31.141,0,0,0-16.154-5.2c-.5,0-.972.017-1.44.05a37.77,37.77,0,0,0-7.339,1.451c-.477.134-.954.26-1.43.386a37.306,37.306,0,0,1-7.554,1.124c-.421.017-.832.017-1.225.025a18.987,18.987,0,0,0-11.405,3.094,18.44,18.44,0,0,0-6.123,8c-.187.394-.411.889-.6,1.241-1.86.805-5.609,2.457-7.423,6.5a10.3,10.3,0,0,0-.879,3.606.17.17,0,0,1-.047-.017,11.836,11.836,0,0,0-3.711-.579,14.3,14.3,0,0,0-1.636.1c-.262.034-.533.084-.795.126a8.258,8.258,0,0,0-1.3-4.511,9.029,9.029,0,0,0-2.515-2.583c-.14-.193-.29-.394-.449-.587l1.131-2.641a9.059,9.059,0,0,0,.767-4.813,8.935,8.935,0,0,0-1.412-3.774,10.511,10.511,0,0,0,2.487-7.614,11,11,0,0,0-4.693-7.723c1.281-1,2.5-1.937,3.711-2.725a8.968,8.968,0,0,0,4.478-7.128,8.747,8.747,0,0,0-3.309-7.153,15.526,15.526,0,0,0-10.349-3.472c-.767,0-1.505.042-2.206.1a11,11,0,0,0-5.058-4.025l-.075-.034a29.6,29.6,0,0,0-6.946-2.272,41.853,41.853,0,0,0-5.8-.671c-1.412-.075-2.711-.117-3.992-.117a50.164,50.164,0,0,0-6.3.369,19.094,19.094,0,0,0-7.815,2.558c-.5-.042-1.019-.067-1.58-.067a19.453,19.453,0,0,0-2.272.134,40.374,40.374,0,0,0-5.59,1.057,11.217,11.217,0,0,0-2.945,1.224c-.449-.017-.9-.017-1.346-.017a49.64,49.64,0,0,0-8.012.654,11.07,11.07,0,0,0-4.207-2.516A47.5,47.5,0,0,0,121.6,22.617C75.935,46.768,45.29,91.329,45.29,142.322c0,2.1.065,4.184.168,6.264.056.042.122.084.178.117a21.474,21.474,0,0,1,2.225,1.568,6.908,6.908,0,0,1,1.019,2.591l.075.361a13.711,13.711,0,0,0,1.832,4.973c2.178,3.43,6.058,5.618,10.872,6.205a20.458,20.458,0,0,0,8.152,6.977,28.457,28.457,0,0,0,5.871,1.853c.411.092.823.184,1.225.294,3.506.914,7.049,3.061,10.8,5.342l1.122.679c1.234.746,2.468,1.392,3.562,1.954.972.5,1.9.99,2.618,1.434.187.117.486.344.795.579a17.343,17.343,0,0,0,6.366,3.287,3.322,3.322,0,0,1-.178.3c-.215.277-.561.679-.935,1.1a18.076,18.076,0,0,0-4.347,7.052c-1.786,6.23,1.543,11.195,3.749,14.474.514.771,1,1.493,1.318,2.08.28.512.58,1.191.9,1.9,1.187,2.7,2.823,6.4,6.909,9.316.944.671,1.832,1.2,2.552,1.618.037.025.084.05.122.075.019.411.028.872.037,1.275a28.147,28.147,0,0,0,.337,4.377,17.941,17.941,0,0,1-.355,8.57,71,71,0,0,1-2.992,7.681c-.9,2.063-1.8,4.193-2.618,6.415a159.271,159.271,0,0,0,27.831,15.086l.047-.084a11.543,11.543,0,0,0,1.505-5.14c.019-.377,0-.738-.009-1.09a10.1,10.1,0,0,0,2.879-4.7,21.95,21.95,0,0,0,4.8-3.3c.318-.268.748-.629.963-.788l.178-.075a16,16,0,0,0,3.244-1.87,10.026,10.026,0,0,0,4.085-7.455,20.093,20.093,0,0,0,2.15-1.468,18.352,18.352,0,0,0,5.478-7.891c.15-.352.327-.788.477-1.107.374-.21.8-.428,1.271-.671,2.748-1.417,7.348-3.782,9.657-9.325a20.279,20.279,0,0,0,1.29-5.358c.075-.528.14-1.031.215-1.375a18.358,18.358,0,0,1,1.954-4.092c.58-1.015,1.234-2.172,1.832-3.4,3.113-6.44,2.945-12.629-.486-17.434-.187-.26-.374-.512-.6-.78-3.693-4.52-9.274-6.2-13.714-7.153l-.617-.134a21.343,21.343,0,0,1-4.1-1.115l-.514-.461a50.857,50.857,0,0,0-8.311-6.465,15.872,15.872,0,0,1-1.973-1.761,25.219,25.219,0,0,0-6.853-5.166,24.014,24.014,0,0,0-6.535-1.954,8.235,8.235,0,0,0,.262-7.186,9.665,9.665,0,0,0-5.619-5.107,21.631,21.631,0,0,0-5.329-1.342,9.626,9.626,0,0,0-1.215-6.423q-.238-.44-.5-.88a10.784,10.784,0,0,0,1.954-2.189,10.455,10.455,0,0,0,1.514-3.908l.589-3.178a19.333,19.333,0,0,0,2.739-2.08c.29.017.58.034.869.034a14.088,14.088,0,0,0,8.376-2.968l.122-.084a5.668,5.668,0,0,1,1.533-.763,15.292,15.292,0,0,0,2.73-1.2c.112.075.234.151.346.235a13.178,13.178,0,0,0,7.572,2.5,11.62,11.62,0,0,0,1.327-.075c5.9-.646,10.274-5.635,9.76-11.119a12.6,12.6,0,0,0-3.085-6.734,48.822,48.822,0,0,0-3.5-3.74c-.739-.738-1.449-1.442-2.01-2.08a12.73,12.73,0,0,0-.29-2.063,10.618,10.618,0,0,0-.888-2.407,26.956,26.956,0,0,0,4.8,3.547,11.8,11.8,0,0,0,6,1.652,11.626,11.626,0,0,0,1.524-.1,10.3,10.3,0,0,0,8.816-7.648,37.3,37.3,0,0,0,1.225-7.145c.234-.235.561-.537,1-.914a18.491,18.491,0,0,1,1.72-.755,32.578,32.578,0,0,0,4.011-1.878,24.521,24.521,0,0,0,2.206-1.451,11.808,11.808,0,0,0,8.47,5.593,25.872,25.872,0,0,0,4.637.411h0a26.421,26.421,0,0,0,6.843-.906v.252a14.212,14.212,0,0,0-2.393,1.182,9.559,9.559,0,0,0-4.141,4.981,8.618,8.618,0,0,0,.112,5.887c.047.143.1.319.159.5.729,2.39,2.234,7.379,7.741,9.476a11.681,11.681,0,0,0,2.29.621c.075.075.159.134.243.21a.367.367,0,0,0,.009.1c-7.255,3.606-7.114,11.472-7.058,14.524v.629a11.491,11.491,0,0,0,1.5,6.012,10.247,10.247,0,0,0-1.6,5.627c-.14.117-.3.252-.5.411-.458.377-.944.73-1.421,1.09a29.621,29.621,0,0,0-5.357,4.8c-3.6,4.319-4.525,9.568-2.571,14.029a10.08,10.08,0,0,0,1.43,9.711,16.562,16.562,0,0,0,2.786,2.885c.122.1.243.21.365.319a17.2,17.2,0,0,1,2.15,2.935,39.872,39.872,0,0,0,2.907,4.1,19.392,19.392,0,0,0,14.631,7.178,16.254,16.254,0,0,0,4.6-.654,10.571,10.571,0,0,0,1.72.26c.3.025.6.034.9.034a11.57,11.57,0,0,0,4.441-.88c.421.243.841.461,1.253.654a11.358,11.358,0,0,0-.093,2.792,14.289,14.289,0,0,0,2.935,6.968c.15.21.3.428.439.646,1.206,1.929.533,5.644-.187,9.576-.262,1.434-.533,2.918-.739,4.444-.243,1.828-.888,6.683,2.674,10.926a14.406,14.406,0,0,0,2.225,2.1c.178,2.34.608,7.019,5.273,10.239a13.751,13.751,0,0,0,1.43.855,9.422,9.422,0,0,0,4.749,7.983,11.552,11.552,0,0,0,5.88,1.551,15.285,15.285,0,0,0,1.739-.109,27.569,27.569,0,0,0,18.426-10.172c.776-1.015,1.4-2,1.954-2.868.327-.52.785-1.233,1.131-1.694a12.175,12.175,0,0,0,8.3,5.786l5.619,1.031,3.571-4.025a25.2,25.2,0,0,0,2.9-4.176c.467-.8,1.907-3.22,3.44-6.205,5.469-10.641,6.666-17.291,4.029-22.23a11.6,11.6,0,0,0-7.834-5.769,12.5,12.5,0,0,0-2.786-.319,12.077,12.077,0,0,0-3.665.562c-.14-.31-.28-.629-.4-.922.682-.537,1.776-1.249,2.571-1.761.879-.57,1.786-1.157,2.7-1.82a29.419,29.419,0,0,0,9.769-11.874,12.378,12.378,0,0,0,1.075-6.331c2.627-1.358,5.179-2.75,7.675-4.117a14.068,14.068,0,0,0,4.375-3.438,11.171,11.171,0,0,0,.851-1.208,23.7,23.7,0,0,0,2.59,9.467,13.421,13.421,0,0,0,7.685,7.061,12.028,12.028,0,0,0,1.458,2.3,12.159,12.159,0,0,0,9.367,4.31,11.5,11.5,0,0,0,6.6-2.013,10.123,10.123,0,0,0,4.356-7.656c.318-4.143-1.29-7.522-2.468-10-.093-.2-.187-.4-.28-.6a16.856,16.856,0,0,0,1.842-.872l3.506,6.96a125.524,125.524,0,0,0,4.712-34.113c0-39.035-17.959-74.3-46.865-99.529ZM133.822,65.023c-.019.059-.047.143-.075.21-.14-.193-.3-.386-.458-.579a11.977,11.977,0,0,0-1.206-1.208,4.227,4.227,0,0,1,1.206.5,1.737,1.737,0,0,1,.645.8c-.028.092-.065.184-.1.277Zm9.984,32a12.822,12.822,0,0,0-1.907-.839,1.771,1.771,0,0,1-.047-.235l-.037-.252a14.054,14.054,0,0,0-.654-2.809c1,1.518,2.066,3.01,3.188,4.461-.178-.109-.355-.218-.542-.319Z" transform="translate(-45.29 -3.464)" fill="#00aeec" opacity="0.14"/>
            <g id="Grupo_1073914" data-name="Grupo 1073914" transform="translate(0.29 26.379)">
              <path id="Trazado_822999" data-name="Trazado 822999" d="M321.611,65.115q3.534-2.126,7.068-4.26a28.61,28.61,0,0,1,3.683-2.222,12.653,12.653,0,0,0,2.7-.906c-.785-.83-1.58-1.644-2.393-2.457-3.683.662-7.479,1.417-10.47,3.455-1.879,1.283-3.347,3.01-5.263,4.243-3.048,1.962-7.413,2.885-8.722,6.038a2.067,2.067,0,0,0-.075,1.694,3.162,3.162,0,0,0,1.44,1.224c1.215.662,10.068,5.878,10.826,3.287.308-1.048-.851-1.761-1.533-2.44-3.1-3.1-.645-5.627,2.73-7.664Z" transform="translate(-62.691 -35.302)" fill="url(#radial-gradient)"/>
              <path id="Trazado_823000" data-name="Trazado 823000" d="M99.864,41.482a3.947,3.947,0,0,0,2.646.268c2.421-.419,4.674-1.7,7.142-1.635a.757.757,0,0,1,.411.092c.365.26-.075.763-.5.948-1.954.839-4.291.822-6.17,1.786-.252.134-.524.31-.57.57a.688.688,0,0,0,.178.52,8.4,8.4,0,0,0,1.533,1.082c.5.386.8,1.132.318,1.526a1.588,1.588,0,0,1-.673.26c-1,.21-2,.428-3.01.637-.365.075-.813.26-.776.587a.669.669,0,0,0,.28.394,11.136,11.136,0,0,1,1.178.805.839.839,0,0,1,.112,1.2,1.3,1.3,0,0,1-.664.235,23.355,23.355,0,0,0-2.646.4,3.113,3.113,0,0,0-2.047,1.426,1,1,0,0,0-.112.671c.093.444.58.738,1.056.9,2.982,1,6.338-1.14,9.4-.4.954.226,1.823.73,2.786.922a2.3,2.3,0,0,0,2.552-.88,5.4,5.4,0,0,0,.178-1.459,3.83,3.83,0,0,1,1.711-2.3c1.842-1.358,4.123-2.239,5.693-3.849.748-.763,1.3-1.677,2.113-2.382a11.341,11.341,0,0,1,2.59-1.518q3.38-1.6,6.75-3.2a1.516,1.516,0,0,0,.879-.73c.065-.193.037-.411.122-.6.14-.319.552-.453.907-.579,1.234-.436,2.627-.906,3.814-1.451.206-.092.43-.218.486-.419.112-.369-.365-.646-.767-.78-6.647-2.239-13.986-1.8-21.062-1.342a55.535,55.535,0,0,0-6.03.621c-.112.017-.224.042-.337.067-.477.327-.963.654-1.44.99a.732.732,0,0,0,.019.545c.178.361.664.629.6,1.023-.084.537-.982.47-1.514.226-.318-.143-.626-.3-.944-.461-2.234,1.627-4.422,3.3-6.553,5.031a3.019,3.019,0,0,0,.337.243Z" transform="translate(-48.914 -31.677)" fill="url(#radial-gradient-2)"/>
              <path id="Trazado_823001" data-name="Trazado 823001" d="M130,287.2a1.644,1.644,0,0,1,.5-1.073c.673-.587,1.8-.394,2.618-.813,1.159-.6,1.169-2.046,1.2-3.245.065-2.725,1.786-2.247,3.842-3.036,2.347-.9,3.87-3.111,6.1-4.218a12.106,12.106,0,0,0,1.963-1.031,1.708,1.708,0,0,0,.767-1.8c-.337-.989-1.9-1.358-2.122-2.373-.159-.721.486-1.409,1.215-1.727,2.188-.964,4.347-1.426,6.264-2.943,3.094-2.457,2.814-6.968,5.974-9.082,3.188-2.13,6.759-2.759,8.348-6.574.729-1.744.692-3.656,1.1-5.476.748-3.262,2.889-6.1,4.366-9.149s2.216-6.776.215-9.576c-.084-.117-.168-.235-.262-.344-1.879-2.3-5.226-3.279-8.348-3.95-3.281-.7-6.806-1.35-9.18-3.488a46.37,46.37,0,0,0-7.423-5.9c-3.01-1.828-4.833-4.939-8.04-6.5a17.041,17.041,0,0,0-4.8-1.249.176.176,0,0,1-.065-.008,75.478,75.478,0,0,1-8.517-1.442c-1.7-.478-2.889-1.233-4.646-.461-1.9.839-3.085,2.834-4.5,4.184-2.309,2.222-.851,3.916-.467,6.532a11.269,11.269,0,0,1-2.141,8.394c-1.384,1.836-3.366,3.4-3.983,5.551-1.094,3.807,2.477,7.245,4.4,10.767,1.589,2.9,2.272,6.239,5.226,8.344,2.365,1.686,5.048,2.415,5.834,5.3.636,2.323.224,4.939.636,7.321a25.64,25.64,0,0,1-.552,12.017c-1.729,5.82-4.871,11.245-6.609,17.056q5.553,3.308,11.443,6.189a4.055,4.055,0,0,0,.552-1.736c.056-1.526-1.084-2.96-.916-4.478Z" transform="translate(-49.781 -58.895)" fill="url(#radial-gradient-3)"/>
              <path id="Trazado_823002" data-name="Trazado 823002" d="M100.364,183.441c2.16,1.342,3.319,3.069,6.32,2.843.43-.034.972-.226.944-.612-.009-.21-.206-.377-.383-.5-1.01-.7-2.29-1.023-3.272-1.761a3.883,3.883,0,0,1-1.58-2.843c-.056-1.023.318-2.08-.056-3.069a4.648,4.648,0,0,1-.467-2.3c.187-3.681-1.851-3.555-3.88-5.971-1.963-2.331-3.992-5.66-8.152-4.26a2.585,2.585,0,0,1-1.187.252,1.88,1.88,0,0,1-.823-.419c-2.636-2.021-3.076-2.927-2.879-5.794a10.845,10.845,0,0,1,.215-2.273c.561-1.87,3-3.036,5.1-2.566.991.226,1.87.746,2.833,1.057,2.664.864,5.609-.293,8.255.553,1.234.394,1.552,1.149,2.505,1.736a31.741,31.741,0,0,0,5.011,2.054,5.9,5.9,0,0,0,2.29.553,1.819,1.819,0,0,0,1.786-1.174,2.116,2.116,0,0,0-.374-1.409,25.3,25.3,0,0,0-1.832-2.843c-.524-.7-1.954-1.8-2.029-2.641-.159-1.719,3.02-3.824,4.385-4.6a3.506,3.506,0,0,0,1.271-.973,2.67,2.67,0,0,0,.337-1.023c.346-1.828.682-3.665,1.028-5.493a3.328,3.328,0,0,1,.449-1.317,4.833,4.833,0,0,1,1.973-1.3c3.431-1.635,4.646-4.62,7.357-6.851.645-.528,1.655-.956,2.337-.47a1.388,1.388,0,0,1,.374,1.551,14.954,14.954,0,0,0-.57,1.6c1.169.285,2.262-.545,3.216-1.216a15.808,15.808,0,0,1,4.048-2.029c.841-.277,1.907-.78,1.7-1.56a1.2,1.2,0,0,0-.533-.646c-1.552-1.048-3.749-.31-5.693-.344a1.514,1.514,0,0,1-.645-.117c-.776-.4-.215-1.526-.6-2.256-.337-.621-1.243-.746-1.973-.973a4.069,4.069,0,0,1-2.739-2.7c1.271,0,2.533,0,3.8.008a4.791,4.791,0,0,1,1.514.159c.393.126.739.344,1.122.486a4.863,4.863,0,0,0,3.6-.495c1.281-.562,2.655-1.031,3.983-1.56a3,3,0,0,1-.093,2.356,6.98,6.98,0,0,0-.645,2.331.9.9,0,0,0,.159.579,1.337,1.337,0,0,0,.6.352,39.2,39.2,0,0,1,8.348,4.545,3.426,3.426,0,0,0,2.169.822,1.908,1.908,0,0,0,1.58-2.08,4.913,4.913,0,0,0-1.309-2.482c-2.1-2.566-5.076-4.855-6.843-7.581-.673-1.031-.28-2.348-.561-3.514a6.824,6.824,0,0,0-1.8-2.8,4.25,4.25,0,0,0-1.075-.948,8.46,8.46,0,0,0-1.374-.478c-2.926-.931-4.525-3.824-4.964-6.583a5.955,5.955,0,0,0-.608-2.273c-.767-1.249-3.216-1.526-4.422-.671-.561.394-.972,1.023-1.673,1.166-1.215.243-1.86-1-2.5-1.669,0-.612-2.066-1.836-2.487-2.373a19.236,19.236,0,0,0-1.748-2.122,3.071,3.071,0,0,0-.748-.6,4.853,4.853,0,0,0-1.262-.327c-.8-.159-1.561-.47-2.356-.688a4.482,4.482,0,0,0-2.44-.1,1.79,1.79,0,0,0-1.4,1.644c.065,1.015,1.365,1.761,1.271,2.776-.075.9-1.159,1.392-1.9,2a.965.965,0,0,0-.439.738.9.9,0,0,0,.262.537c.729.906,1.767,1.769,2.6,2.633a1.832,1.832,0,0,1,.5.713,1.431,1.431,0,0,1-.4,1.216c-.767.981-1.9,1.753-2.393,2.868-1.15,2.6,2.412,3.8,1.533,6.323-.617,1.778-3.5,2.231-5.2,1.157a5.774,5.774,0,0,1-2.375-4.948,3.788,3.788,0,0,0-.486-2.382,4.284,4.284,0,0,0-2.571-1.157c-2.188-.461-4.254-.99-6.469-1.384a10.057,10.057,0,0,1-7.5-5.694A2.724,2.724,0,0,1,87.22,99.9a3.5,3.5,0,0,1,.823-1.14c1.477-1.56,2.945-3.119,4.422-4.688,1.253-1.333,2.935-2.532,4.964-1.9a9.749,9.749,0,0,1,4.656,3.3c.477.612,1.206,1.367,1.945,1.031,1.15-.512-.112-2.449.907-3.136a1.783,1.783,0,0,1,1.8.218,2.753,2.753,0,0,0,1.767.6c.075-.6-.5-1.082-1.028-1.451q-1.795-1.27-3.581-2.541a6.706,6.706,0,0,1-2.094-2,.527.527,0,0,1-.084-.419c.084-.243.43-.3.711-.344a4.849,4.849,0,0,0,3.758-3.547,9.478,9.478,0,0,0-.365-5.115,1.364,1.364,0,0,1,.065-1.317c.458-.528,1.4-.26,2.066.05,1.234.579,2.468,1.157,3.711,1.736,1,.47,2.674.906,3.235,1.836.477.788.187,1.526,1.038,2.2s2.16.738,2.9,1.576a2.122,2.122,0,0,1-.271,2.876,4.552,4.552,0,0,1-3.188,1.073c-.944,0-1.87-.193-2.814-.176a3.186,3.186,0,0,0-2.487.981,1.069,1.069,0,0,0-.252.8c.14.73,1.215.9,2.047.88.86-.008,1.729-.025,2.59-.034a8.644,8.644,0,0,1,2.234.168,6.815,6.815,0,0,1,3.637,2.969,4.166,4.166,0,0,0,.944,1.073,4.521,4.521,0,0,0,1.028.486c1.533.57,3.066,1.149,4.6,1.719a1.725,1.725,0,0,0,1.327.117c.617-.3.477-1.166.019-1.635s-1.131-.755-1.552-1.258a.718.718,0,0,1-.2-.444c.028-.512.907-.562,1.365-.252s.823.8,1.393.864c.8.084,1.356-.788,1.318-1.518-.065-1.333-1.206-2.407-2.281-3.337-.589-.512-1.178-1.031-1.767-1.543a.947.947,0,0,1-.318-.394c-.15-.444.458-.813.972-.839,1.683-.067,2.73,1.568,4.113,2.432a.627.627,0,0,0,.944-.092c.682-.679,1.365-1.35,2.047-2.029.327-.319.673-.713.6-1.14a1.225,1.225,0,0,0-.458-.662c-1.365-1.182-3.281-1.392-4.936-2.08a3.939,3.939,0,0,1-2.431-3.4,6.676,6.676,0,0,0-1.122-3.346,5.685,5.685,0,0,0-3.328-1.585,29.234,29.234,0,0,1-3.758-.713c-2.272-.755-3.88-2.524-5.516-4.126s-3.6-3.187-6-3.363a1.3,1.3,0,0,0-.8.134c-.664.444.009,1.493-.449,2.113a1.293,1.293,0,0,1-1.514.2,11.566,11.566,0,0,1-1.337-.9,5.049,5.049,0,0,0-4.525-.1A12,12,0,0,0,95.1,71.493a2.91,2.91,0,0,0-.813,1.132,2.4,2.4,0,0,0,.028,1.149,4.4,4.4,0,0,0,1.561,2.893,10.063,10.063,0,0,0,2.178.939,2.55,2.55,0,0,1,1.786,2.013,4.323,4.323,0,0,1-1.384,4.662c-.795.562-2.29.428-2.5-.461-.252-1.09,1.589-2.013,1.141-3.044a1.5,1.5,0,0,0-1.215-.721c-.5-.059-1.019.008-1.524,0a3.893,3.893,0,0,1-3.5-2.407c-.243-.688-.28-1.509-.916-1.962a3.815,3.815,0,0,1-1.412-2.147,2.291,2.291,0,0,1,1.01-1.9c.608-.486,1.337-.83,1.982-1.266a6.637,6.637,0,0,0,1.9-1.962.576.576,0,0,0,.122-.453c-.065-.21-.327-.3-.561-.361a8.729,8.729,0,0,0-3.842-.411c-1.271.252-2.449,1.317-2.234,2.474.1.562.514,1.057.542,1.618a2.308,2.308,0,0,1-1.075,1.778,9.546,9.546,0,0,0-1.72,1.409c-2.29,2.935,4.861,6.876-.028,9.375A9.731,9.731,0,0,0,83.7,80.1a2.608,2.608,0,0,0-.785-1.057,1.273,1.273,0,0,0-1.328-.126,1.2,1.2,0,0,0-.458,1.249c.215,1.518.2,2.549-1.617,3.153a13.518,13.518,0,0,1-3.468.721c-2.767.092-4.113-3.094-6.946-2.759-.795.092-1.617.872-1.15,1.451.2.243.552.344.739.587.318.4-.009,1.006-.5,1.216a3.188,3.188,0,0,1-1.617.1L63.6,84.307a127.392,127.392,0,0,0-18,58.154,9.011,9.011,0,0,0,3.122,5.082c1.954,1.509,4.113,2.591,5.946,4.252a13.11,13.11,0,0,1,3.5,6.868,8.018,8.018,0,0,0,.841,2.742c1.131,1.778,3.646,2.18,5.787,2.13a3.361,3.361,0,0,0-1.066-2.289,15.289,15.289,0,0,1-2.5-3.807,5.007,5.007,0,0,1,.065-4.31.444.444,0,0,1,.168-.193c.187-.092.4.084.524.235a33.912,33.912,0,0,1,2.449,4.344c1.056,1.753,1.935,3.589,2.814,5.426,1.524,3.195,3.347,6.683,6.955,8.352a32.182,32.182,0,0,0,5.413,1.543c5.357,1.392,9.966,4.36,14.537,7.128,2.029,1.224,4.291,2.214,6.282,3.455Z" transform="translate(-45.6 -37.211)" fill="url(#radial-gradient-4)"/>
              <path id="Trazado_823003" data-name="Trazado 823003" d="M340.914,74.19c-.851-.545-1.552-1.761-2.552-1.476-.58.168-.813.771-1.038,1.275s-.7,1.065-1.3.956a1.213,1.213,0,0,1-.8-.7c-1.318-2.415-.439-5.082-.178-7.656-.57-.688-1.15-1.367-1.739-2.054l-7.731,6.91a1.178,1.178,0,0,0-.346,1.92,13.879,13.879,0,0,1,2.057,5.325q-4.614-.314-9.227-.394c-.271,0-.6.008-.757.21s-.065.478-.019.713c.206,1.082-1.056,3.1-2.328,3.22-1.2.109-2.87-1.409-3.992-1.753a9.187,9.187,0,0,0-5.647.537,22.127,22.127,0,0,1-5.5,1.593c-1.926.151-4.113-.562-4.843-2.172-1.084,1.795-1.655,3.715-2.571,5.56-1.075,2.163-1.571.88-3.459,2.272-.776.57-.944,1.56-1.458,2.34-1.084,1.635-4.356,2.138-5.805.579-1.066-1.14-1.552-4.419-1.888-5.845a15.128,15.128,0,0,0,6.245-.646,4.825,4.825,0,0,0,1.589-.788A3.346,3.346,0,0,0,288,79.817c-2.094-3.572-9.825-6.7-14.182-6.373a40.736,40.736,0,0,0-6.983,1.543,47.913,47.913,0,0,1-9.657,1.434c-2.767.126-5.03-.26-7.357,1.367-3.319,2.314-3.263,7.262-6.74,9.375-1.552.948-3.777,1.317-4.478,2.876a8.239,8.239,0,0,0-.234,2.759c-.14,1.66-1.243,3.128-1.571,4.763-.524,2.641.645,4.931,3.87,5.266a12.358,12.358,0,0,0,3.216-.386c2.16-.352,2.9.268,3.749,1.878a7.944,7.944,0,0,1,.795,5.342c-.131.629-.3,1.392.243,1.811.14-1.14,1.552-1.753,2.786-2.038s2.664-.562,3.291-1.56c.608-.973.178-2.239.645-3.27.57-1.283,2.449-2.122,2.253-3.5-.159-1.124-1.655-1.719-2.066-2.792-.43-1.124.467-2.273,1.309-3.187.888-.964,1.767-1.929,2.655-2.893,1.056-1.149,2.262-2.382,3.908-2.591a7.733,7.733,0,0,1,2.4.21c.458.092.991.235,1.141.637a1.013,1.013,0,0,1-.037.662c-.664,2.172-2.739,3.723-4.263,5.518a1.818,1.818,0,0,0-.561,1.14c.009.864,1.131,1.333,2.066,1.526a25.87,25.87,0,0,0,8.04.428c.365-.034.86,0,.916.327.028.176-.112.335-.252.461a6.947,6.947,0,0,1-4.188,1.769,11.791,11.791,0,0,0-1.973.151,1.691,1.691,0,0,0-1.374,1.149c-.1.562.29,1.1.43,1.652s-.243,1.333-.869,1.208a2.769,2.769,0,0,1-.72-.419,1.572,1.572,0,0,0-1.673.235,2.676,2.676,0,0,0-.813,1.434,13.88,13.88,0,0,1-.682,2.683,2.378,2.378,0,0,1-2.375,1.409c-.365-.059-.7-.243-1.056-.327-1.543-.394-3.01.813-4.609.99a39.3,39.3,0,0,1-4.553-.017c-.935,0-1.9-.218-1.982-1.191-.084-1.031.982-1.711.626-2.826a2.545,2.545,0,0,0-2.2-1.7,2.45,2.45,0,0,0-2.571,3.187c.224.629,1,1.241.944,1.92-.056.721-.972,1.4-1.673,1.627-.626.2-1.309.193-1.945.352A3.458,3.458,0,0,0,237.1,116.2a2.421,2.421,0,0,1-.458,1.191c-.533.537-1.505.344-2.253.6-1.29.419-1.608,1.945-2.655,2.734-1.514,1.14-3.889.369-5.721,1.031a1.519,1.519,0,0,0-.832.587,1.162,1.162,0,0,0,.337,1.417c.757.7,1.945.83,2.72,1.543a4.35,4.35,0,0,1,1.038,1.677c.907,2.256.991,4.763-2.365,4.344a22.869,22.869,0,0,0-4.73-.092,5.161,5.161,0,0,0-1.393.268c-3.076,1.191-2.636,5.677-2.636,8.033a2.8,2.8,0,0,0,.944,2.574c.71.436,1.683.31,2.449.646,1.505.654,1.2,2.1,1.215,3.455a36.579,36.579,0,0,0-3.739,2.776c-1.561,1.4-.682,2.658-.944,4.243-.28,1.727-2.234,3.43-3.6,4.537-1.888,1.535-4.039,2.851-5.562,4.679s-2.318,4.394-1.122,6.415c.673,1.124,1.945,2.247,1.458,3.446-.29.7-1.112,1.107-1.5,1.769a2.351,2.351,0,0,0,.346,2.5,14.675,14.675,0,0,0,2,1.929c2.477,2.264,3.768,5.358,5.88,7.9s5.777,4.62,9.078,3.48c1.169-.4,2.384-1.191,3.543-.78.57.21,1.028.688,1.636.738a2.505,2.505,0,0,0,1.711-.847c1.271-1.082,3.113-1.987,4.712-1.342,1.234.5,1.851,1.769,2.935,2.491,2.533,1.686,7.535,1.3,6.712,5.509-.29,1.5-1.2,2.918-1.056,4.436.15,1.551,1.346,2.834,2.206,4.193,3.562,5.669,1.084,12.671.224,19.128-.224,1.677-.28,3.539.86,4.889.841,1,2.206,1.56,3.01,2.574,1.888,2.382.15,6.39,2.73,8.176a18.781,18.781,0,0,0,2.01.964c2.206,1.149,3.02,3.673,3.057,5.962,0,.57.037,1.249.57,1.568a1.983,1.983,0,0,0,1.234.134,17.817,17.817,0,0,0,11.948-6.6c1.86-2.432,3.038-5.442,5.787-7.077a11.962,11.962,0,0,0,2.1-1.3c2.066-1.979.187-5.342,1.346-7.841.954-2.054,3.627-2.91,5.478-4.394a7.288,7.288,0,0,0,2.786-6.2c-.318-3.715-3.646-7.036-3.048-10.725.654-4.008,5.413-6.147,8.928-8.679a20.9,20.9,0,0,0,6.927-8.428c.645-1.467.851-3.556-.739-4.226-1.561-.654-3.758.226-5.422.168a55.424,55.424,0,0,1-7.657-1.308,5.241,5.241,0,0,1-2.674-1.023,4.239,4.239,0,0,1-1.01-2.558c-.8-5.275-2.2-10.9-6.619-14.448-.58-.47-1.262-.973-1.328-1.669a2.41,2.41,0,0,1,.785-1.644l3.038-3.606c-.308.369,4.254,7.673,4.665,8.578.851,1.9,1.056,4.176,2.365,5.853,2.01,2.583,4.843,4.922,7.011,7.472a4.661,4.661,0,0,0,1.328,1.2,4.044,4.044,0,0,0,2.169.352,14.268,14.268,0,0,0,5.02-1.593c3.973-1.878,7.806-3.975,11.639-6.071a5.544,5.544,0,0,0,1.692-1.224,3.84,3.84,0,0,0,.71-1.677,9.554,9.554,0,0,0,.056-3.715,1.024,1.024,0,0,0-.374-.73,1.353,1.353,0,0,0-.841-.109c-2.216.243-4.31,1.132-6.544,1.191-3.786.1-5.684-3.673-7.591-6.046-2.365-2.943-1.243-6.667-2.945-9.576,3.59,6.113,11.443,9.987,19.127,9.425a38.191,38.191,0,0,1,6.011-.4c2,.168,4.113,1.1,4.8,2.8.636,1.576.243,3.866,1.991,4.444,3.711,1.216,4.553.52,3.674,4.21a14.525,14.525,0,0,0,1.458,10,4.621,4.621,0,0,0,2.954,2.776,18.845,18.845,0,0,1,2.3.26,3.182,3.182,0,0,1,1.8,2.163,7.7,7.7,0,0,0,1.084,2.608,2.178,2.178,0,0,0,2.711.621,2.034,2.034,0,0,0,.739-1.6c.215-2.784-1.486-5.35-2.58-7.958s-1.43-5.962.907-7.807c1.664-1.317,4.188-1.426,5.88-2.7.944-.713,1.543-1.719,2.449-2.474,4.272-3.555,6.731-.453,8.386,2.843a125.411,125.411,0,0,0,1.6-19.933A128.122,128.122,0,0,0,340.867,74.2Zm-58.121,70.968c-.767,2.985-3.908,5.182-7.264,5.761a17.611,17.611,0,0,1-9.919-1.585,2.551,2.551,0,0,0-2.029-.294c-.654.3-.785,1.065-1.075,1.677-.879,1.87-3.665,2.5-5.824,1.887-2.309-.662-3.992-2.373-6.179-3.254-1.907-.771-4.88-1.828-4.609-4.184.094-.8.636-1.627.234-2.348a2.451,2.451,0,0,0-1.982-.864,19.848,19.848,0,0,0-8.031.939c-2.842.956-5.918,2.566-8.694,1.459a2.8,2.8,0,0,0-1.234-.344,2.1,2.1,0,0,0-1.112.562l-.178.134a3.822,3.822,0,0,1-.047-1.031.8.8,0,0,1,.327-.637,1.325,1.325,0,0,1,.58-.134l3.02-.2a2.087,2.087,0,0,0,.86-.176,1.924,1.924,0,0,0,.58-.52c1.524-1.786,2.113-3.539,3.225-5.535a8.423,8.423,0,0,1,1.945-1.719l3.281-2.34a2.289,2.289,0,0,1,1.056-.5,3,3,0,0,1,1.384.369,5.778,5.778,0,0,0,2.646.369c.776-.075,1.571-.528,2.328-.285a9.791,9.791,0,0,1,2.262,1.627c.851.629,1.692,1.258,2.543,1.887a6.46,6.46,0,0,1,1.645,1.535,1.941,1.941,0,0,1,.187,2.046c-.5.855-1.7,1.1-2.73,1.384-.327.092-.7.252-.757.562-.056.327.3.579.636.7a5.616,5.616,0,0,0,4.347-.7c1.356-.7,2.758-1.786,2.664-3.178a4.251,4.251,0,0,0-1.758-2.566l-3.534-3.119a5.575,5.575,0,0,1-2.029-3.5,19.5,19.5,0,0,1,4.422,1.358,11.352,11.352,0,0,1,3.45,2.247,5.646,5.646,0,0,1,1.739,3.446,5.9,5.9,0,0,0,.206,1.82,4.88,4.88,0,0,0,1.926,1.828,2.932,2.932,0,0,1,1.542,2.046c.009.52-.252,1.082.037,1.535.626.973,1.888.067,2.384-.486,1.112-1.258.318-3.421.533-4.922.243-1.736,1.926-1.526,2.552,0a3.916,3.916,0,0,1,.243.855,1.328,1.328,0,0,0-.178,1.1,2.125,2.125,0,0,0,.739.889,13.654,13.654,0,0,0,8.33,2.868c1.571.008,3.216-.235,4.656.327a1.177,1.177,0,0,1,.626.444,1.046,1.046,0,0,1,.019.771Zm2.618-9.291a12.917,12.917,0,0,1-4.113-.419,17.67,17.67,0,0,0-7.928.243,7.209,7.209,0,0,1-1.253-.713,10.445,10.445,0,0,1-2.085-2.214,1.364,1.364,0,0,1-.243-1.333c.365-.679,1.458-.587,2.244-.864,1.262-.444,1.655-1.862,1.767-3.078a1.886,1.886,0,0,1,.486-1.342,1.731,1.731,0,0,1,2.206.386,18.409,18.409,0,0,1,1.234,1.971,2.767,2.767,0,0,0,3.244,1.015c.954-.478,1.253-1.6,2.057-2.272.477-.394,1.4-.528,1.655,0a.5.5,0,0,1,.047.285c-.019.025-.037.042-.056.067a1.526,1.526,0,0,0-.168.688.812.812,0,0,0-.019.7.72.72,0,0,0,.271.243,5.162,5.162,0,0,0,1.206,1.409c.954.788,2.1,1.635,2.131,2.8.028,1.249-1.337,2.214-2.711,2.415Zm23.129-.151a.891.891,0,0,1-.552.176c-.617.059-1.225.109-1.842.168.047,2.348,3.272,3.48,1.926,6.306-.935,1.962-5.31.151-6.189-1.459a5.207,5.207,0,0,1-.467-1.627,46,46,0,0,0-2.945-9.9,2.777,2.777,0,0,1,.813-.964,8.177,8.177,0,0,1,2.262-1.073c.813-.285,1.617-.57,2.431-.855.748-.26,2.225-.855,2.964-.3a1.49,1.49,0,0,1,.308,1.719,3.073,3.073,0,0,1-1.393,1.149,6.179,6.179,0,0,0-.795.394c-1.075.788-.159,2.382.963,3.111s2.6,1.451,2.655,2.7a.638.638,0,0,1-.14.461ZM336.632,84.06a6.561,6.561,0,0,1-2.6,2,11.8,11.8,0,0,1-6.31,1.56c-.365-.042-.8-.21-.795-.537.009-.243.28-.4.524-.52,2.281-1.09,4.758-2.3,5.8-4.419a17.292,17.292,0,0,0,.9-3.446c.112-.453.5-1.015.972-.839a.915.915,0,0,1,.374.335c1.309,1.753,2.505,3.782,1.15,5.87Z" transform="translate(-56.127 -36.796)" fill="url(#radial-gradient-5)"/>
              <path id="Trazado_823004" data-name="Trazado 823004" d="M297.609,255.807c-1.421,1.057-1.421,2.994-1.178,4.629a32.81,32.81,0,0,0,.869,3.992c.383,1.325,1.094,2.843,2.59,3.111a18.225,18.225,0,0,0,1.935-2.834c.43-.73,1.776-3,3.235-5.836,3.225-6.289,6.983-15.329,2.346-16.369-2.7-.654-3.908,4.721-6.647,5.174-4.356.7-1.468,2.457-.729,5.182a2.073,2.073,0,0,1,.1.922c-.187,1.031-1.627,1.358-2.524,2.029Z" transform="translate(-61.93 -65.519)" fill="url(#radial-gradient-6)"/>
              <path id="Trazado_823005" data-name="Trazado 823005" d="M118.677,186.014a5.45,5.45,0,0,1-.785-.453c-2.861-1.862-7.367-4.813-11.078-3.606a2.138,2.138,0,0,0-1.514,1.417.341.341,0,0,0,.047.3.479.479,0,0,0,.262.109c1.9.361,3.945.05,5.759.688,1.645.579,2.851,1.862,4.385,2.658a2.977,2.977,0,0,0,2.075.394c.7-.184,1.225-.956.851-1.518Z" transform="translate(-49.488 -55.708)" fill="url(#radial-gradient-7)"/>
              <path id="Trazado_823006" data-name="Trazado 823006" d="M78.182,73.781a4.679,4.679,0,0,0,5.1-.243c.954-.813,1.776-2.709,1.365-3.866-.178-.495-.58-.688-.654-1.266-.093-.7.3-1.417-.271-2.038a2.158,2.158,0,0,0-1.084-.545c-1.3-.335-3.225-.327-4.011.872-.542.822-.112,1.862-.14,2.818a1,1,0,0,1-.327.813c-.439.344-1.112.109-1.683.168-1.412.126,1.15,2.893,1.72,3.287Z" transform="translate(-47.584 -36.975)" fill="url(#radial-gradient-8)"/>
              <path id="Trazado_823007" data-name="Trazado 823007" d="M91.656,50.58a7.164,7.164,0,0,0,3.3-1.2c.869-.52,4.431-1.9,4.413-2.784a1.5,1.5,0,0,0-.552-.9c-.346-.344-.767-.662-.982-.9a3.882,3.882,0,0,1-.29-.352Q94.039,47.381,90.73,50.5a4.311,4.311,0,0,0,.926.075Z" transform="translate(-48.54 -33.555)" fill="url(#radial-gradient-9)"/>
              <path id="Trazado_823008" data-name="Trazado 823008" d="M87.339,58.411a4.093,4.093,0,0,1,3.824,2.583c.15.528,0,1.09.355,1.56a4.023,4.023,0,0,0,2.73.939,31.35,31.35,0,0,0,3.646-.26c3.272-.218,6.507.7,9.788.872,1.084.059,2.636-.193,2.505-1.451-.1-.981-1.608-2.2-2.505-2.683-1.982-1.073-5.1-.57-7.255-.411-2.234.218-4.7.327-6.507-.872-1.047-.688-1.832-1.795-3.094-2.054-.458-.092-1.739.059-1.823-.486a2.642,2.642,0,0,1,.056-.6,2.213,2.213,0,0,0-.767-1.493h0c-1.309,1.283-2.58,2.591-3.833,3.924a1.6,1.6,0,0,0,.533.285,9.3,9.3,0,0,0,2.375.159Z" transform="translate(-48.131 -35.105)" fill="url(#radial-gradient-10)"/>
              <path id="Trazado_823009" data-name="Trazado 823009" d="M223.5,122.264a2.645,2.645,0,0,0-.944,1.317,1.19,1.19,0,0,0,.626,1.367c.739.327,1.58-.2,2.188-.7,1.271-1.048,2.711-2.222,4.441-2.13,1.028.059,2.16.553,3,.025a1.844,1.844,0,0,0,.748-1.291,3.572,3.572,0,0,0-1.356-3.614c-1.692-1.677-3.337-2.784-3.852-5.09-.449-2-.271-4.1-1.019-6.054a1.824,1.824,0,0,0-1.028-1.182,2.328,2.328,0,0,0-.963-.042,14.5,14.5,0,0,0-2.337.461,1.96,1.96,0,0,0-.9.444,1.518,1.518,0,0,0-.327.813,28.74,28.74,0,0,0,.075,4.008,4.329,4.329,0,0,1-1.533,3.623c-1.412,1.015-3.534.822-5.011,1.744a1.2,1.2,0,0,0-.552.587,1.337,1.337,0,0,0,.093.847c.477,1.333,1.019,4.184,2.655,4.8,1.393.528,1.888-.914,2.505-1.736,1.215-1.6,2.477-3.17,3.711-4.755a2.939,2.939,0,0,1,1.636-1.266,1.934,1.934,0,0,1,1.169.168,1.775,1.775,0,0,1,.888,2.054,1.587,1.587,0,0,1-.71.964,11.424,11.424,0,0,1-2.1.671c-.692.252-1.328.948-1,1.551.187.344.626.537.767.9.234.562-.374,1.1-.86,1.509Z" transform="translate(-56.616 -43.303)" fill="url(#radial-gradient-11)"/>
              <path id="Trazado_823010" data-name="Trazado 823010" d="M118.975,191.9a10.75,10.75,0,0,0,6.067.235,14.3,14.3,0,0,0,2.113-.805c1.178-.562,2.318-1.325,2.01-2.046a1.065,1.065,0,0,0-.636-.47,10.078,10.078,0,0,0-4.394-.746c-2.907.277-.552,1.333-2.057,2.449-.9.662-2.515.168-3.235.989a.263.263,0,0,0-.084.218c.028.092.131.134.234.168Z" transform="translate(-50.365 -56.735)" fill="url(#radial-gradient-12)"/>
              <path id="Trazado_823011" data-name="Trazado 823011" d="M198.281,39.518c-1.094.176-2.365.31-3.179-.377a2.085,2.085,0,0,1-.524-2.222c.206-.671,1.122-1.476,1.178-2.1.065-.679-.8-.914-1.505-1.249a19.74,19.74,0,0,0-4.6-1.509,31.822,31.822,0,0,0-4.385-.495,47.1,47.1,0,0,0-8.423.184,9.149,9.149,0,0,0-5.432,2.323,3.816,3.816,0,0,1-3.16.495,8.962,8.962,0,0,0-3.141-.176,30.057,30.057,0,0,0-4.151.788.889.889,0,0,0-.514.26c-.2.26,0,.612.206.872.393.512.785,1.023,1.169,1.535.2.252.374.629.112.822a.664.664,0,0,1-.439.092c-1.047-.075-1.842-.855-2.758-1.317a8.612,8.612,0,0,0-3.655-.7c-8.311-.235-16.061,2.323-23.11,6.063-.832.444-1.795,1.3-1.262,2.029s2.169.52,2.328,1.375c.094.486-.43.88-.926,1.107-2.029.939-4.394,1.031-6.638,1.4a4.164,4.164,0,0,0-1.739.579,1.254,1.254,0,0,0-.561,1.484,2,2,0,0,0,.542.629c1.5,1.325,2.982,2.658,4.469,3.983a4.833,4.833,0,0,0,1.758,1.149,6.1,6.1,0,0,0,2.4,0c4-.478,8.292.117,11.546,2.264s5.217,6.012,4.2,9.518a21.74,21.74,0,0,0-.776,2.474,2.475,2.475,0,0,0,.748,2.373c.813.646,6.123.512,4.244,2.289-.72.679-1.832.6-2.309,1.56-.421.864-.168,2.574-.065,3.5a19.8,19.8,0,0,0,3.113,7.79,63.219,63.219,0,0,0,5.9,8.168,23.287,23.287,0,0,0,6.03,5.384,1.791,1.791,0,0,0,1.094.327c.664-.092.963-.78,1.122-1.358a29.307,29.307,0,0,0,.991-6.021,6.415,6.415,0,0,1,.327-2.1c.542-1.333,2.44-3.078,3.609-4.075,1.916-1.652,4.843-2.281,7.049-3.555,2.141-1.233,3.824-3,5.806-4.436A21.362,21.362,0,0,1,195.8,76.75c2.3-.176,4.871.419,7.189.637.841-1.971,1.683-3.933,2.524-5.9a1.7,1.7,0,0,0,.206-.872,2.153,2.153,0,0,0-.626-1.023,7.212,7.212,0,0,1-1.561-5.015c.271-2.13,3.459-3.43,3.253-5.56-.206-2.18-3.637-2.826-4.777-4.763-.692-1.174-.5-2.759-1.571-3.665-.365-.31-.869-.528-1.066-.948-.337-.73.467-1.451,1.178-1.92,3.235-2.1,5.862-4.579,9.106-6.675.28-.184.6-.411.608-.721a.908.908,0,0,0-.4-.671c-1.814-1.543-4.693-1.249-7.152-.855-1.477.235-2.954.478-4.431.713Z" transform="translate(-50.647 -31.457)" fill="url(#radial-gradient-13)"/>
              <path id="Trazado_823012" data-name="Trazado 823012" d="M70.066,79.041a6.831,6.831,0,0,1,1.421.7,5.173,5.173,0,0,0,3.945.654c1.309-.411,2.2-1.912,1.468-2.969a3.6,3.6,0,0,0-1.346-1.006,5.436,5.436,0,0,1-2.692-2.3c-.037-.092-.056-.176-.084-.268-1.243,1.677-2.459,3.379-3.627,5.107a2.806,2.806,0,0,1,.916.075Z" transform="translate(-47.134 -38.301)" fill="url(#radial-gradient-14)"/>
              <path id="Trazado_823013" data-name="Trazado 823013" d="M201.642,97.669a15.886,15.886,0,0,0,8.4-.771,4.637,4.637,0,0,0,2.8-2.189c.43-1.048-.673-.738-1.215-1.031-.869-.47-.57-1.375-1.169-2a2.425,2.425,0,0,0-1.945-.386,29.18,29.18,0,0,1-7.4-.252,3.762,3.762,0,0,0-2.178.168,1.244,1.244,0,0,0-.7,1.677c.439.662,1.673.763,1.879,1.509.168.6-.477,1.149-.5,1.769-.019.855,1.094,1.333,2.029,1.5Z" transform="translate(-55.533 -41.064)" fill="url(#radial-gradient-15)"/>
              <path id="Trazado_823014" data-name="Trazado 823014" d="M81.616,63.97a.794.794,0,0,0,.458.075.863.863,0,0,0,.337-.184,6.366,6.366,0,0,0,1.543-1.593,2.223,2.223,0,0,0,.215-2.046,2.781,2.781,0,0,0-.58-.771c-1.075,1.157-2.141,2.331-3.179,3.522a3.635,3.635,0,0,0,1.215,1.006Z" transform="translate(-47.867 -35.976)" fill="url(#radial-gradient-16)"/>
            </g>
            <path id="Trazado_823015" data-name="Trazado 823015" d="M309.592,48.158a119.211,119.211,0,0,1,20.324,66.23c0,72.762-67.17,131.746-150.027,131.746-55.194,0-103.424-26.18-129.479-65.165,17.033,60.091,77.753,104.544,150.046,104.544,85.5,0,154.823-62.171,154.823-138.874,0-38.5-17.473-73.332-45.677-98.489Z" transform="translate(-45.624 -7.773)" fill="#00aeec" opacity="0.45"/>
          </g>
        </g>
        <ellipse id="Elipse_5918" data-name="Elipse 5918" cx="76.481" cy="11.19" rx="76.481" ry="11.19" transform="translate(163.452 96.855)" fill="#97ed4c"/>
        <g id="Grupo_1073917" data-name="Grupo 1073917" transform="translate(99.769 66.539)">
          <path id="Trazado_823017" data-name="Trazado 823017" d="M145.413,125.623c0,14.724-8.666,26.653-19.352,26.653s-19.352-11.938-19.352-26.653,8.666-26.653,19.352-26.653S145.413,110.908,145.413,125.623Z" transform="translate(-106.71 -98.97)" fill="#007500"/>
          <line id="Lnea_1065" data-name="Lnea 1065" y2="39.171" transform="translate(18.922 32.954)" fill="none" stroke="#000" stroke-miterlimit="10" stroke-width="2"/>
          <path id="Trazado_823018" data-name="Trazado 823018" d="M138.3,105.29a35.375,35.375,0,0,1,1.4,9.975c0,14.724-8.666,26.653-19.352,26.653-4.6,0-8.825-2.216-12.144-5.908,2.87,9.779,9.816,16.687,17.949,16.687,10.685,0,19.352-11.938,19.352-26.653,0-8.386-2.814-15.865-7.208-20.745Z" transform="translate(-106.808 -99.382)" fill="#00aeec" opacity="0.45"/>
          <line id="Lnea_1066" data-name="Lnea 1066" x2="9.115" y2="9.526" transform="translate(9.704 33.786)" fill="none" stroke="#000" stroke-miterlimit="10" stroke-width="2"/>
        </g>
        <g id="Grupo_1073918" data-name="Grupo 1073918" transform="translate(199.603 56.07)">
          <path id="Trazado_823019" data-name="Trazado 823019" d="M243.107,84.528c-12.7-1.112-26.129,41.031-29.607,56.718,18.725,3.758,38.47,3.431,58.981,0a11.3,11.3,0,0,0-.3-2.879C267.591,119.128,255.8,85.641,243.107,84.528Z" transform="translate(-213.5 -84.498)" fill="#49870e"/>
          <path id="Trazado_823020" data-name="Trazado 823020" d="M217.01,128.925c19.127-2.973,33.73-18.866,33.73-38.049,0-.767-.028-1.533-.075-2.29-2.375-2.365-4.833-3.842-7.329-4.067-10.115-.879-20.679,25.634-26.326,44.4Z" transform="translate(-213.729 -84.497)" fill="#579e1b"/>
        </g>
        <g id="Grupo_1073919" data-name="Grupo 1073919" transform="translate(228.518 41.21)">
          <path id="Trazado_823021" data-name="Trazado 823021" d="M285.265,65.5c-17.529-1.533-36.048,56.606-40.835,78.239a267.652,267.652,0,0,0,81.361,0,15.622,15.622,0,0,0-.411-3.964C319.041,113.223,302.793,67.031,285.265,65.5Z" transform="translate(-244.43 -65.468)" fill="#579e1b"/>
          <path id="Trazado_823022" data-name="Trazado 823022" d="M268.664,128.19c21.726,0,39.414-16.519,40.171-37.17-6.824-13.995-14.864-24.8-23.185-25.522-13.443-1.178-27.476,32.758-35.441,58.392A41.335,41.335,0,0,0,268.664,128.19Z" transform="translate(-244.806 -65.468)" fill="#68af23"/>
        </g>
        <g id="Grupo_1073920" data-name="Grupo 1073920" transform="translate(289.92 61.172)">
          <path id="Trazado_823023" data-name="Trazado 823023" d="M341.147,112.691c0,11.807-6.946,21.371-15.519,21.371S310.11,124.5,310.11,112.691s6.946-21.371,15.519-21.371,15.519,9.564,15.519,21.371Z" transform="translate(-310.11 -91.32)" fill="#007500"/>
          <path id="Trazado_823024" data-name="Trazado 823024" d="M334.621,95.5a28.734,28.734,0,0,1,.776,6.694c0,11.807-6.946,21.371-15.519,21.371a12.8,12.8,0,0,1-8.928-3.9c2.038,8.526,7.862,14.677,14.733,14.677,8.573,0,15.519-9.564,15.519-21.371C341.2,105.755,338.6,99.37,334.621,95.5Z" transform="translate(-310.165 -91.592)" fill="#00aeec" opacity="0.45"/>
          <line id="Lnea_1067" data-name="Lnea 1067" y2="39.171" transform="translate(15.921 23.633)" fill="none" stroke="#000" stroke-miterlimit="10" stroke-width="2"/>
          <line id="Lnea_1068" data-name="Lnea 1068" x2="7.049" y2="7.46" transform="translate(8.872 28.186)" fill="none" stroke="#000" stroke-miterlimit="10" stroke-width="2"/>
        </g>
        <g id="Grupo_1073921" data-name="Grupo 1073921" transform="translate(164.424 56.077)">
          <path id="Trazado_823025" data-name="Trazado 823025" d="M206.907,105.821c0,11.807-6.946,21.371-15.519,21.371s-15.519-9.564-15.519-21.371,6.946-21.371,15.519-21.371S206.907,94.014,206.907,105.821Z" transform="translate(-175.87 -84.45)" fill="#148e14"/>
          <line id="Lnea_1069" data-name="Lnea 1069" y2="39.171" transform="translate(15.304 19.277)" fill="none" stroke="#000" stroke-miterlimit="10" stroke-width="2"/>
          <path id="Trazado_823026" data-name="Trazado 823026" d="M200.381,88.62a28.735,28.735,0,0,1,.776,6.694c0,11.807-6.946,21.371-15.519,21.371a12.8,12.8,0,0,1-8.928-3.9c2.038,8.526,7.862,14.677,14.733,14.677,8.573,0,15.519-9.564,15.519-21.371,0-7.217-2.6-13.6-6.581-17.473Z" transform="translate(-175.925 -84.722)" fill="#00aeec" opacity="0.45"/>
          <line id="Lnea_1070" data-name="Lnea 1070" x1="7.049" y2="6.638" transform="translate(15.304 25.073)" fill="none" stroke="#000" stroke-miterlimit="10" stroke-width="2"/>
        </g>
        <path id="Trazado_823027" data-name="Trazado 823027" d="M71.193,134.76,61.91,166.714H80.476Z" transform="translate(-4.023 -38.045)" fill="#1c6c37"/>
        <path id="Trazado_823028" data-name="Trazado 823028" d="M286.812,130.31l-6.432,22.128h12.864Z" transform="translate(-18.254 -36.535)" fill="#1c6c37"/>
        <g id="Grupo_1073922" data-name="Grupo 1073922" transform="translate(68.086 32.328)">
          <path id="Trazado_823029" data-name="Trazado 823029" d="M112.915,69.745l6.217,13.677,4.543-8.535L114.364,46.43,105.53,73.56l1.58,9.863Z" transform="translate(-74.951 -46.43)" fill="#fff"/>
          <path id="Trazado_823030" data-name="Trazado 823030" d="M80.944,85.987l5.385,18.66,3.319-18.239,6.217,8.7,1.047-11.779L84.253,60.4,72.82,96.645Z" transform="translate(-72.82 -47.34)" fill="#fff"/>
        </g>
        <g id="Grupo_1073923" data-name="Grupo 1073923" transform="translate(280.861 22.072)">
          <path id="Trazado_823031" data-name="Trazado 823031" d="M302.608,52.867l2.487,13.266,4.141-9.956,3.319,8.292,2.16-6.273-8.32-22.736L300.42,55.821Z" transform="translate(-300.42 -35.46)" fill="#fff"/>
          <path id="Trazado_823032" data-name="Trazado 823032" d="M325.577,74.1l2.907-7.04,3.73,9.526,3.038-3.721-8.872-23.1L322.24,64.821Z" transform="translate(-301.841 -36.392)" fill="#fff"/>
        </g>
        <g id="Grupo_1073925" data-name="Grupo 1073925" transform="translate(240.681 85.078)">
          <path id="Trazado_823033" data-name="Trazado 823033" d="M267.191,120.08l-9.751,33.552h19.511Z" transform="translate(-257.44 -120.08)" fill="url(#radial-gradient-17)"/>
          <g id="Grupo_1073924" data-name="Grupo 1073924" transform="translate(7.544 9.685)">
            <path id="Trazado_823034" data-name="Trazado 823034" d="M272.12,135.9l-1.589-5.46-5.02,8.61Z" transform="translate(-265.51 -130.44)" fill="#68af23"/>
            <path id="Trazado_823035" data-name="Trazado 823035" d="M274.535,144.318l-1.795-6.2-5.46,9.311Z" transform="translate(-265.625 -130.94)" fill="#68af23"/>
            <path id="Trazado_823036" data-name="Trazado 823036" d="M275.478,147.3c-2.375,2.8-4.908,5.936-4.216,5.7.477-.159,2.72-.991,5.31-1.954l-1.094-3.749Z" transform="translate(-265.877 -131.538)" fill="#68af23"/>
          </g>
        </g>
        <g id="Grupo_1073926" data-name="Grupo 1073926" transform="translate(64.188 104.03)">
          <path id="Trazado_823037" data-name="Trazado 823037" d="M75.615,149.009l-1.673-5.759-5.291,9.068Z" transform="translate(-68.65 -143.25)" fill="#115425"/>
          <path id="Trazado_823038" data-name="Trazado 823038" d="M78.03,157.437l-1.888-6.5L70.42,160.7Z" transform="translate(-68.765 -143.751)" fill="#115425"/>
          <path id="Trazado_823039" data-name="Trazado 823039" d="M78.917,160.22c-2.459,2.889-5.235,6.3-4.515,6.058.5-.168,2.935-1.066,5.665-2.085Z" transform="translate(-69.017 -144.355)" fill="#115425"/>
        </g>
        <g id="Grupo_1073928" data-name="Grupo 1073928" transform="translate(139.024 82.8)">
          <path id="Trazado_823040" data-name="Trazado 823040" d="M160.208,117.6,148.7,157.2h23.016Z" transform="translate(-148.7 -117.6)" fill="#6bbc24"/>
          <g id="Grupo_1073927" data-name="Grupo 1073927" transform="translate(8.891 11.041)">
            <path id="Trazado_823041" data-name="Trazado 823041" d="M168.31,144.2l-2.066-7.1-6.264,10.676Z" transform="translate(-158.325 -129.911)" fill="#579e1b"/>
            <path id="Trazado_823042" data-name="Trazado 823042" d="M169.076,146.61c-2.571,3.01-5.9,7.021-5.114,6.759.542-.178,3.375-1.234,6.394-2.356l-1.281-4.4Z" transform="translate(-158.577 -130.53)" fill="#579e1b"/>
            <path id="Trazado_823043" data-name="Trazado 823043" d="M165.876,135.748l-1.842-6.338-5.824,9.984Z" transform="translate(-158.21 -129.41)" fill="#579e1b"/>
          </g>
        </g>
        <g id="Grupo_1073930" data-name="Grupo 1073930" transform="translate(70.003 93.856)">
          <path id="Trazado_823044" data-name="Trazado 823044" d="M86.846,131.85l-11.976,41.2H98.831Z" transform="translate(-74.87 -131.85)" fill="#115425"/>
          <g id="Grupo_1073929" data-name="Grupo 1073929" transform="translate(10.76 15.098)">
            <path id="Trazado_823045" data-name="Trazado 823045" d="M96.181,162.542,94.19,155.68l-6.03,10.3Z" transform="translate(-86.496 -148.5)" fill="#0a3f17"/>
            <path id="Trazado_823046" data-name="Trazado 823046" d="M97,165.1c-2.533,2.973-5.619,6.722-4.861,6.469.524-.178,3.188-1.159,6.1-2.244L97.013,165.1Z" transform="translate(-86.748 -149.114)" fill="#0a3f17"/>
            <path id="Trazado_823047" data-name="Trazado 823047" d="M93.756,154.1,91.989,148l-5.609,9.6Z" transform="translate(-86.38 -148)" fill="#0a3f17"/>
          </g>
        </g>
        <path id="Trazado_823048" data-name="Trazado 823048" d="M316.8,23.741l47.313.795s-3.179-5.048-6.9-4.263c-4.16.879-5.385-3.375-8.919-4.039-3.506-.654-6.862,1.87-9.264.795s-4.5-5.188-9.7-5.179c-6.853.019-11.405,6.89-12.527,11.891Z" transform="translate(-20.626 -11.85)" fill="#43d7ff"/>
      </g>
    </g>
  </g>
</svg>
