<svg xmlns="http://www.w3.org/2000/svg" xmlns:xlink="http://www.w3.org/1999/xlink" width="1030" height="490.887" viewBox="0 0 1030 490.887">
  <defs>
    <linearGradient id="linear-gradient" x1="0.5" x2="0.5" y2="1" gradientUnits="objectBoundingBox">
      <stop offset="0" stop-color="#defff8"/>
      <stop offset="0.803" stop-color="#eaf5ff"/>
      <stop offset="1" stop-color="#f0feff"/>
    </linearGradient>
  </defs>
  <g id="Grupo_1075663" data-name="Grupo 1075663" transform="translate(-285 -782.689)">
    <path id="Trazado_824244" data-name="Trazado 824244" d="M0,0H1030V490.887H0Z" transform="translate(1315 1273.576) rotate(180)" fill="url(#linear-gradient)"/>
    <g id="Grupo_1075649" data-name="Grupo 1075649" transform="translate(50.552 7.442)">
      <ellipse id="Elipse_5919" data-name="Elipse 5919" cx="200" cy="200" rx="200" ry="200" transform="translate(556.678 830.69)" fill="#337b90" opacity="0.62"/>
      <ellipse id="Elipse_5920" data-name="Elipse 5920" cx="162.531" cy="162.531" rx="162.531" ry="162.531" transform="translate(594.147 868.16)" fill="#9edee8" stroke="#fff" stroke-width="5" opacity="0.86"/>
      <ellipse id="Elipse_5921" data-name="Elipse 5921" cx="132.959" cy="132.959" rx="132.959" ry="132.959" transform="translate(623.72 897.732)" fill="#b8e9f4" stroke="#fff" stroke-width="5" opacity="0.74"/>
      <path id="Trazado_823862" data-name="Trazado 823862" d="M275.909,442.584H396.961S401.044,431,387,426.071c0,0,1.785-7.483-3.064-11.565s-11.741-1.019-11.741-1.019-3.577-15.6-20.68-15.969-20.427,12.392-20.427,12.392-5.576-8.019-15.326-5.721S304.8,418.764,304.8,418.764a10.8,10.8,0,0,0-14.7-.452c-7.621,5.989-4.956,11.772-4.956,11.772s-10.294.513-9.229,12.507Z" transform="translate(508.817 676.078)" fill="#fff"/>
      <path id="Trazado_823863" data-name="Trazado 823863" d="M44.022,281.493h93.365s3.148-8.938-7.682-12.737c0,0,1.379-5.767-2.367-8.923s-9.061-.789-9.061-.789-2.757-12.033-15.946-12.316-15.755,9.559-15.755,9.559-4.3-6.181-11.818-4.412-8.463,11.236-8.463,11.236a8.339,8.339,0,0,0-11.336-.352c-5.882,4.618-3.822,9.084-3.822,9.084S43.2,272.233,44.022,281.493Z" transform="translate(563.096 711.375)" fill="#fff"/>
      <path id="Trazado_823864" data-name="Trazado 823864" d="M75.818,410.967H176.152s3.247-12.431-10.876-16.36c0,0,.651-6.526-5.032-10.095s-12.5.927-12.5.927-6.166-9.658-16.069-6.755a13.187,13.187,0,0,0-9.9,12.155s-5.193-3.094-9.742-.819-4.381,8.31-4.381,8.31a9.711,9.711,0,0,0-11.2-5.875c-7.269,1.4-7.866,9.9-7.866,9.9s-10.692-3.087-12.775,8.6Z" transform="translate(555.641 680.612)" fill="#fff"/>
      <path id="Trazado_823865" data-name="Trazado 823865" d="M347.2,210.117H447.532s3.247-12.431-10.876-16.36c0,0,.651-6.526-5.032-10.095s-12.5.927-12.5.927-6.166-9.658-16.069-6.755a13.187,13.187,0,0,0-9.9,12.155s-5.193-3.094-9.742-.82-4.381,8.31-4.381,8.31a9.711,9.711,0,0,0-11.2-5.875c-7.269,1.394-7.866,9.9-7.866,9.9s-10.692-3.087-12.775,8.6Z" transform="translate(471.355 756.927)" fill="#fff"/>
      <circle id="Elipse_5935" data-name="Elipse 5935" cx="107" cy="107" r="107" transform="translate(649.321 924)" fill="#fff"/>
      <g id="Grupo_1073945" data-name="Grupo 1073945" transform="translate(653.321 927)">
        <g id="Grupo_1073940" data-name="Grupo 1073940" transform="translate(0 2.754)">
          <g id="Grupo_1073932" data-name="Grupo 1073932">
            <ellipse id="Elipse_5922" data-name="Elipse 5922" cx="101.254" cy="101.254" rx="101.254" ry="101.254" transform="translate(0 0.008)" fill="#55c3f2"/>
            <path id="Trazado_823837" data-name="Trazado 823837" d="M206.484,209.748A101.259,101.259,0,0,0,105.23,310.527a31.794,31.794,0,0,0,8.027,2.642,31.234,31.234,0,0,0,22.725-5.614c14.805-10.47,18.9-36.764,39.062-38.809,18.382-1.785,29.1,12.255,45.7,16.85a16.864,16.864,0,0,0,19.914-9.957c2.811-7.406.513-15.571,2.045-22.977,3.209-15.456,16.835-18.91,30.077-18.2a100.845,100.845,0,0,0-66.3-24.724Z" transform="translate(-105.23 -209.74)" fill="#5de2f9"/>
            <path id="Trazado_823838" data-name="Trazado 823838" d="M308.412,371.313a31.693,31.693,0,0,0-6.824-1.011,57.118,57.118,0,0,0-22.725,4.082c-9.7,4.343-16.337,12.768-24,19.661-14.3,12.255-28.852,9.444-45.7,4.6-17.616-5.361-34.719-12-53.1-13.534-12.186-1-27.029,1.18-36.994,8.609a101.287,101.287,0,0,0,189.349-22.411Z" transform="translate(-108.47 -247.319)" fill="#5de2f9"/>
          </g>
          <g id="Grupo_1073935" data-name="Grupo 1073935" transform="translate(86.706 86.015)">
            <g id="Grupo_1073933" data-name="Grupo 1073933">
              <path id="Trazado_823839" data-name="Trazado 823839" d="M226.258,323.58a2.986,2.986,0,0,0,3.179,1.631,5.168,5.168,0,0,0,3.033-2.206l-.605.077c.934.85,2.091,1.869,3.424,1.938,1.471.077,2.29-1.294,2.773-2.489l-.7.092a4.682,4.682,0,0,0,3.393,2.658c1.639.184,2.658-1.118,3.056-2.558l-.643.168a5.966,5.966,0,0,0,3.332,1.647,4.976,4.976,0,0,0,3.332-1.455c.383-.314-.161-.85-.544-.544a4.234,4.234,0,0,1-2.8,1.225,5.128,5.128,0,0,1-2.8-1.417.392.392,0,0,0-.643.169c-.314,1.134-1.065,2.229-2.39,1.984a4.088,4.088,0,0,1-2.658-2.267.385.385,0,0,0-.7.092c-.375.934-1.019,2.1-2.2,1.907a5.888,5.888,0,0,1-2.711-1.693.394.394,0,0,0-.605.077,4.5,4.5,0,0,1-2.374,1.808,2.2,2.2,0,0,1-2.52-1.233.381.381,0,0,0-.659.383h0Z" transform="translate(-220.25 -322.044)" fill="#fff"/>
              <path id="Trazado_823840" data-name="Trazado 823840" d="M218.508,329.55a2.986,2.986,0,0,0,3.179,1.631,5.168,5.168,0,0,0,3.033-2.206l-.605.077c.934.85,2.091,1.869,3.424,1.938,1.471.077,2.29-1.294,2.773-2.489l-.7.092a4.682,4.682,0,0,0,3.393,2.658c1.639.184,2.658-1.118,3.056-2.558l-.643.168a5.967,5.967,0,0,0,3.332,1.647,4.977,4.977,0,0,0,3.332-1.455c.383-.314-.161-.85-.544-.544a4.233,4.233,0,0,1-2.8,1.225,5.129,5.129,0,0,1-2.8-1.417.392.392,0,0,0-.643.168c-.314,1.134-1.065,2.229-2.39,1.984a4.088,4.088,0,0,1-2.658-2.267.385.385,0,0,0-.7.092c-.375.934-1.019,2.1-2.2,1.907a5.888,5.888,0,0,1-2.711-1.693.394.394,0,0,0-.605.077,4.5,4.5,0,0,1-2.374,1.808,2.2,2.2,0,0,1-2.52-1.233.381.381,0,0,0-.659.383h0Z" transform="translate(-218.436 -323.441)" fill="#fff"/>
            </g>
            <g id="Grupo_1073934" data-name="Grupo 1073934" transform="translate(32.069 40.088)">
              <path id="Trazado_823841" data-name="Trazado 823841" d="M268.128,375.92a2.986,2.986,0,0,0,3.179,1.631,5.168,5.168,0,0,0,3.033-2.206l-.605.077c.934.85,2.091,1.869,3.424,1.938,1.471.077,2.29-1.294,2.773-2.489l-.7.092a4.682,4.682,0,0,0,3.393,2.658c1.639.184,2.658-1.118,3.056-2.558l-.643.168a5.966,5.966,0,0,0,3.332,1.647,4.976,4.976,0,0,0,3.332-1.455c.383-.314-.161-.85-.544-.544a4.233,4.233,0,0,1-2.8,1.225,5.128,5.128,0,0,1-2.8-1.417.392.392,0,0,0-.643.169c-.314,1.134-1.065,2.229-2.39,1.984a4.088,4.088,0,0,1-2.658-2.267.385.385,0,0,0-.7.092c-.375.934-1.019,2.1-2.2,1.907a5.888,5.888,0,0,1-2.711-1.693.394.394,0,0,0-.605.077,4.5,4.5,0,0,1-2.374,1.808,2.2,2.2,0,0,1-2.52-1.233.381.381,0,0,0-.659.383h0Z" transform="translate(-262.12 -374.384)" fill="#fff"/>
              <path id="Trazado_823842" data-name="Trazado 823842" d="M260.378,381.89a2.986,2.986,0,0,0,3.179,1.631,5.167,5.167,0,0,0,3.033-2.206l-.605.077c.934.85,2.091,1.869,3.424,1.938,1.471.077,2.29-1.294,2.773-2.489l-.7.092a4.682,4.682,0,0,0,3.393,2.658c1.639.184,2.658-1.118,3.056-2.558l-.643.169a5.967,5.967,0,0,0,3.332,1.647,4.977,4.977,0,0,0,3.332-1.455c.383-.314-.161-.85-.544-.544a4.233,4.233,0,0,1-2.8,1.226,5.128,5.128,0,0,1-2.8-1.417.392.392,0,0,0-.643.168c-.314,1.134-1.065,2.229-2.39,1.984a4.088,4.088,0,0,1-2.658-2.267.385.385,0,0,0-.7.092c-.375.934-1.019,2.1-2.2,1.907a5.887,5.887,0,0,1-2.711-1.693.394.394,0,0,0-.605.077,4.5,4.5,0,0,1-2.374,1.808,2.2,2.2,0,0,1-2.52-1.233.381.381,0,0,0-.659.383h0Z" transform="translate(-260.306 -375.782)" fill="#fff"/>
            </g>
          </g>
          <g id="Grupo_1073939" data-name="Grupo 1073939" transform="translate(4.05 38.268)">
            <g id="Grupo_1073936" data-name="Grupo 1073936" transform="translate(81.384)">
              <path id="Trazado_823843" data-name="Trazado 823843" d="M224.6,261.24a2.986,2.986,0,0,0,3.179,1.631,5.168,5.168,0,0,0,3.033-2.206l-.605.077c.934.85,2.091,1.869,3.424,1.938,1.471.077,2.29-1.294,2.773-2.489l-.7.092a4.682,4.682,0,0,0,3.393,2.658c1.639.184,2.658-1.118,3.056-2.558l-.643.169a5.966,5.966,0,0,0,3.332,1.647,4.976,4.976,0,0,0,3.332-1.455c.383-.314-.161-.85-.544-.544a4.233,4.233,0,0,1-2.8,1.225,5.128,5.128,0,0,1-2.8-1.417.392.392,0,0,0-.643.169c-.314,1.134-1.065,2.229-2.39,1.984a4.088,4.088,0,0,1-2.658-2.267.385.385,0,0,0-.7.092c-.375.934-1.019,2.1-2.2,1.907a5.888,5.888,0,0,1-2.711-1.693.394.394,0,0,0-.605.077,4.5,4.5,0,0,1-2.374,1.808,2.2,2.2,0,0,1-2.52-1.233.381.381,0,0,0-.659.383h0Z" transform="translate(-218.59 -259.704)" fill="#fff"/>
              <path id="Trazado_823844" data-name="Trazado 823844" d="M216.848,267.2a2.986,2.986,0,0,0,3.179,1.631,5.168,5.168,0,0,0,3.033-2.206l-.605.077c.934.85,2.091,1.869,3.424,1.938,1.471.077,2.29-1.294,2.773-2.489l-.7.092a4.682,4.682,0,0,0,3.393,2.658c1.639.184,2.658-1.118,3.056-2.558l-.643.168a5.966,5.966,0,0,0,3.332,1.647,4.976,4.976,0,0,0,3.332-1.455c.383-.314-.161-.85-.544-.544a4.233,4.233,0,0,1-2.8,1.225,5.128,5.128,0,0,1-2.8-1.417.392.392,0,0,0-.643.168c-.314,1.134-1.065,2.229-2.39,1.984a4.088,4.088,0,0,1-2.658-2.267.385.385,0,0,0-.7.092c-.375.934-1.019,2.1-2.2,1.907a5.888,5.888,0,0,1-2.711-1.693.394.394,0,0,0-.605.077,4.5,4.5,0,0,1-2.374,1.808,2.2,2.2,0,0,1-2.52-1.233.381.381,0,0,0-.659.383h0Z" transform="translate(-216.776 -261.099)" fill="#fff"/>
            </g>
            <g id="Grupo_1073937" data-name="Grupo 1073937" transform="translate(74.139 126.445)">
              <path id="Trazado_823845" data-name="Trazado 823845" d="M215.138,426.33a2.986,2.986,0,0,0,3.179,1.631,5.167,5.167,0,0,0,3.033-2.206l-.605.077c.934.85,2.091,1.869,3.424,1.938,1.471.077,2.29-1.294,2.773-2.489l-.7.092a4.682,4.682,0,0,0,3.393,2.658c1.639.184,2.658-1.118,3.056-2.558l-.643.168a5.966,5.966,0,0,0,3.332,1.647,4.977,4.977,0,0,0,3.332-1.455c.383-.314-.161-.85-.544-.544a4.234,4.234,0,0,1-2.8,1.225,5.129,5.129,0,0,1-2.8-1.417.392.392,0,0,0-.643.168c-.314,1.134-1.065,2.229-2.39,1.984a4.088,4.088,0,0,1-2.658-2.267.385.385,0,0,0-.7.092c-.375.934-1.019,2.1-2.2,1.907a5.889,5.889,0,0,1-2.711-1.693.394.394,0,0,0-.605.077,4.5,4.5,0,0,1-2.374,1.808,2.2,2.2,0,0,1-2.52-1.233.381.381,0,0,0-.659.383h0Z" transform="translate(-209.13 -424.794)" fill="#fff"/>
              <path id="Trazado_823846" data-name="Trazado 823846" d="M207.388,432.3a2.986,2.986,0,0,0,3.179,1.631,5.167,5.167,0,0,0,3.033-2.206l-.605.077c.934.85,2.091,1.869,3.424,1.938,1.471.077,2.29-1.294,2.773-2.489l-.7.092A4.682,4.682,0,0,0,221.887,434c1.639.184,2.658-1.118,3.056-2.558l-.643.168a5.966,5.966,0,0,0,3.332,1.647,4.977,4.977,0,0,0,3.332-1.455c.383-.314-.161-.85-.544-.544a4.233,4.233,0,0,1-2.8,1.225,5.128,5.128,0,0,1-2.8-1.417.392.392,0,0,0-.643.169c-.314,1.134-1.065,2.229-2.39,1.984a4.088,4.088,0,0,1-2.658-2.267.385.385,0,0,0-.7.092c-.375.934-1.019,2.1-2.2,1.907a5.888,5.888,0,0,1-2.711-1.693.394.394,0,0,0-.605.077,4.5,4.5,0,0,1-2.374,1.808,2.2,2.2,0,0,1-2.52-1.233.381.381,0,0,0-.659.383h0Z" transform="translate(-207.316 -426.191)" fill="#fff"/>
            </g>
            <g id="Grupo_1073938" data-name="Grupo 1073938" transform="translate(0 43.182)">
              <path id="Trazado_823847" data-name="Trazado 823847" d="M118.39,317.123c.934.85,2.091,1.869,3.424,1.938,1.471.077,2.29-1.294,2.773-2.489l-.7.092a4.682,4.682,0,0,0,3.393,2.658c1.639.184,2.658-1.118,3.056-2.558l-.643.168a5.966,5.966,0,0,0,3.332,1.647,4.977,4.977,0,0,0,3.332-1.455c.383-.314-.161-.85-.544-.544a4.233,4.233,0,0,1-2.8,1.225,5.128,5.128,0,0,1-2.8-1.417.392.392,0,0,0-.643.168c-.314,1.134-1.065,2.229-2.39,1.984a4.088,4.088,0,0,1-2.658-2.267.385.385,0,0,0-.7.092c-.375.934-1.019,2.1-2.2,1.907a5.888,5.888,0,0,1-2.711-1.693c-.368-.329-.911.207-.544.544h0Z" transform="translate(-112.33 -316.084)" fill="#fff"/>
              <path id="Trazado_823848" data-name="Trazado 823848" d="M110.581,322.622a4.682,4.682,0,0,0,3.393,2.658c1.639.184,2.658-1.118,3.056-2.558l-.643.168a5.966,5.966,0,0,0,3.332,1.647,4.977,4.977,0,0,0,3.332-1.455c.383-.314-.161-.85-.544-.544a4.233,4.233,0,0,1-2.8,1.225,5.128,5.128,0,0,1-2.8-1.417.392.392,0,0,0-.643.168c-.314,1.134-1.065,2.229-2.39,1.984a4.088,4.088,0,0,1-2.658-2.267c-.222-.437-.888-.054-.659.383h0Z" transform="translate(-110.518 -317.478)" fill="#fff"/>
            </g>
          </g>
        </g>
        <g id="Grupo_1073941" data-name="Grupo 1073941" transform="translate(113.213 1)">
          <path id="Trazado_823849" data-name="Trazado 823849" d="M275.011,214.223l-1.271-2.543c-.1-.291-.184-.483-.26-.521a146.769,146.769,0,0,0-17.1-3.7s-2.55,2.811-2.811,5.231,1.279,4.6,0,6.127c-.674.812-.605,2.512-.2,4.082h0a6.787,6.787,0,0,0,1.555,3.156,6.51,6.51,0,0,0,1.57,3.1c1.294,1.019,4.228,1.149,6.143,0s6.127-4.212,7.659-4.465,4.726-.9,5.614-1.915S275.524,214.483,275.011,214.223Z" transform="translate(-253.048 -207.452)" fill="#054986"/>
          <path id="Trazado_823850" data-name="Trazado 823850" d="M256.365,207.45s-2.551,2.811-2.811,5.231,1.279,4.6,0,6.127.1,6.257,1.386,7.276,4.228,1.149,6.143,0,6.127-4.212,7.659-4.465,4.726-.9,5.614-1.915-.383-8.295-.9-8.555a146.771,146.771,0,0,0-17.1-3.7Z" transform="translate(-253.045 -207.45)" fill="#89da62"/>
        </g>
        <g id="Grupo_1073942" data-name="Grupo 1073942" transform="translate(20.315)">
          <path id="Trazado_823851" data-name="Trazado 823851" d="M137.15,242.164s10.148-15.51,34.083-24.7,46.912-7.276,49.018-6.893c0,0,0,4.6-2.681,6.51s-5.361,4.213-7.276,2.681-6.51-1.723-9.191-.766-4.4,8.954-1.532,7.161,6.893-4.289,8.808-3.523,4.22,3.447,4.312,5.744-.291,11.489-4.121,10.531-10.34,3.83-14.361,3.255-13.4,1.149-16.467,4.213-9.957,11.872-12.063,12.063-3.255-7.659-6.127-9.191-7.468-1.34-9.765-.766-6.319,6.51-5.744,9.191,6.51,6.893,5.744,8.616-3.255,4.6-2.872,5.936,1.915,7.468,2.681,9.574,3.064,4.787,4.787,3.83,6.893-2.872,8.808-1.532,18.19,9.957,21.637,14.361,4.978,15.5,6.51,15.7,7.659,5.553,9.765,6.51,8.617,5.17,8.617,7.659-.957,10.723-4.021,13.4-9,3.83-9.957,5.553-1.723,4.978-4.6,4.6-10.531,1.532-13.595,4.6-12.829,14.935-14.935,17.616-.957,6.893-1.149,8.617-.957,5.744-3.447,5.744-8.425-7.851-8.808-11.106,1.149-44.232,1.149-47.1-7.468-7.851-8.042-10.723.383-13.212.766-15.893,4.978-8.808,5.17-10.914-5.17-3.447-5.744-7.085-1.34-14.552-3.064-16.467-8.234-8.042-7.659-10.914,5.132-6.6,5.361-9.191S136.438,243.16,137.15,242.164Z" transform="translate(-131.753 -207.081)" fill="#054986"/>
          <path id="Trazado_823852" data-name="Trazado 823852" d="M137.15,238.164s10.148-15.51,34.083-24.7,46.912-7.276,49.018-6.893c0,0,0,4.6-2.681,6.51s-5.361,4.213-7.276,2.681-6.51-1.723-9.191-.766-4.4,8.954-1.532,7.161,6.893-4.289,8.808-3.523,4.22,3.447,4.312,5.744-.291,11.489-4.121,10.531-10.34,3.83-14.361,3.255-13.4,1.149-16.467,4.213-9.957,11.872-12.063,12.063-3.255-7.659-6.127-9.191-7.468-1.34-9.765-.766-6.319,6.51-5.744,9.191,6.51,6.893,5.744,8.617-3.255,4.6-2.872,5.936,1.915,7.468,2.681,9.574,3.064,4.787,4.787,3.83,6.893-2.872,8.808-1.532,18.19,9.957,21.637,14.361,4.978,15.5,6.51,15.7,7.659,5.553,9.765,6.51,8.617,5.17,8.617,7.659-.957,10.723-4.021,13.4-9,3.83-9.957,5.553-1.723,4.978-4.6,4.6-10.531,1.532-13.595,4.6-12.829,14.935-14.935,17.616-.957,6.893-1.149,8.617-.957,5.744-3.447,5.744-8.425-7.851-8.808-11.106,1.149-44.232,1.149-47.1-7.468-7.851-8.042-10.723.383-13.212.766-15.893,4.978-8.808,5.17-10.914-5.17-3.447-5.744-7.085-1.34-14.552-3.064-16.467-8.234-8.042-7.659-10.914,5.132-6.6,5.361-9.191S136.438,239.16,137.15,238.164Z" transform="translate(-131.753 -206.144)" fill="#89da62"/>
          <path id="Trazado_823853" data-name="Trazado 823853" d="M189.294,314.119c-1.088-3.638-2.451-8.5-4.465-11.075-3.447-4.4-19.722-13.021-21.637-14.361s-7.085.574-8.808,1.532-4.021-1.723-4.787-3.83-2.3-8.234-2.681-9.574,2.106-4.213,2.872-5.936-5.17-5.936-5.744-8.617,3.447-8.617,5.744-9.191,6.893-.766,9.765.766,4.021,9.382,6.127,9.191,9-9,12.063-12.063a9.971,9.971,0,0,1,2.933-1.861c-7.981-4.32-16.812-6.947-26.485-6.181-4.6.383-8.808,1.915-13.786,1.915a16.92,16.92,0,0,1-1.746-.1c-1.019,1.264-1.509,2.014-1.509,2.014-.712,1,.23,4.3,0,6.893s-4.787,6.319-5.361,9.191,5.936,9,7.659,10.914,2.489,12.829,3.064,16.467,5.936,4.978,5.744,7.085-4.787,8.234-5.17,10.914-1.34,13.021-.766,15.893c.521,2.6,6.7,6.939,7.858,9.865,4.772-1.938,9.7-3.615,14.736-6.035C172.543,324.29,183.9,320.928,189.294,314.119Z" transform="translate(-131.753 -214.722)" fill="#afe26f"/>
        </g>
        <g id="Grupo_1073943" data-name="Grupo 1073943" transform="translate(136.603 13.385)">
          <path id="Trazado_823854" data-name="Trazado 823854" d="M301.043,227.62s-1.915,6-1.279,8.678a20.033,20.033,0,0,0,4.465,8.042c1.915,2.045,6.763,7.023,6.51,8.938s-.766,8.555-1.149,9.827-4.848,1.915-5.492,1.4-5.614-1.785-6.38-.9.383,8.555.9,9.957,7.276,1.915,9.061,1.532,4.6-4.726,6.258-4.726,5.109,2.045,6.64,3.83,3.316,3.96,9.321,5.492,8.938,6.893,9.191,8.172-1.279,1.915-4.082.766-10.47-4.465-12.768-4.848-5.231-3.7-7.912-4.848-9.7-.513-11.741.513-13.656,13.021-14.3,13.917.383,9.336,0,10.033-5.492,10.907-4.6,13.2,6.127,6.51,8.042,8.172,10.087-1.019,12.507,0a96.718,96.718,0,0,1,9.574,4.6c1.279.9.9,17.746-1.4,25.145s-9.827,18.129-10.976,20.167a21.051,21.051,0,0,0-2.167,8.042c.13,1.532,1.279,5.875,1.019,6.64s-.253,5.231.253,6.258,6.893.13,8.295,0,7.023-7.912,8.172-10.723,6.258-8.678,8.172-9.827,7.912-2.3,9.7-3.447,25.911-35.025,15.7-76.721c-12.255-50.037-49.532-67.27-49.532-67.27Z" transform="translate(-283.583 -224.556)" fill="#054986"/>
          <path id="Trazado_823855" data-name="Trazado 823855" d="M310.452,256.871c.253-1.279-5.492-11.489-9.321-12.768-1.164-.391-3.14,1.425-4.565,3.339h0c-1.088,1.471-1.861,3.01-1.693,3.676V253a1.066,1.066,0,0,0,0,.414c.383,1.532,4.848,1.4,5.614,2.811s1.532,5.875,3.7,6,6-1.785,6.257-3.064a1.568,1.568,0,0,0,0-.191v-2.106Z" transform="translate(-286.22 -228.402)" fill="#054986"/>
          <path id="Trazado_823856" data-name="Trazado 823856" d="M301.043,223.62s-1.915,6-1.279,8.678a20.033,20.033,0,0,0,4.465,8.042c1.915,2.045,6.763,7.023,6.51,8.938s-.766,8.555-1.149,9.827-4.848,1.915-5.492,1.4-5.614-1.785-6.38-.9.383,8.555.9,9.957,7.276,1.915,9.061,1.532,4.6-4.726,6.258-4.726,5.109,2.045,6.64,3.83,3.316,3.96,9.321,5.492,8.938,6.893,9.191,8.172-1.279,1.915-4.082.766-10.47-4.465-12.768-4.848-5.231-3.7-7.912-4.848-9.7-.513-11.741.513-13.656,13.021-14.3,13.917.383,9.336,0,10.033-5.492,10.907-4.6,13.2,6.127,6.51,8.042,8.172,10.087-1.019,12.507,0a96.732,96.732,0,0,1,9.574,4.6c1.279.9.9,17.746-1.4,25.145s-9.827,18.129-10.976,20.166a21.052,21.052,0,0,0-2.167,8.042c.13,1.532,1.279,5.875,1.019,6.64s-.253,5.231.253,6.258,6.893.13,8.295,0,7.023-7.912,8.172-10.723,6.258-8.678,8.172-9.827,10.976-2.3,12.768-3.447,22.847-35.025,12.638-76.722c-12.255-50.037-49.532-67.27-49.532-67.27Z" transform="translate(-283.583 -223.62)" fill="#89da62"/>
          <path id="Trazado_823857" data-name="Trazado 823857" d="M301.131,244.1c-2.06-.689-6.64,5.492-6.258,7.023s4.848,1.4,5.614,2.811,1.532,5.875,3.7,6,6-1.785,6.258-3.064-5.492-11.489-9.321-12.768Z" transform="translate(-286.22 -228.402)" fill="#89da62"/>
          <path id="Trazado_823858" data-name="Trazado 823858" d="M350.577,298.294a110.037,110.037,0,0,0-20.871-43.044c-3.753,5.561-7.391,12.507-13.212,15.089-5.8,2.252-12.668.728-18.811,1.317a33.993,33.993,0,0,0,.942,5.323c.513,1.4,7.276,1.915,9.061,1.532s4.6-4.726,6.258-4.726,5.109,2.045,6.641,3.83,3.316,3.96,9.321,5.492,8.938,6.893,9.191,8.172-1.279,1.915-4.082.766-10.47-4.465-12.768-4.848-5.231-3.7-7.912-4.848-9.7-.513-11.741.513-13.656,13.021-14.3,13.917.383,9.336,0,10.033-5.492,10.907-4.6,13.2,6.127,6.51,8.042,8.172,10.087-1.019,12.507,0a96.718,96.718,0,0,1,9.574,4.6c.521.36.766,3.37.72,7.3a90.722,90.722,0,0,0,11.918-5.384,71.453,71.453,0,0,1,23.36-6.893c1.126-.077,2.244-.222,3.37-.391a97.391,97.391,0,0,0-2.6-29.1Z" transform="translate(-283.585 -231.024)" fill="#afe26f"/>
        </g>
        <g id="Grupo_1073944" data-name="Grupo 1073944" transform="translate(40.969 182.294)">
          <path id="Trazado_823859" data-name="Trazado 823859" d="M231.987,459.385c-2.3-.567-9.191-1.218-11.489-.582s-6.51.9-8.938,0-8.678-4.6-13.021-5.492-12.255-1.149-13.4-1.532-1.785-4.6-2.3-5.982-2.681-.911-4.848-1.547-5.361,2.045-7.146,2.42-3.194-.636-6-.766a14.956,14.956,0,0,0-6.127,1.532v2.3s13.48,12.645,37.017,17.233a128.448,128.448,0,0,0,44.04.636v-2.3s-5.492-5.361-7.789-5.928Z" transform="translate(-158.72 -444.153)" fill="#054986"/>
          <path id="Trazado_823860" data-name="Trazado 823860" d="M158.72,450.446a14.955,14.955,0,0,1,6.127-1.532c2.811.13,4.213,1.141,6,.766s4.978-3.064,7.146-2.42,4.343.161,4.848,1.547,1.149,5.6,2.3,5.982,9.061.636,13.4,1.532,10.593,4.6,13.021,5.492,6.64.636,8.938,0,9.191.008,11.489.582,7.789,5.928,7.789,5.928a128.449,128.449,0,0,1-44.04-.636c-23.544-4.588-37.017-17.233-37.017-17.233Z" transform="translate(-158.72 -444.857)" fill="#89da62"/>
          <path id="Trazado_823861" data-name="Trazado 823861" d="M205.472,458.865a60.915,60.915,0,0,0-6.533-.835,30.9,30.9,0,0,0-10.639,8.1,87.134,87.134,0,0,0,14.369,4.105,128.45,128.45,0,0,0,44.04.636s-5.492-5.361-7.789-5.928-9.191-1.218-11.489-.582-6.51.9-8.938,0S209.815,459.761,205.472,458.865Z" transform="translate(-165.644 -447.402)" fill="#afe26f"/>
        </g>
      </g>
    </g>
    <path id="Trazado_824245" data-name="Trazado 824245" d="M0,0H218.309" transform="translate(947.064 923.261)" fill="none" stroke="#707070" stroke-width="3"/>
    <path id="Trazado_824246" data-name="Trazado 824246" d="M4.078-11.375,7-3.125l2.906-8.25h3.078V0H10.633V-3.109l.234-5.367L7.8,0H6.188L3.125-8.469l.234,5.359V0H1.016V-11.375Zm17.8,6.445h-4.5v3.047h5.281V0H15.031V-11.375h7.609v1.9H17.375v2.711h4.5ZM29.93-2.984A1.2,1.2,0,0,0,29.461-4a6.148,6.148,0,0,0-1.687-.75,11.963,11.963,0,0,1-1.93-.777,3.153,3.153,0,0,1-1.937-2.82A2.747,2.747,0,0,1,24.426-10a3.389,3.389,0,0,1,1.492-1.129,5.616,5.616,0,0,1,2.184-.406,5.112,5.112,0,0,1,2.172.441,3.458,3.458,0,0,1,1.48,1.246,3.261,3.261,0,0,1,.527,1.828H29.938a1.534,1.534,0,0,0-.492-1.215,2.023,2.023,0,0,0-1.383-.434,2.162,2.162,0,0,0-1.336.363,1.146,1.146,0,0,0-.477.957,1.1,1.1,0,0,0,.559.93,6.311,6.311,0,0,0,1.645.7,7.106,7.106,0,0,1,2.914,1.492A2.972,2.972,0,0,1,32.281-3,2.737,2.737,0,0,1,31.164-.684a4.891,4.891,0,0,1-3.008.84,5.808,5.808,0,0,1-2.391-.48,3.783,3.783,0,0,1-1.645-1.316,3.371,3.371,0,0,1-.566-1.937h2.352q0,1.883,2.25,1.883a2.189,2.189,0,0,0,1.3-.34A1.106,1.106,0,0,0,29.93-2.984ZM43.211-5.43a6.867,6.867,0,0,1-.594,2.945,4.472,4.472,0,0,1-1.7,1.953,4.7,4.7,0,0,1-2.535.688,4.732,4.732,0,0,1-2.523-.68,4.515,4.515,0,0,1-1.719-1.941,6.67,6.67,0,0,1-.617-2.9V-5.93a6.831,6.831,0,0,1,.605-2.957,4.508,4.508,0,0,1,1.711-1.961,4.706,4.706,0,0,1,2.527-.684,4.706,4.706,0,0,1,2.527.684,4.508,4.508,0,0,1,1.711,1.961,6.811,6.811,0,0,1,.605,2.949Zm-2.375-.516A4.787,4.787,0,0,0,40.2-8.664a2.088,2.088,0,0,0-1.828-.93,2.088,2.088,0,0,0-1.82.918A4.732,4.732,0,0,0,35.9-5.984v.555a4.847,4.847,0,0,0,.641,2.7,2.082,2.082,0,0,0,1.844.961A2.064,2.064,0,0,0,40.2-2.691a4.819,4.819,0,0,0,.641-2.7ZM38.82-14.422h2.461L39.117-12H37.281ZM50.813-2.984A1.2,1.2,0,0,0,50.344-4a6.148,6.148,0,0,0-1.687-.75,11.962,11.962,0,0,1-1.93-.777,3.153,3.153,0,0,1-1.937-2.82A2.747,2.747,0,0,1,45.309-10,3.389,3.389,0,0,1,46.8-11.125a5.616,5.616,0,0,1,2.184-.406,5.112,5.112,0,0,1,2.172.441,3.458,3.458,0,0,1,1.48,1.246,3.261,3.261,0,0,1,.527,1.828H50.82a1.534,1.534,0,0,0-.492-1.215,2.023,2.023,0,0,0-1.383-.434,2.162,2.162,0,0,0-1.336.363,1.146,1.146,0,0,0-.477.957,1.1,1.1,0,0,0,.559.93,6.311,6.311,0,0,0,1.645.7A7.106,7.106,0,0,1,52.25-5.219,2.972,2.972,0,0,1,53.164-3,2.737,2.737,0,0,1,52.047-.684a4.891,4.891,0,0,1-3.008.84,5.808,5.808,0,0,1-2.391-.48A3.783,3.783,0,0,1,45-1.641a3.371,3.371,0,0,1-.566-1.937h2.352q0,1.883,2.25,1.883a2.189,2.189,0,0,0,1.3-.34A1.106,1.106,0,0,0,50.813-2.984ZM61.594-4.648h-4.5V0H54.75V-11.375h7.406v1.9H57.094v2.938h4.5Zm8.766-.281h-4.5v3.047h5.281V0H63.516V-11.375h7.609v1.9H65.859v2.711h4.5Zm6.367.766H74.859V0H72.516V-11.375h4.227a4.778,4.778,0,0,1,3.109.9,3.1,3.1,0,0,1,1.094,2.539A3.5,3.5,0,0,1,80.441-6a3.437,3.437,0,0,1-1.527,1.238L81.375-.109V0H78.859Zm-1.867-1.9H76.75a1.936,1.936,0,0,0,1.367-.449A1.606,1.606,0,0,0,78.6-7.75a1.719,1.719,0,0,0-.457-1.266,1.9,1.9,0,0,0-1.4-.461H74.859ZM89.148-2.344H85.039L84.258,0H81.766L86-11.375h2.172L92.43,0H89.938Zm-3.477-1.9h2.844L87.086-8.5Z" transform="translate(1073.373 910.264)" fill="#12263f"/>
    <path id="Trazado_824247" data-name="Trazado 824247" d="M0,0H247.228" transform="translate(947.503 1029.341)" fill="none" stroke="#707070" stroke-width="3"/>
    <path id="Trazado_824248" data-name="Trazado 824248" d="M7.859-4.93h-4.5v3.047H8.641V0H1.016V-11.375H8.625v1.9H3.359v2.711h4.5Zm8.055,1.945A1.2,1.2,0,0,0,15.445-4a6.148,6.148,0,0,0-1.687-.75,11.963,11.963,0,0,1-1.93-.777,3.153,3.153,0,0,1-1.937-2.82A2.747,2.747,0,0,1,10.41-10,3.389,3.389,0,0,1,11.9-11.125a5.616,5.616,0,0,1,2.184-.406,5.112,5.112,0,0,1,2.172.441,3.458,3.458,0,0,1,1.48,1.246,3.261,3.261,0,0,1,.527,1.828H15.922A1.534,1.534,0,0,0,15.43-9.23a2.023,2.023,0,0,0-1.383-.434,2.162,2.162,0,0,0-1.336.363,1.146,1.146,0,0,0-.477.957,1.1,1.1,0,0,0,.559.93,6.311,6.311,0,0,0,1.645.7,7.106,7.106,0,0,1,2.914,1.492A2.972,2.972,0,0,1,18.266-3,2.737,2.737,0,0,1,17.148-.684a4.891,4.891,0,0,1-3.008.84,5.808,5.808,0,0,1-2.391-.48,3.783,3.783,0,0,1-1.645-1.316,3.371,3.371,0,0,1-.566-1.937h2.352q0,1.883,2.25,1.883a2.189,2.189,0,0,0,1.3-.34A1.106,1.106,0,0,0,15.914-2.984Zm12.5-6.492H24.93V0H22.586V-9.477H19.148v-1.9h9.266Zm5.547,5.313H32.094V0H29.75V-11.375h4.227a4.778,4.778,0,0,1,3.109.9A3.1,3.1,0,0,1,38.18-7.937,3.5,3.5,0,0,1,37.676-6a3.437,3.437,0,0,1-1.527,1.238L38.609-.109V0H36.094Zm-1.867-1.9h1.891a1.936,1.936,0,0,0,1.367-.449,1.606,1.606,0,0,0,.484-1.238,1.719,1.719,0,0,0-.457-1.266,1.9,1.9,0,0,0-1.4-.461H32.094ZM46.383-2.344H42.273L41.492,0H39l4.234-11.375h2.172L49.664,0H47.172Zm-3.477-1.9H45.75L44.32-8.5ZM58.352-9.477H54.867V0H52.523V-9.477H49.086v-1.9h9.266ZM68.813-5.43a6.867,6.867,0,0,1-.594,2.945,4.472,4.472,0,0,1-1.7,1.953,4.7,4.7,0,0,1-2.535.688,4.732,4.732,0,0,1-2.523-.68,4.515,4.515,0,0,1-1.719-1.941,6.67,6.67,0,0,1-.617-2.9V-5.93a6.831,6.831,0,0,1,.605-2.957,4.508,4.508,0,0,1,1.711-1.961,4.706,4.706,0,0,1,2.527-.684,4.706,4.706,0,0,1,2.527.684,4.508,4.508,0,0,1,1.711,1.961,6.811,6.811,0,0,1,.605,2.949Zm-2.375-.516A4.787,4.787,0,0,0,65.8-8.664a2.088,2.088,0,0,0-1.828-.93,2.088,2.088,0,0,0-1.82.918A4.732,4.732,0,0,0,61.5-5.984v.555a4.847,4.847,0,0,0,.641,2.7,2.082,2.082,0,0,0,1.844.961A2.064,2.064,0,0,0,65.8-2.691a4.819,4.819,0,0,0,.641-2.7Zm-2.016-8.477h2.461L64.719-12H62.883ZM76.414-2.984A1.2,1.2,0,0,0,75.945-4a6.148,6.148,0,0,0-1.687-.75,11.963,11.963,0,0,1-1.93-.777,3.153,3.153,0,0,1-1.937-2.82A2.747,2.747,0,0,1,70.91-10,3.389,3.389,0,0,1,72.4-11.125a5.616,5.616,0,0,1,2.184-.406,5.112,5.112,0,0,1,2.172.441,3.458,3.458,0,0,1,1.48,1.246,3.261,3.261,0,0,1,.527,1.828H76.422A1.534,1.534,0,0,0,75.93-9.23a2.023,2.023,0,0,0-1.383-.434,2.162,2.162,0,0,0-1.336.363,1.146,1.146,0,0,0-.477.957,1.1,1.1,0,0,0,.559.93,6.311,6.311,0,0,0,1.645.7,7.106,7.106,0,0,1,2.914,1.492A2.972,2.972,0,0,1,78.766-3,2.737,2.737,0,0,1,77.648-.684a4.891,4.891,0,0,1-3.008.84,5.808,5.808,0,0,1-2.391-.48,3.783,3.783,0,0,1-1.645-1.316,3.371,3.371,0,0,1-.566-1.937h2.352q0,1.883,2.25,1.883a2.189,2.189,0,0,0,1.3-.34A1.106,1.106,0,0,0,76.414-2.984ZM87.2-4.648H82.7V0H80.352V-11.375h7.406v1.9H82.7v2.938h4.5Zm8.766-.281h-4.5v3.047h5.281V0H89.117V-11.375h7.609v1.9H91.461v2.711h4.5Zm6.367.766h-1.867V0H98.117V-11.375h4.227a4.778,4.778,0,0,1,3.109.9,3.1,3.1,0,0,1,1.094,2.539,3.5,3.5,0,0,1-.5,1.941,3.437,3.437,0,0,1-1.527,1.238l2.461,4.648V0h-2.516Zm-1.867-1.9h1.891a1.936,1.936,0,0,0,1.367-.449A1.606,1.606,0,0,0,104.2-7.75a1.719,1.719,0,0,0-.457-1.266,1.9,1.9,0,0,0-1.4-.461h-1.883ZM114.75-2.344h-4.109L109.859,0h-2.492L111.6-11.375h2.172L118.031,0h-2.492Zm-3.477-1.9h2.844L112.688-8.5Z" transform="translate(1076.731 1016.344)" fill="#12263f"/>
    <path id="Trazado_824249" data-name="Trazado 824249" d="M9.578-9.477H6.094V0H3.75V-9.477H.313v-1.9H9.578ZM13.406,0H11.063V-11.375h2.344Zm9.016-4.93h-4.5v3.047H23.2V0H15.578V-11.375h7.609v1.9H17.922v2.711h4.5Zm6.367.766H26.922V0H24.578V-11.375H28.8a4.778,4.778,0,0,1,3.109.9,3.1,3.1,0,0,1,1.094,2.539A3.5,3.5,0,0,1,32.5-6a3.437,3.437,0,0,1-1.527,1.238L33.438-.109V0H30.922Zm-1.867-1.9h1.891a1.936,1.936,0,0,0,1.367-.449,1.606,1.606,0,0,0,.484-1.238,1.719,1.719,0,0,0-.457-1.266,1.9,1.9,0,0,0-1.4-.461H26.922ZM39-4.164H37.133V0H34.789V-11.375h4.227a4.778,4.778,0,0,1,3.109.9,3.1,3.1,0,0,1,1.094,2.539A3.5,3.5,0,0,1,42.715-6a3.437,3.437,0,0,1-1.527,1.238L43.648-.109V0H41.133Zm-1.867-1.9h1.891a1.936,1.936,0,0,0,1.367-.449,1.606,1.606,0,0,0,.484-1.238,1.719,1.719,0,0,0-.457-1.266,1.9,1.9,0,0,0-1.4-.461H37.133ZM51.422-2.344H47.313L46.531,0H44.039l4.234-11.375h2.172L54.7,0H52.211Zm-3.477-1.9h2.844L49.359-8.5Z" transform="translate(433.231 1064.439)" fill="#12263f"/>
    <path id="Trazado_824250" data-name="Trazado 824250" d="M0,0H374.595" transform="translate(849.975 1147.476)" fill="none" stroke="#707070" stroke-width="3"/>
    <path id="Trazado_824251" data-name="Trazado 824251" d="M9.578-9.477H6.094V0H3.75V-9.477H.313v-1.9H9.578Zm5.547,5.313H13.258V0H10.914V-11.375h4.227a4.778,4.778,0,0,1,3.109.9,3.1,3.1,0,0,1,1.094,2.539A3.5,3.5,0,0,1,18.84-6a3.437,3.437,0,0,1-1.527,1.238L19.773-.109V0H17.258Zm-1.867-1.9h1.891a1.936,1.936,0,0,0,1.367-.449A1.606,1.606,0,0,0,17-7.75a1.719,1.719,0,0,0-.457-1.266,1.9,1.9,0,0,0-1.4-.461H13.258Zm17.211.633a6.867,6.867,0,0,1-.594,2.945,4.472,4.472,0,0,1-1.7,1.953,4.7,4.7,0,0,1-2.535.688,4.732,4.732,0,0,1-2.523-.68A4.515,4.515,0,0,1,21.4-2.465a6.67,6.67,0,0,1-.617-2.9V-5.93a6.831,6.831,0,0,1,.605-2.957A4.508,4.508,0,0,1,23.1-10.848a4.706,4.706,0,0,1,2.527-.684,4.706,4.706,0,0,1,2.527.684,4.508,4.508,0,0,1,1.711,1.961,6.811,6.811,0,0,1,.605,2.949Zm-2.375-.516a4.787,4.787,0,0,0-.641-2.719,2.088,2.088,0,0,0-1.828-.93,2.088,2.088,0,0,0-1.82.918,4.732,4.732,0,0,0-.648,2.691v.555a4.847,4.847,0,0,0,.641,2.7,2.082,2.082,0,0,0,1.844.961,2.064,2.064,0,0,0,1.813-.926,4.819,4.819,0,0,0,.641-2.7Zm6.422,1.938V0H32.172V-11.375h4.438a5.134,5.134,0,0,1,2.254.469,3.454,3.454,0,0,1,1.5,1.332,3.714,3.714,0,0,1,.523,1.965,3.266,3.266,0,0,1-1.145,2.637,4.767,4.767,0,0,1-3.168.965Zm0-1.9h2.094a2.059,2.059,0,0,0,1.418-.437,1.591,1.591,0,0,0,.488-1.25,1.876,1.876,0,0,0-.492-1.352,1.839,1.839,0,0,0-1.359-.531H34.516Zm17.32.477a6.867,6.867,0,0,1-.594,2.945,4.472,4.472,0,0,1-1.7,1.953,4.7,4.7,0,0,1-2.535.688,4.732,4.732,0,0,1-2.523-.68,4.515,4.515,0,0,1-1.719-1.941,6.67,6.67,0,0,1-.617-2.9V-5.93a6.831,6.831,0,0,1,.605-2.957,4.508,4.508,0,0,1,1.711-1.961,4.706,4.706,0,0,1,2.527-.684,4.706,4.706,0,0,1,2.527.684A4.508,4.508,0,0,1,51.23-8.887a6.811,6.811,0,0,1,.605,2.949Zm-2.375-.516a4.787,4.787,0,0,0-.641-2.719,2.088,2.088,0,0,0-1.828-.93,2.088,2.088,0,0,0-1.82.918,4.732,4.732,0,0,0-.648,2.691v.555a4.847,4.847,0,0,0,.641,2.7,2.082,2.082,0,0,0,1.844.961,2.064,2.064,0,0,0,1.813-.926,4.819,4.819,0,0,0,.641-2.7Zm-2.016-8.477h2.461L47.742-12H45.906ZM59.438-2.984A1.2,1.2,0,0,0,58.969-4a6.148,6.148,0,0,0-1.687-.75,11.962,11.962,0,0,1-1.93-.777,3.153,3.153,0,0,1-1.937-2.82A2.747,2.747,0,0,1,53.934-10a3.389,3.389,0,0,1,1.492-1.129,5.616,5.616,0,0,1,2.184-.406,5.112,5.112,0,0,1,2.172.441,3.458,3.458,0,0,1,1.48,1.246,3.261,3.261,0,0,1,.527,1.828H59.445a1.534,1.534,0,0,0-.492-1.215,2.023,2.023,0,0,0-1.383-.434,2.162,2.162,0,0,0-1.336.363,1.146,1.146,0,0,0-.477.957,1.1,1.1,0,0,0,.559.93,6.311,6.311,0,0,0,1.645.7,7.106,7.106,0,0,1,2.914,1.492A2.972,2.972,0,0,1,61.789-3,2.737,2.737,0,0,1,60.672-.684a4.891,4.891,0,0,1-3.008.84,5.808,5.808,0,0,1-2.391-.48,3.783,3.783,0,0,1-1.645-1.316,3.371,3.371,0,0,1-.566-1.937h2.352q0,1.883,2.25,1.883a2.189,2.189,0,0,0,1.3-.34A1.106,1.106,0,0,0,59.438-2.984ZM70.219-4.648h-4.5V0H63.375V-11.375h7.406v1.9H65.719v2.938h4.5Zm8.766-.281h-4.5v3.047h5.281V0H72.141V-11.375H79.75v1.9H74.484v2.711h4.5Zm6.367.766H83.484V0H81.141V-11.375h4.227a4.778,4.778,0,0,1,3.109.9A3.1,3.1,0,0,1,89.57-7.937,3.5,3.5,0,0,1,89.066-6a3.437,3.437,0,0,1-1.527,1.238L90-.109V0H87.484Zm-1.867-1.9h1.891a1.936,1.936,0,0,0,1.367-.449,1.606,1.606,0,0,0,.484-1.238,1.719,1.719,0,0,0-.457-1.266,1.9,1.9,0,0,0-1.4-.461H83.484ZM97.773-2.344H93.664L92.883,0H90.391l4.234-11.375H96.8L101.055,0H98.563ZM94.3-4.242h2.844L95.711-8.5Z" transform="translate(1125 1134.479)" fill="#12263f"/>
    <g id="Trazado_824252" data-name="Trazado 824252" transform="translate(944.223 913.315)" fill="#707070">
      <path d="M 9.471101760864258 18.44218444824219 C 4.524421691894531 18.44218444824219 0.5000017881393433 14.41777420043945 0.5000017881393433 9.471094131469727 C 0.5000017881393433 4.5244140625 4.524421691894531 0.5000041127204895 9.471101760864258 0.5000041127204895 C 14.41778182983398 0.5000041127204895 18.44220161437988 4.5244140625 18.44220161437988 9.471094131469727 C 18.44220161437988 14.41777420043945 14.41778182983398 18.44218444824219 9.471101760864258 18.44218444824219 Z" stroke="none"/>
      <path d="M 9.471101760864258 1.000003814697266 C 4.800121307373047 1.000003814697266 1.000001907348633 4.800124168395996 1.000001907348633 9.471094131469727 C 1.000001907348633 14.14206409454346 4.800121307373047 17.94218444824219 9.471101760864258 17.94218444824219 C 14.14208221435547 17.94218444824219 17.94220161437988 14.14206409454346 17.94220161437988 9.471094131469727 C 17.94220161437988 4.800124168395996 14.14208221435547 1.000003814697266 9.471101760864258 1.000003814697266 M 9.471101760864258 3.814697265625e-06 C 14.7018518447876 3.814697265625e-06 18.94220161437988 4.240354537963867 18.94220161437988 9.471094131469727 C 18.94220161437988 14.70183372497559 14.7018518447876 18.94218444824219 9.471101760864258 18.94218444824219 C 4.240351676940918 18.94218444824219 1.9073486328125e-06 14.70183372497559 1.9073486328125e-06 9.471094131469727 C 1.9073486328125e-06 4.240354537963867 4.240351676940918 3.814697265625e-06 9.471101760864258 3.814697265625e-06 Z" stroke="none" fill="#707070"/>
    </g>
    <g id="Trazado_824253" data-name="Trazado 824253" transform="translate(944.694 1020.344)" fill="#707070">
      <path d="M 9.471101760864258 18.44218444824219 C 4.524421691894531 18.44218444824219 0.5000017881393433 14.41777420043945 0.5000017881393433 9.471094131469727 C 0.5000017881393433 4.5244140625 4.524421691894531 0.5000041127204895 9.471101760864258 0.5000041127204895 C 14.41778182983398 0.5000041127204895 18.44220161437988 4.5244140625 18.44220161437988 9.471094131469727 C 18.44220161437988 14.41777420043945 14.41778182983398 18.44218444824219 9.471101760864258 18.44218444824219 Z" stroke="none"/>
      <path d="M 9.471101760864258 1.000003814697266 C 4.800121307373047 1.000003814697266 1.000001907348633 4.800124168395996 1.000001907348633 9.471094131469727 C 1.000001907348633 14.14206409454346 4.800121307373047 17.94218444824219 9.471101760864258 17.94218444824219 C 14.14208221435547 17.94218444824219 17.94220161437988 14.14206409454346 17.94220161437988 9.471094131469727 C 17.94220161437988 4.800124168395996 14.14208221435547 1.000003814697266 9.471101760864258 1.000003814697266 M 9.471101760864258 3.814697265625e-06 C 14.7018518447876 3.814697265625e-06 18.94220161437988 4.240354537963867 18.94220161437988 9.471094131469727 C 18.94220161437988 14.70183372497559 14.7018518447876 18.94218444824219 9.471101760864258 18.94218444824219 C 4.240351676940918 18.94218444824219 1.9073486328125e-06 14.70183372497559 1.9073486328125e-06 9.471094131469727 C 1.9073486328125e-06 4.240354537963867 4.240351676940918 3.814697265625e-06 9.471101760864258 3.814697265625e-06 Z" stroke="none" fill="#707070"/>
    </g>
    <g id="Trazado_824254" data-name="Trazado 824254" transform="translate(840.978 1138.479)" fill="#707070">
      <path d="M 9.471101760864258 18.44218444824219 C 4.524421691894531 18.44218444824219 0.5000017881393433 14.41777420043945 0.5000017881393433 9.471094131469727 C 0.5000017881393433 4.5244140625 4.524421691894531 0.5000041127204895 9.471101760864258 0.5000041127204895 C 14.41778182983398 0.5000041127204895 18.44220161437988 4.5244140625 18.44220161437988 9.471094131469727 C 18.44220161437988 14.41777420043945 14.41778182983398 18.44218444824219 9.471101760864258 18.44218444824219 Z" stroke="none"/>
      <path d="M 9.471101760864258 1.000003814697266 C 4.800121307373047 1.000003814697266 1.000001907348633 4.800124168395996 1.000001907348633 9.471094131469727 C 1.000001907348633 14.14206409454346 4.800121307373047 17.94218444824219 9.471101760864258 17.94218444824219 C 14.14208221435547 17.94218444824219 17.94220161437988 14.14206409454346 17.94220161437988 9.471094131469727 C 17.94220161437988 4.800124168395996 14.14208221435547 1.000003814697266 9.471101760864258 1.000003814697266 M 9.471101760864258 3.814697265625e-06 C 14.7018518447876 3.814697265625e-06 18.94220161437988 4.240354537963867 18.94220161437988 9.471094131469727 C 18.94220161437988 14.70183372497559 14.7018518447876 18.94218444824219 9.471101760864258 18.94218444824219 C 4.240351676940918 18.94218444824219 1.9073486328125e-06 14.70183372497559 1.9073486328125e-06 9.471094131469727 C 1.9073486328125e-06 4.240354537963867 4.240351676940918 3.814697265625e-06 9.471101760864258 3.814697265625e-06 Z" stroke="none" fill="#707070"/>
    </g>
    <path id="Trazado_824202" data-name="Trazado 824202" d="M288.617,0H-2.7" transform="translate(435.931 1074.857)" fill="none" stroke="#707070" stroke-width="3"/>
    <g id="Trazado_824255" data-name="Trazado 824255" transform="translate(719.694 1065.387)" fill="#707070">
      <path d="M 9.471101760864258 18.44218444824219 C 4.524421691894531 18.44218444824219 0.5000017881393433 14.41777420043945 0.5000017881393433 9.471094131469727 C 0.5000017881393433 4.5244140625 4.524421691894531 0.5000041127204895 9.471101760864258 0.5000041127204895 C 14.41778182983398 0.5000041127204895 18.44220161437988 4.5244140625 18.44220161437988 9.471094131469727 C 18.44220161437988 14.41777420043945 14.41778182983398 18.44218444824219 9.471101760864258 18.44218444824219 Z" stroke="none"/>
      <path d="M 9.471101760864258 1.000003814697266 C 4.800121307373047 1.000003814697266 1.000001907348633 4.800124168395996 1.000001907348633 9.471094131469727 C 1.000001907348633 14.14206409454346 4.800121307373047 17.94218444824219 9.471101760864258 17.94218444824219 C 14.14208221435547 17.94218444824219 17.94220161437988 14.14206409454346 17.94220161437988 9.471094131469727 C 17.94220161437988 4.800124168395996 14.14208221435547 1.000003814697266 9.471101760864258 1.000003814697266 M 9.471101760864258 3.814697265625e-06 C 14.7018518447876 3.814697265625e-06 18.94220161437988 4.240354537963867 18.94220161437988 9.471094131469727 C 18.94220161437988 14.70183372497559 14.7018518447876 18.94218444824219 9.471101760864258 18.94218444824219 C 4.240351676940918 18.94218444824219 1.9073486328125e-06 14.70183372497559 1.9073486328125e-06 9.471094131469727 C 1.9073486328125e-06 4.240354537963867 4.240351676940918 3.814697265625e-06 9.471101760864258 3.814697265625e-06 Z" stroke="none" fill="#707070"/>
    </g>
    <path id="Trazado_824203" data-name="Trazado 824203" d="M288.617,0H-2.7" transform="translate(378.113 1012.857)" fill="none" stroke="#707070" stroke-width="3"/>
    <path id="Trazado_824256" data-name="Trazado 824256" d="M8.5,0,17,14H0Z" transform="translate(655.839 1009.378) rotate(-31)" fill="#7a7979"/>
    <path id="Trazado_824257" data-name="Trazado 824257" d="M9.945-3.789A4.025,4.025,0,0,1,8.59-.9,4.76,4.76,0,0,1,5.367.156,4.28,4.28,0,0,1,1.926-1.316,6.038,6.038,0,0,1,.672-5.359v-.7A6.819,6.819,0,0,1,1.25-8.945,4.332,4.332,0,0,1,2.9-10.863a4.629,4.629,0,0,1,2.5-.668A4.637,4.637,0,0,1,8.57-10.477,4.326,4.326,0,0,1,9.961-7.516H7.617A2.376,2.376,0,0,0,7-9.113a2.271,2.271,0,0,0-1.605-.5,1.991,1.991,0,0,0-1.754.84,4.707,4.707,0,0,0-.6,2.605V-5.3a5.038,5.038,0,0,0,.559,2.7,1.954,1.954,0,0,0,1.762.852,2.314,2.314,0,0,0,1.621-.5A2.241,2.241,0,0,0,7.6-3.789Zm7.961,1.445H13.8L13.016,0H10.523l4.234-11.375H16.93L21.188,0H18.7Zm-3.477-1.9h2.844L15.844-8.5Zm10.164.234V0H22.25V-11.375h4.438a5.134,5.134,0,0,1,2.254.469,3.454,3.454,0,0,1,1.5,1.332,3.714,3.714,0,0,1,.523,1.965,3.266,3.266,0,0,1-1.145,2.637,4.767,4.767,0,0,1-3.168.965Zm0-1.9h2.094a2.059,2.059,0,0,0,1.418-.437,1.591,1.591,0,0,0,.488-1.25A1.876,1.876,0,0,0,28.1-8.945a1.839,1.839,0,0,0-1.359-.531H24.594ZM37.6-2.344H33.492L32.711,0H30.219l4.234-11.375h2.172L40.883,0H38.391Zm-3.477-1.9h2.844L35.539-8.5ZM45.93,0V-11.375h3.5a5.315,5.315,0,0,1,2.684.676,4.712,4.712,0,0,1,1.848,1.922,5.928,5.928,0,0,1,.664,2.832v.523a5.945,5.945,0,0,1-.652,2.82,4.672,4.672,0,0,1-1.84,1.914A5.355,5.355,0,0,1,49.453,0Zm2.344-9.477v7.594h1.133a2.545,2.545,0,0,0,2.1-.9,4.06,4.06,0,0,0,.742-2.57v-.6a4.124,4.124,0,0,0-.719-2.629,2.537,2.537,0,0,0-2.1-.895Zm14.9,4.547h-4.5v3.047h5.281V0H56.328V-11.375h7.609v1.9H58.672v2.711h4.5Zm15.484-.5a6.867,6.867,0,0,1-.594,2.945,4.472,4.472,0,0,1-1.7,1.953,4.7,4.7,0,0,1-2.535.688A4.732,4.732,0,0,1,71.3-.523a4.515,4.515,0,0,1-1.719-1.941,6.67,6.67,0,0,1-.617-2.9V-5.93a6.831,6.831,0,0,1,.605-2.957,4.508,4.508,0,0,1,1.711-1.961,4.706,4.706,0,0,1,2.527-.684,4.706,4.706,0,0,1,2.527.684,4.508,4.508,0,0,1,1.711,1.961,6.811,6.811,0,0,1,.605,2.949Zm-2.375-.516a4.787,4.787,0,0,0-.641-2.719,2.088,2.088,0,0,0-1.828-.93,2.088,2.088,0,0,0-1.82.918,4.732,4.732,0,0,0-.648,2.691v.555a4.847,4.847,0,0,0,.641,2.7,2.082,2.082,0,0,0,1.844.961,2.064,2.064,0,0,0,1.813-.926,4.819,4.819,0,0,0,.641-2.7Zm6.383,4.063H88.4V0H79.734V-1.375l5.625-8.1H79.742v-1.9h8.531v1.344ZM99.016-5.43a6.867,6.867,0,0,1-.594,2.945,4.472,4.472,0,0,1-1.7,1.953,4.7,4.7,0,0,1-2.535.688,4.732,4.732,0,0,1-2.523-.68,4.515,4.515,0,0,1-1.719-1.941,6.67,6.67,0,0,1-.617-2.9V-5.93a6.831,6.831,0,0,1,.605-2.957,4.508,4.508,0,0,1,1.711-1.961,4.706,4.706,0,0,1,2.527-.684,4.706,4.706,0,0,1,2.527.684A4.508,4.508,0,0,1,98.41-8.887a6.811,6.811,0,0,1,.605,2.949Zm-2.375-.516A4.787,4.787,0,0,0,96-8.664a2.088,2.088,0,0,0-1.828-.93,2.088,2.088,0,0,0-1.82.918A4.732,4.732,0,0,0,91.7-5.984v.555a4.847,4.847,0,0,0,.641,2.7,2.082,2.082,0,0,0,1.844.961A2.064,2.064,0,0,0,96-2.691a4.819,4.819,0,0,0,.641-2.7ZM109.969,0h-2.344l-4.562-7.484V0h-2.344V-11.375h2.344l4.57,7.5v-7.5h2.336Zm11.391-5.43a6.867,6.867,0,0,1-.594,2.945,4.472,4.472,0,0,1-1.7,1.953,4.7,4.7,0,0,1-2.535.688,4.732,4.732,0,0,1-2.523-.68,4.515,4.515,0,0,1-1.719-1.941,6.67,6.67,0,0,1-.617-2.9V-5.93a6.831,6.831,0,0,1,.605-2.957,4.508,4.508,0,0,1,1.711-1.961,4.706,4.706,0,0,1,2.527-.684,4.706,4.706,0,0,1,2.527.684,4.508,4.508,0,0,1,1.711,1.961,6.811,6.811,0,0,1,.605,2.949Zm-2.375-.516a4.787,4.787,0,0,0-.641-2.719,2.088,2.088,0,0,0-1.828-.93,2.088,2.088,0,0,0-1.82.918,4.732,4.732,0,0,0-.648,2.691v.555a4.847,4.847,0,0,0,.641,2.7,2.082,2.082,0,0,0,1.844.961,2.064,2.064,0,0,0,1.813-.926,4.819,4.819,0,0,0,.641-2.7Z" transform="translate(373 1002.439)" fill="#12263f"/>
  </g>
</svg>
