<svg xmlns="http://www.w3.org/2000/svg" xmlns:xlink="http://www.w3.org/1999/xlink" width="505" height="561.566" viewBox="0 0 505 561.566">
  <defs>
    <linearGradient id="linear-gradient" x1="0.5" x2="0.5" y2="1" gradientUnits="objectBoundingBox">
      <stop offset="0" stop-color="#defff8"/>
      <stop offset="0.803" stop-color="#eaf5ff"/>
      <stop offset="1" stop-color="#f0feff"/>
    </linearGradient>
  </defs>
  <g id="Grupo_1075653" data-name="Grupo 1075653" transform="translate(2052.4 10941.783)">
    <g id="Grupo_1074079" data-name="Grupo 1074079" transform="translate(-2052.4 -10941.783)">
      <rect id="Rectángulo_376022" data-name="Rectángulo 376022" width="505" height="561.567" transform="translate(505 561.567) rotate(180)" fill="url(#linear-gradient)"/>
    </g>
    <g id="Grupo_1075652" data-name="Grupo 1075652" transform="translate(-17.362)">
      <circle id="Elipse_5919" data-name="Elipse 5919" cx="152.767" cy="152.767" r="152.767" transform="translate(-1953.4 -10908.487)" fill="#337b90" opacity="0.62"/>
      <path id="Trazado_824204" data-name="Trazado 824204" d="M124.147,0A124.147,124.147,0,1,1,0,124.147,124.148,124.148,0,0,1,124.147,0Z" transform="translate(-1924.78 -10879.867)" fill="#9edee8" stroke="#fff" stroke-width="5" opacity="0.86"/>
      <circle id="Elipse_5921" data-name="Elipse 5921" cx="101.559" cy="101.559" r="101.559" transform="translate(-1902.191 -10857.278)" fill="#b8e9f4" stroke="#fff" stroke-width="5" opacity="0.74"/>
      <path id="Trazado_823862" data-name="Trazado 823862" d="M275.892,431.939h92.465s3.118-8.852-7.605-12.613c0,0,1.363-5.716-2.34-8.834s-8.969-.778-8.969-.778-2.732-11.917-15.8-12.2-15.6,9.466-15.6,9.466-4.259-6.125-11.707-4.37-8.378,11.133-8.378,11.133a8.252,8.252,0,0,0-11.227-.345c-5.821,4.575-3.785,8.992-3.785,8.992s-7.863.392-7.05,9.554Z" transform="translate(-2055.101 -11120.463)" fill="#fff"/>
      <path id="Trazado_823863" data-name="Trazado 823863" d="M44.008,273.281h71.316s2.4-6.827-5.868-9.729c0,0,1.053-4.405-1.808-6.816s-6.921-.6-6.921-.6a12.625,12.625,0,0,0-12.18-9.407c-10.074-.216-12.034,7.3-12.034,7.3a8.876,8.876,0,0,0-9.027-3.37c-5.745,1.351-6.465,8.582-6.465,8.582a6.37,6.37,0,0,0-8.658-.269c-4.493,3.528-2.919,6.938-2.919,6.938S43.382,266.208,44.008,273.281Z" transform="translate(-1958.88 -11057.892)" fill="#fff"/>
      <path id="Trazado_823864" data-name="Trazado 823864" d="M75.816,403.214h76.639s2.481-9.5-8.307-12.5a8.584,8.584,0,0,0-3.844-7.711c-4.341-2.726-9.548.708-9.548.708s-4.71-7.377-12.274-5.16a10.073,10.073,0,0,0-7.564,9.284s-3.967-2.364-7.442-.626-3.346,6.348-3.346,6.348a7.418,7.418,0,0,0-8.553-4.487c-5.552,1.071-6.008,7.564-6.008,7.564s-8.167-2.358-9.758,6.57Z" transform="translate(-1972.096 -11112.426)" fill="#fff"/>
      <path id="Trazado_823865" data-name="Trazado 823865" d="M347.2,202.364h76.639s2.481-9.5-8.307-12.5a8.585,8.585,0,0,0-3.844-7.711c-4.341-2.726-9.548.708-9.548.708s-4.71-7.377-12.274-5.16a10.073,10.073,0,0,0-7.564,9.284s-3.967-2.364-7.442-.626-3.346,6.348-3.346,6.348a7.418,7.418,0,0,0-8.553-4.487c-5.552,1.065-6.008,7.564-6.008,7.564s-8.167-2.358-9.758,6.57Z" transform="translate(-2100.566 -11006.7)" fill="#fff"/>
      <g id="Grupo_1074084" data-name="Grupo 1074084" transform="translate(-1834.675 -10625.45)">
        <g id="Elipse_5926" data-name="Elipse 5926" fill="#707070" stroke="#707070" stroke-width="3">
          <circle cx="4.567" cy="4.567" r="4.567" stroke="none"/>
          <circle cx="4.567" cy="4.567" r="3.067" fill="none"/>
        </g>
        <line id="Línea_1073" data-name="Línea 1073" y2="102.127" transform="translate(4.567 4.306)" fill="none" stroke="#707070" stroke-width="3"/>
        <text id="MESÓSFERA" transform="translate(9.134 105.182)" fill="#12263f" font-size="16" font-family="Roboto-Bold, Roboto" font-weight="700"><tspan x="0" y="0">MESÓSFERA</tspan></text>
      </g>
      <g id="Grupo_1074083" data-name="Grupo 1074083" transform="translate(-1858.425 -10660.323)">
        <g id="Elipse_5927" data-name="Elipse 5927" fill="#707070" stroke="#707070" stroke-width="3">
          <circle cx="4.567" cy="4.567" r="4.567" stroke="none"/>
          <circle cx="4.567" cy="4.567" r="3.067" fill="none"/>
        </g>
        <line id="Línea_1072" data-name="Línea 1072" y2="178.128" transform="translate(4.567 4.47)" fill="none" stroke="#707070" stroke-width="3"/>
        <text id="ESTRATÓSFERA" transform="translate(12.301 181.262)" fill="#12263f" font-size="16" font-family="Roboto-Bold, Roboto" font-weight="700"><tspan x="0" y="0">ESTRATÓSFERA</tspan></text>
      </g>
      <text id="CAPA_DE_OZONO" data-name="CAPA DE OZONO" transform="translate(-1733.675 -10590.048)" fill="#12263f" font-size="16" font-family="Roboto-Bold, Roboto" font-weight="700"><tspan x="0" y="0">CAPA DE OZONO</tspan></text>
      <g id="Grupo_1074085" data-name="Grupo 1074085" transform="translate(-1879.222 -10703.258)">
        <g id="Elipse_5928" data-name="Elipse 5928" fill="#707070" stroke="#707070" stroke-width="3">
          <circle cx="4.567" cy="4.567" r="4.567" stroke="none"/>
          <circle cx="4.567" cy="4.567" r="3.067" fill="none"/>
        </g>
        <g id="Grupo_1074082" data-name="Grupo 1074082" transform="translate(4.567 2.278)">
          <line id="Línea_1071" data-name="Línea 1071" y2="267.479" fill="none" stroke="#707070" stroke-width="3"/>
          <text id="TROPÓSFERA" transform="translate(3.86 263.002)" fill="#12263f" font-size="16" font-family="Roboto-Bold, Roboto" font-weight="700"><tspan x="0" y="0">TROPÓSFERA</tspan></text>
        </g>
      </g>
      <line id="Línea_1075" data-name="Línea 1075" x2="17" transform="translate(-1760.768 -10596.063)" fill="none" stroke="#707070" stroke-width="3"/>
      <g id="Polígono_11" data-name="Polígono 11" transform="translate(-1739.118 -10600.11) rotate(90)" fill="#707070">
        <path d="M 6.20930290222168 5.041775226593018 L 0.9158309102058411 5.041775226593018 L 3.562566995620728 0.924626886844635 L 6.20930290222168 5.041775226593018 Z" stroke="none"/>
        <path d="M 3.562566995620728 1.849258422851562 L 1.831664562225342 4.541775226593018 L 5.293469429016113 4.541775226593018 L 3.562566995620728 1.849258422851562 M 3.562566995620728 -4.76837158203125e-06 L 7.125136852264404 5.541775226593018 L -2.86102294921875e-06 5.541775226593018 L 3.562566995620728 -4.76837158203125e-06 Z" stroke="none" fill="#707070"/>
      </g>
      <line id="Línea_1076" data-name="Línea 1076" y2="66.5" transform="translate(-1760.768 -10661)" fill="none" stroke="#707070" stroke-width="3"/>
      <circle id="Elipse_5937" data-name="Elipse 5937" cx="82" cy="82" r="82" transform="translate(-1884 -10838)" fill="#fff"/>
      <g id="Grupo_1073945" data-name="Grupo 1073945" transform="translate(-1879.074 -10834.909)">
        <g id="Grupo_1073940" data-name="Grupo 1073940" transform="translate(0 2.104)">
          <g id="Grupo_1073932" data-name="Grupo 1073932">
            <circle id="Elipse_5922" data-name="Elipse 5922" cx="77.341" cy="77.341" r="77.341" transform="translate(0 0.006)" fill="#55c3f2"/>
            <path id="Trazado_823837" data-name="Trazado 823837" d="M182.571,209.746a77.345,77.345,0,0,0-77.341,76.979,24.286,24.286,0,0,0,6.131,2.018,23.857,23.857,0,0,0,17.358-4.288c11.309-8,14.433-28.082,29.837-29.644,14.041-1.363,22.231,9.361,34.909,12.871a12.881,12.881,0,0,0,15.211-7.605c2.147-5.657.392-11.894,1.562-17.551,2.451-11.806,12.859-14.444,22.974-13.9a77.029,77.029,0,0,0-50.641-18.885Z" transform="translate(-105.23 -209.74)" fill="#5de2f9"/>
            <path id="Trazado_823838" data-name="Trazado 823838" d="M263.7,371.068a24.206,24.206,0,0,0-5.213-.772,43.628,43.628,0,0,0-17.358,3.118c-7.412,3.317-12.479,9.753-18.329,15.018-10.923,9.361-22.038,7.213-34.909,3.51-13.456-4.1-26.52-9.167-40.56-10.338-9.308-.761-20.646.9-28.257,6.576A77.367,77.367,0,0,0,263.7,371.062Z" transform="translate(-110.973 -276.357)" fill="#5de2f9"/>
          </g>
          <g id="Grupo_1073935" data-name="Grupo 1073935" transform="translate(66.229 65.702)">
            <g id="Grupo_1073933" data-name="Grupo 1073933">
              <path id="Trazado_823839" data-name="Trazado 823839" d="M226.241,323.218a2.281,2.281,0,0,0,2.428,1.246,3.947,3.947,0,0,0,2.317-1.685l-.462.058a4.623,4.623,0,0,0,2.615,1.48c1.123.059,1.749-.989,2.118-1.9l-.532.07a3.576,3.576,0,0,0,2.592,2.03,2.273,2.273,0,0,0,2.334-1.954l-.491.129a4.557,4.557,0,0,0,2.545,1.258,3.8,3.8,0,0,0,2.545-1.112c.293-.24-.123-.649-.415-.415a3.233,3.233,0,0,1-2.135.936,3.917,3.917,0,0,1-2.135-1.082.3.3,0,0,0-.491.129c-.24.866-.813,1.7-1.825,1.515a3.123,3.123,0,0,1-2.03-1.732.294.294,0,0,0-.532.07c-.287.714-.778,1.6-1.679,1.457a4.5,4.5,0,0,1-2.071-1.293.3.3,0,0,0-.462.059,3.438,3.438,0,0,1-1.814,1.381,1.684,1.684,0,0,1-1.925-.942.291.291,0,0,0-.5.293h0Z" transform="translate(-221.652 -322.044)" fill="#fff"/>
              <path id="Trazado_823840" data-name="Trazado 823840" d="M218.491,329.188a2.281,2.281,0,0,0,2.428,1.246,3.947,3.947,0,0,0,2.317-1.685l-.462.059a4.623,4.623,0,0,0,2.615,1.48c1.123.059,1.749-.989,2.118-1.9l-.532.07a3.576,3.576,0,0,0,2.592,2.03,2.273,2.273,0,0,0,2.334-1.954l-.491.129a4.557,4.557,0,0,0,2.545,1.258,3.8,3.8,0,0,0,2.545-1.112c.293-.24-.123-.649-.415-.415a3.234,3.234,0,0,1-2.135.936,3.917,3.917,0,0,1-2.135-1.082.3.3,0,0,0-.491.129c-.24.866-.813,1.7-1.825,1.515a3.123,3.123,0,0,1-2.03-1.732.294.294,0,0,0-.532.07c-.287.714-.778,1.6-1.679,1.457a4.5,4.5,0,0,1-2.071-1.293.3.3,0,0,0-.462.059,3.438,3.438,0,0,1-1.814,1.381,1.684,1.684,0,0,1-1.925-.942.291.291,0,0,0-.5.293h0Z" transform="translate(-218.436 -324.521)" fill="#fff"/>
            </g>
            <g id="Grupo_1073934" data-name="Grupo 1073934" transform="translate(24.495 30.621)">
              <path id="Trazado_823841" data-name="Trazado 823841" d="M268.111,375.558a2.281,2.281,0,0,0,2.428,1.246,3.947,3.947,0,0,0,2.317-1.685l-.462.059a4.623,4.623,0,0,0,2.615,1.48c1.123.058,1.749-.989,2.118-1.9l-.532.07a3.576,3.576,0,0,0,2.592,2.03,2.273,2.273,0,0,0,2.334-1.954l-.491.129a4.557,4.557,0,0,0,2.545,1.258,3.8,3.8,0,0,0,2.545-1.112c.292-.24-.123-.649-.415-.415a3.233,3.233,0,0,1-2.135.936,3.917,3.917,0,0,1-2.135-1.082.3.3,0,0,0-.491.129c-.24.866-.813,1.7-1.825,1.515a3.122,3.122,0,0,1-2.03-1.732.294.294,0,0,0-.532.07c-.287.714-.778,1.6-1.679,1.457a4.5,4.5,0,0,1-2.071-1.293.3.3,0,0,0-.462.059,3.439,3.439,0,0,1-1.814,1.381,1.684,1.684,0,0,1-1.925-.942.291.291,0,0,0-.5.293h0Z" transform="translate(-263.522 -374.384)" fill="#fff"/>
              <path id="Trazado_823842" data-name="Trazado 823842" d="M260.361,381.528a2.281,2.281,0,0,0,2.428,1.246,3.947,3.947,0,0,0,2.317-1.685l-.462.059a4.623,4.623,0,0,0,2.615,1.48c1.123.058,1.749-.989,2.118-1.9l-.532.07a3.576,3.576,0,0,0,2.592,2.03,2.273,2.273,0,0,0,2.334-1.954l-.491.129a4.557,4.557,0,0,0,2.545,1.258,3.8,3.8,0,0,0,2.545-1.112c.293-.24-.123-.649-.415-.415a3.234,3.234,0,0,1-2.135.936,3.917,3.917,0,0,1-2.135-1.082.3.3,0,0,0-.491.129c-.24.866-.813,1.7-1.825,1.515a3.122,3.122,0,0,1-2.03-1.732.294.294,0,0,0-.532.07c-.287.714-.778,1.6-1.679,1.457a4.5,4.5,0,0,1-2.071-1.293.3.3,0,0,0-.462.059,3.439,3.439,0,0,1-1.814,1.381,1.684,1.684,0,0,1-1.925-.942.291.291,0,0,0-.5.293h0Z" transform="translate(-260.306 -376.861)" fill="#fff"/>
            </g>
          </g>
          <g id="Grupo_1073939" data-name="Grupo 1073939" transform="translate(3.094 29.231)">
            <g id="Grupo_1073936" data-name="Grupo 1073936" transform="translate(62.164)">
              <path id="Trazado_823843" data-name="Trazado 823843" d="M224.581,260.878a2.281,2.281,0,0,0,2.428,1.246,3.947,3.947,0,0,0,2.317-1.685l-.462.059a4.623,4.623,0,0,0,2.615,1.48c1.123.059,1.749-.989,2.118-1.9l-.532.07a3.576,3.576,0,0,0,2.592,2.03,2.273,2.273,0,0,0,2.334-1.954l-.491.129a4.557,4.557,0,0,0,2.545,1.258,3.8,3.8,0,0,0,2.545-1.112c.293-.24-.123-.649-.415-.415a3.233,3.233,0,0,1-2.135.936,3.917,3.917,0,0,1-2.135-1.082.3.3,0,0,0-.491.129c-.24.866-.813,1.7-1.825,1.515a3.122,3.122,0,0,1-2.03-1.732.294.294,0,0,0-.532.07c-.287.714-.778,1.6-1.679,1.457a4.5,4.5,0,0,1-2.071-1.293.3.3,0,0,0-.462.059A3.438,3.438,0,0,1,227,261.521a1.684,1.684,0,0,1-1.925-.942.291.291,0,0,0-.5.293h0Z" transform="translate(-219.992 -259.704)" fill="#fff"/>
              <path id="Trazado_823844" data-name="Trazado 823844" d="M216.831,266.838a2.281,2.281,0,0,0,2.428,1.246,3.947,3.947,0,0,0,2.317-1.685l-.462.058a4.623,4.623,0,0,0,2.615,1.48c1.123.058,1.749-.989,2.118-1.9l-.532.07a3.576,3.576,0,0,0,2.592,2.03,2.273,2.273,0,0,0,2.334-1.954l-.491.129a4.557,4.557,0,0,0,2.545,1.258,3.8,3.8,0,0,0,2.545-1.112c.293-.24-.123-.649-.415-.415a3.234,3.234,0,0,1-2.135.936,3.917,3.917,0,0,1-2.135-1.082.3.3,0,0,0-.491.129c-.24.866-.813,1.7-1.825,1.515a3.123,3.123,0,0,1-2.03-1.732.294.294,0,0,0-.532.07c-.287.714-.778,1.6-1.679,1.457a4.5,4.5,0,0,1-2.071-1.293.3.3,0,0,0-.462.059,3.438,3.438,0,0,1-1.814,1.381,1.684,1.684,0,0,1-1.925-.942.291.291,0,0,0-.5.293h0Z" transform="translate(-216.776 -262.177)" fill="#fff"/>
            </g>
            <g id="Grupo_1073937" data-name="Grupo 1073937" transform="translate(56.63 96.583)">
              <path id="Trazado_823845" data-name="Trazado 823845" d="M215.121,425.968a2.281,2.281,0,0,0,2.428,1.246,3.947,3.947,0,0,0,2.317-1.685l-.462.059a4.623,4.623,0,0,0,2.615,1.48c1.123.059,1.749-.989,2.118-1.9l-.532.07a3.576,3.576,0,0,0,2.592,2.03,2.273,2.273,0,0,0,2.334-1.954l-.491.129a4.557,4.557,0,0,0,2.545,1.258,3.8,3.8,0,0,0,2.545-1.112c.293-.24-.123-.649-.415-.415a3.234,3.234,0,0,1-2.135.936,3.917,3.917,0,0,1-2.135-1.082.3.3,0,0,0-.491.129c-.24.866-.813,1.7-1.825,1.515a3.122,3.122,0,0,1-2.03-1.732.294.294,0,0,0-.532.07c-.287.714-.778,1.6-1.679,1.457a4.5,4.5,0,0,1-2.071-1.293.3.3,0,0,0-.462.059,3.439,3.439,0,0,1-1.814,1.381,1.684,1.684,0,0,1-1.925-.942.291.291,0,0,0-.5.293h0Z" transform="translate(-210.532 -424.794)" fill="#fff"/>
              <path id="Trazado_823846" data-name="Trazado 823846" d="M207.371,431.938a2.281,2.281,0,0,0,2.428,1.246,3.947,3.947,0,0,0,2.317-1.685l-.462.059a4.623,4.623,0,0,0,2.615,1.48c1.123.059,1.749-.989,2.118-1.9l-.532.07a3.576,3.576,0,0,0,2.592,2.03,2.273,2.273,0,0,0,2.334-1.954l-.491.129a4.558,4.558,0,0,0,2.545,1.258,3.8,3.8,0,0,0,2.545-1.112c.293-.24-.123-.649-.415-.415a3.234,3.234,0,0,1-2.135.936A3.917,3.917,0,0,1,220.692,431a.3.3,0,0,0-.491.129c-.24.866-.813,1.7-1.825,1.515a3.123,3.123,0,0,1-2.03-1.732.294.294,0,0,0-.532.07c-.287.714-.778,1.6-1.679,1.457a4.5,4.5,0,0,1-2.071-1.293.3.3,0,0,0-.462.058,3.438,3.438,0,0,1-1.814,1.381,1.684,1.684,0,0,1-1.925-.942.291.291,0,0,0-.5.293h0Z" transform="translate(-207.316 -427.271)" fill="#fff"/>
            </g>
            <g id="Grupo_1073938" data-name="Grupo 1073938" transform="translate(0 32.984)">
              <path id="Trazado_823847" data-name="Trazado 823847" d="M118.36,316.877a4.623,4.623,0,0,0,2.615,1.48c1.123.058,1.749-.989,2.118-1.9l-.532.07a3.576,3.576,0,0,0,2.592,2.03,2.273,2.273,0,0,0,2.334-1.954l-.491.129a4.557,4.557,0,0,0,2.545,1.258,3.8,3.8,0,0,0,2.545-1.112c.293-.24-.123-.649-.415-.415a3.234,3.234,0,0,1-2.135.936,3.917,3.917,0,0,1-2.135-1.082.3.3,0,0,0-.491.129c-.24.866-.813,1.7-1.825,1.515a3.123,3.123,0,0,1-2.03-1.732.294.294,0,0,0-.532.07c-.287.714-.778,1.6-1.679,1.457a4.5,4.5,0,0,1-2.071-1.293c-.281-.252-.7.158-.415.415h0Z" transform="translate(-113.731 -316.084)" fill="#fff"/>
              <path id="Trazado_823848" data-name="Trazado 823848" d="M110.566,322.484a3.576,3.576,0,0,0,2.592,2.03,2.273,2.273,0,0,0,2.334-1.954l-.491.129a4.557,4.557,0,0,0,2.545,1.258,3.8,3.8,0,0,0,2.545-1.112c.293-.24-.123-.649-.415-.415a3.234,3.234,0,0,1-2.135.936,3.917,3.917,0,0,1-2.135-1.082.3.3,0,0,0-.491.129c-.24.866-.813,1.7-1.825,1.515a3.122,3.122,0,0,1-2.03-1.732c-.17-.333-.679-.041-.5.293h0Z" transform="translate(-110.518 -318.555)" fill="#fff"/>
            </g>
          </g>
        </g>
        <g id="Grupo_1073941" data-name="Grupo 1073941" transform="translate(86.476 0.764)">
          <path id="Trazado_823849" data-name="Trazado 823849" d="M269.827,212.626l-.971-1.942c-.076-.222-.14-.369-.2-.4a112.108,112.108,0,0,0-13.064-2.826s-1.948,2.147-2.147,4,.977,3.51,0,4.68c-.515.62-.462,1.919-.152,3.118h0a5.184,5.184,0,0,0,1.188,2.41,4.972,4.972,0,0,0,1.2,2.369,4.721,4.721,0,0,0,4.692,0c1.463-.878,4.68-3.218,5.85-3.411s3.61-.684,4.288-1.463-.293-6.336-.684-6.535Z" transform="translate(-253.051 -207.454)" fill="#054986"/>
          <path id="Trazado_823850" data-name="Trazado 823850" d="M255.581,207.45s-1.948,2.147-2.147,4,.977,3.51,0,4.68.076,4.78,1.059,5.558a4.721,4.721,0,0,0,4.692,0c1.463-.878,4.68-3.218,5.85-3.411s3.61-.684,4.288-1.463-.293-6.336-.685-6.535a112.115,112.115,0,0,0-13.064-2.826Z" transform="translate(-253.045 -207.45)" fill="#89da62"/>
        </g>
        <g id="Grupo_1073942" data-name="Grupo 1073942" transform="translate(15.517)">
          <path id="Trazado_823851" data-name="Trazado 823851" d="M135.876,234.6s7.752-11.847,26.034-18.867,35.833-5.558,37.442-5.265c0,0,0,3.51-2.048,4.973s-4.1,3.218-5.558,2.048-4.973-1.316-7.02-.585-3.364,6.839-1.17,5.47,5.265-3.276,6.728-2.691a5.865,5.865,0,0,1,3.294,4.388c.07,1.755-.222,8.775-3.147,8.044s-7.9,2.925-10.969,2.486-10.238.878-12.578,3.218-7.605,9.068-9.214,9.214-2.486-5.85-4.68-7.02-5.7-1.024-7.459-.585-4.827,4.973-4.388,7.02,4.973,5.265,4.388,6.582-2.486,3.51-2.194,4.534,1.463,5.7,2.048,7.313,2.34,3.656,3.656,2.925,5.265-2.194,6.728-1.17,13.895,7.605,16.527,10.969,3.8,11.841,4.973,11.993,5.85,4.241,7.459,4.973,6.582,3.949,6.582,5.85-.731,8.19-3.071,10.238-6.874,2.925-7.605,4.241-1.316,3.8-3.51,3.51-8.044,1.17-10.384,3.51-9.8,11.408-11.408,13.456-.731,5.265-.878,6.582-.731,4.388-2.633,4.388-6.435-6-6.728-8.483.878-33.786.878-35.98-5.7-6-6.143-8.19.293-10.092.585-12.139,3.8-6.728,3.949-8.337-3.949-2.633-4.388-5.412-1.024-11.116-2.34-12.578-6.289-6.143-5.85-8.337,3.92-5.043,4.1-7.02S135.332,235.363,135.876,234.6Z" transform="translate(-131.753 -207.804)" fill="#054986"/>
          <path id="Trazado_823852" data-name="Trazado 823852" d="M135.876,230.6s7.752-11.847,26.034-18.867,35.833-5.558,37.442-5.265c0,0,0,3.51-2.048,4.973s-4.1,3.218-5.558,2.048-4.973-1.316-7.02-.585-3.364,6.839-1.17,5.47,5.265-3.276,6.728-2.691a5.865,5.865,0,0,1,3.294,4.388c.07,1.755-.222,8.775-3.147,8.044s-7.9,2.925-10.969,2.486-10.238.878-12.578,3.218-7.605,9.068-9.214,9.214-2.486-5.85-4.68-7.02-5.7-1.024-7.459-.585-4.827,4.973-4.388,7.02,4.973,5.265,4.388,6.582-2.486,3.51-2.194,4.534,1.463,5.7,2.048,7.313,2.34,3.656,3.656,2.925,5.265-2.194,6.728-1.17,13.895,7.605,16.527,10.969,3.8,11.841,4.973,11.993,5.85,4.241,7.459,4.973,6.582,3.949,6.582,5.85-.731,8.19-3.071,10.238-6.874,2.925-7.605,4.241-1.316,3.8-3.51,3.51-8.044,1.17-10.384,3.51-9.8,11.408-11.408,13.456-.731,5.265-.878,6.582-.731,4.388-2.633,4.388-6.435-6-6.728-8.483.878-33.786.878-35.98-5.7-6-6.143-8.191.293-10.092.585-12.139,3.8-6.728,3.949-8.337-3.949-2.633-4.388-5.412-1.024-11.116-2.34-12.578-6.289-6.143-5.85-8.337,3.92-5.043,4.1-7.02S135.332,231.363,135.876,230.6Z" transform="translate(-131.753 -206.144)" fill="#89da62"/>
          <path id="Trazado_823853" data-name="Trazado 823853" d="M175.7,297.273c-.831-2.779-1.872-6.494-3.411-8.46-2.633-3.364-15.065-9.946-16.527-10.969s-5.412.439-6.728,1.17-3.071-1.316-3.656-2.925-1.755-6.289-2.048-7.313,1.609-3.218,2.194-4.534-3.949-4.534-4.388-6.582,2.633-6.582,4.388-7.02,5.265-.585,7.459.585,3.071,7.167,4.68,7.02,6.874-6.874,9.214-9.214a7.615,7.615,0,0,1,2.241-1.422,36.044,36.044,0,0,0-20.23-4.721c-3.51.293-6.728,1.463-10.531,1.463a12.926,12.926,0,0,1-1.334-.076c-.778.965-1.153,1.539-1.153,1.539-.544.761.176,3.288,0,5.265s-3.656,4.827-4.1,7.02,4.534,6.874,5.85,8.337,1.9,9.8,2.34,12.578,4.534,3.8,4.388,5.412-3.656,6.289-3.949,8.337-1.024,9.946-.585,12.139c.4,1.989,5.119,5.3,6,7.535,3.645-1.48,7.407-2.761,11.256-4.61C162.91,305.042,171.586,302.474,175.7,297.273Z" transform="translate(-131.753 -221.35)" fill="#afe26f"/>
        </g>
        <g id="Grupo_1073943" data-name="Grupo 1073943" transform="translate(104.342 10.224)">
          <path id="Trazado_823854" data-name="Trazado 823854" d="M296.92,227.62s-1.463,4.581-.977,6.628a15.3,15.3,0,0,0,3.411,6.143c1.463,1.562,5.166,5.365,4.973,6.827s-.585,6.535-.878,7.506-3.7,1.463-4.195,1.071-4.288-1.363-4.873-.684.293,6.535.684,7.605,5.558,1.463,6.921,1.17,3.51-3.61,4.78-3.61,3.9,1.562,5.072,2.925,2.533,3.025,7.12,4.195a10.428,10.428,0,0,1,7.02,6.242c.193.977-.977,1.463-3.118.585s-8-3.411-9.753-3.7-4-2.826-6.043-3.7-7.412-.392-8.969.392-10.431,9.946-10.923,10.63.293,7.132,0,7.664-4.195,8.331-3.51,10.086,4.68,4.973,6.143,6.242,7.7-.778,9.554,0a73.857,73.857,0,0,1,7.313,3.51c.977.684.685,13.555-1.071,19.207s-7.506,13.848-8.383,15.4a16.079,16.079,0,0,0-1.656,6.143c.1,1.17.977,4.487.778,5.072a13.323,13.323,0,0,0,.193,4.78c.392.778,5.265.1,6.336,0s5.365-6.043,6.242-8.19a25.365,25.365,0,0,1,6.242-7.506c1.463-.878,6.043-1.755,7.412-2.633s19.792-26.754,11.993-58.6c-9.361-38.22-37.834-51.383-37.834-51.383Z" transform="translate(-283.583 -225.28)" fill="#054986"/>
          <path id="Trazado_823855" data-name="Trazado 823855" d="M306.767,253.844c.193-.977-4.195-8.776-7.12-9.753-.889-.3-2.4,1.088-3.487,2.551h0c-.831,1.123-1.422,2.3-1.293,2.808v1.439a.815.815,0,0,0,0,.316c.293,1.17,3.7,1.071,4.288,2.147s1.17,4.487,2.826,4.581,4.581-1.363,4.78-2.34a1.2,1.2,0,0,0,0-.146v-1.609Z" transform="translate(-288.258 -232.098)" fill="#054986"/>
          <path id="Trazado_823856" data-name="Trazado 823856" d="M296.92,223.62s-1.463,4.581-.977,6.628a15.3,15.3,0,0,0,3.411,6.143c1.463,1.562,5.166,5.365,4.973,6.827s-.585,6.535-.878,7.506-3.7,1.463-4.195,1.071-4.288-1.363-4.873-.685.293,6.535.684,7.605,5.558,1.463,6.921,1.17,3.51-3.61,4.78-3.61,3.9,1.562,5.072,2.925,2.533,3.025,7.12,4.195a10.428,10.428,0,0,1,7.02,6.242c.193.977-.977,1.463-3.118.585s-8-3.411-9.753-3.7-4-2.826-6.043-3.7-7.412-.392-8.969.392-10.431,9.946-10.923,10.63.293,7.132,0,7.664-4.195,8.331-3.51,10.086,4.68,4.973,6.143,6.242,7.7-.778,9.554,0a73.892,73.892,0,0,1,7.313,3.51c.977.685.685,13.555-1.071,19.207s-7.506,13.848-8.383,15.4a16.079,16.079,0,0,0-1.656,6.143c.1,1.17.977,4.487.778,5.072a13.323,13.323,0,0,0,.193,4.78c.392.778,5.265.1,6.336,0s5.365-6.043,6.242-8.19a25.364,25.364,0,0,1,6.242-7.506c1.463-.878,8.384-1.755,9.753-2.633s17.452-26.754,9.653-58.6c-9.361-38.22-37.834-51.383-37.834-51.383Z" transform="translate(-283.583 -223.62)" fill="#89da62"/>
          <path id="Trazado_823857" data-name="Trazado 823857" d="M299.647,244.091c-1.574-.527-5.072,4.195-4.78,5.365s3.7,1.071,4.288,2.147,1.17,4.487,2.826,4.581,4.581-1.363,4.78-2.34-4.195-8.775-7.12-9.752Z" transform="translate(-288.258 -232.098)" fill="#89da62"/>
          <path id="Trazado_823858" data-name="Trazado 823858" d="M334.758,288.129a84.05,84.05,0,0,0-15.942-32.879c-2.867,4.247-5.646,9.554-10.092,11.525-4.429,1.72-9.676.556-14.368,1.006a25.962,25.962,0,0,0,.72,4.066c.392,1.071,5.558,1.463,6.921,1.17s3.51-3.61,4.78-3.61,3.9,1.562,5.072,2.925,2.533,3.025,7.12,4.195a10.413,10.413,0,0,1,7.02,6.242c.193.977-.977,1.463-3.118.585s-8-3.411-9.753-3.7-4-2.826-6.043-3.7-7.412-.392-8.969.392-10.431,9.946-10.923,10.63.293,7.132,0,7.664-4.195,8.331-3.51,10.086,4.68,4.973,6.143,6.242,7.7-.778,9.554,0a73.882,73.882,0,0,1,7.313,3.51c.4.275.585,2.574.55,5.575a69.286,69.286,0,0,0,9.1-4.113,54.577,54.577,0,0,1,17.844-5.265c.86-.059,1.714-.17,2.574-.3a74.39,74.39,0,0,0-1.989-22.225Z" transform="translate(-283.587 -236.745)" fill="#afe26f"/>
        </g>
        <g id="Grupo_1073944" data-name="Grupo 1073944" transform="translate(31.293 139.243)">
          <path id="Trazado_823859" data-name="Trazado 823859" d="M214.684,455.788c-1.755-.433-7.02-.93-8.775-.445a13.5,13.5,0,0,1-6.827,0c-1.855-.685-6.628-3.51-9.946-4.195s-9.361-.878-10.238-1.17-1.363-3.51-1.755-4.569-2.048-.7-3.7-1.182-4.1,1.562-5.458,1.849-2.44-.486-4.581-.585a11.424,11.424,0,0,0-4.68,1.17v1.755s10.3,9.659,28.275,13.163a98.114,98.114,0,0,0,33.639.486V460.31s-4.195-4.1-5.95-4.528Z" transform="translate(-158.72 -444.153)" fill="#054986"/>
          <path id="Trazado_823860" data-name="Trazado 823860" d="M158.72,449.67a11.423,11.423,0,0,1,4.68-1.17c2.147.1,3.218.872,4.581.585s3.8-2.34,5.458-1.849,3.317.123,3.7,1.182.878,4.277,1.755,4.569,6.921.486,10.238,1.17,8.091,3.51,9.946,4.195a13.5,13.5,0,0,0,6.827,0c1.755-.486,7.02.006,8.775.445s5.95,4.528,5.95,4.528a98.113,98.113,0,0,1-33.639-.486c-17.984-3.5-28.275-13.163-28.275-13.163Z" transform="translate(-158.72 -445.401)" fill="#89da62"/>
          <path id="Trazado_823861" data-name="Trazado 823861" d="M201.416,458.668a46.534,46.534,0,0,0-4.99-.638,23.6,23.6,0,0,0-8.126,6.184,66.553,66.553,0,0,0,10.975,3.136,98.113,98.113,0,0,0,33.639.486s-4.195-4.1-5.95-4.528-7.02-.93-8.775-.445a13.5,13.5,0,0,1-6.827,0C209.507,462.178,204.734,459.352,201.416,458.668Z" transform="translate(-170.995 -449.912)" fill="#afe26f"/>
        </g>
      </g>
      <g id="Polígono_13" data-name="Polígono 13" transform="translate(-1764.331 -10663.094)" fill="#707070">
        <path d="M 6.20930290222168 5.041775226593018 L 0.9158309102058411 5.041775226593018 L 3.562566995620728 0.924626886844635 L 6.20930290222168 5.041775226593018 Z" stroke="none"/>
        <path d="M 3.562566995620728 1.849258422851562 L 1.831664562225342 4.541775226593018 L 5.293469429016113 4.541775226593018 L 3.562566995620728 1.849258422851562 M 3.562566995620728 -4.76837158203125e-06 L 7.125136852264404 5.541775226593018 L -2.86102294921875e-06 5.541775226593018 L 3.562566995620728 -4.76837158203125e-06 Z" stroke="none" fill="#707070"/>
      </g>
      <text id="TIERRA" transform="translate(-1802 -10553.639)" fill="#12263f" font-size="16" font-family="Roboto-Bold, Roboto" font-weight="700"><tspan x="0" y="0">TIERRA</tspan></text>
      <g id="Elipse_5938" data-name="Elipse 5938" transform="translate(-1813.87 -10690.087)" fill="#707070" stroke="#707070" stroke-width="3">
        <circle cx="4.567" cy="4.567" r="4.567" stroke="none"/>
        <circle cx="4.567" cy="4.567" r="3.067" fill="none"/>
      </g>
      <path id="Trazado_824205" data-name="Trazado 824205" d="M0,0V131.781" transform="translate(-1809.303 -10685.781)" fill="none" stroke="#707070" stroke-width="3"/>
    </g>
  </g>
</svg>
