<svg id="CONTAMINACION_2" data-name="CONTAMINACION 2" xmlns="http://www.w3.org/2000/svg" width="188.348" height="286.926" viewBox="0 0 188.348 286.926">
  <path id="Trazado_823867" data-name="Trazado 823867" d="M0,329.789c.493,0,.978.017,1.472.017A129.122,129.122,0,0,0,97.457,287.22H0v42.561Z" transform="translate(0 -42.88)" fill="#aaabb0"/>
  <path id="Trazado_823868" data-name="Trazado 823868" d="M.44,279.379H97.225a129.315,129.315,0,0,0,28.507-51.229H.44Z" transform="translate(-0.066 -34.062)" fill="#c8c7c7"/>
  <path id="Trazado_823869" data-name="Trazado 823869" d="M151.241,126.086a4.165,4.165,0,0,0-1.387.238,8.143,8.143,0,0,0-16.257-.119,3.266,3.266,0,0,0-2.578,3.19,3.383,3.383,0,0,0,.2,1.14h24.169c0-.094.017-.187.017-.281A4.164,4.164,0,0,0,151.241,126.086Z" transform="translate(-19.561 -17.706)" fill="#c8c7c7"/>
  <g id="Grupo_1074089" data-name="Grupo 1074089" transform="translate(18.818 117.635)">
    <rect id="Rectángulo_378224" data-name="Rectángulo 378224" width="45.632" height="55.321" transform="translate(0.272)" fill="#615654"/>
    <rect id="Rectángulo_378225" data-name="Rectángulo 378225" width="45.632" height="2.807" transform="translate(0.272 19.898)" fill="#d9cbca"/>
    <rect id="Rectángulo_378226" data-name="Rectángulo 378226" width="45.632" height="9.63" transform="translate(0.272 30.26)" fill="#d9cbca"/>
    <g id="Grupo_1074088" data-name="Grupo 1074088" transform="translate(0 29.868)">
      <path id="Trazado_823870" data-name="Trazado 823870" d="M60.89,183.675h5.623V173.39H60.89Zm.544-9.749h4.543v9.213H61.434v-9.213Z" transform="translate(-27.908 -173.39)" fill="#615654"/>
      <path id="Trazado_823871" data-name="Trazado 823871" d="M48.94,183.675h5.623V173.39H48.94Zm.544-9.749h4.543v9.213H49.484Z" transform="translate(-26.124 -173.39)" fill="#615654"/>
      <path id="Trazado_823872" data-name="Trazado 823872" d="M72.83,183.675h3.029V173.39H72.83Zm.544-9.749h1.948v9.213H73.374Z" transform="translate(-29.691 -173.39)" fill="#615654"/>
      <path id="Trazado_823873" data-name="Trazado 823873" d="M66.86,183.675h5.623V173.39H66.86Zm.544-9.749h4.543v9.213H67.4Z" transform="translate(-28.799 -173.39)" fill="#615654"/>
      <path id="Trazado_823874" data-name="Trazado 823874" d="M54.91,183.675h5.623V173.39H54.91Zm.544-9.749H60v9.213H55.454Z" transform="translate(-27.015 -173.39)" fill="#615654"/>
      <path id="Trazado_823875" data-name="Trazado 823875" d="M22.12,183.675h3.029V173.39H22.12Zm.544-9.749h1.948v9.213H22.664Z" transform="translate(-22.12 -173.39)" fill="#615654"/>
      <path id="Trazado_823876" data-name="Trazado 823876" d="M25.05,183.675h5.623V173.39H25.05Zm.544-9.749h4.543v9.213H25.594Z" transform="translate(-22.557 -173.39)" fill="#615654"/>
      <path id="Trazado_823877" data-name="Trazado 823877" d="M31.02,183.675h5.623V173.39H31.02Zm.544-9.749h4.543v9.213H31.564Z" transform="translate(-23.449 -173.39)" fill="#615654"/>
      <path id="Trazado_823878" data-name="Trazado 823878" d="M42.97,183.675h5.623V173.39H42.97Zm.544-9.749h4.543v9.213H43.514Z" transform="translate(-25.233 -173.39)" fill="#615654"/>
      <path id="Trazado_823879" data-name="Trazado 823879" d="M36.99,183.675h5.623V173.39H36.99Zm.544-9.749h4.543v9.213H37.534Z" transform="translate(-24.34 -173.39)" fill="#615654"/>
    </g>
  </g>
  <g id="Grupo_1074091" data-name="Grupo 1074091" transform="translate(32.531 86.398)">
    <path id="Trazado_823880" data-name="Trazado 823880" d="M42.111,101.56,38.24,187.949l14.351.17-1.838-86.457Z" transform="translate(-38.24 -101.56)" fill="#a3a1a1"/>
    <path id="Trazado_823881" data-name="Trazado 823881" d="M38.24,188.049l7.171.085,1.021-86.423-4.322-.051Z" transform="translate(-38.24 -101.575)" fill="#757474"/>
    <g id="Grupo_1074090" data-name="Grupo 1074090" transform="translate(2.127 20.842)">
      <path id="Trazado_823882" data-name="Trazado 823882" d="M46.671,126.12l-4.951-.06-.23,5.019,5.121.06,5.121.06-.1-5.019Z" transform="translate(-40.852 -126.06)" fill="#edecec"/>
      <path id="Trazado_823883" data-name="Trazado 823883" d="M46.423,139.91l-5.351-.06-.332,7.333,5.6.06,5.589.068-.153-7.333Z" transform="translate(-40.74 -128.119)" fill="#edecec"/>
    </g>
  </g>
  <path id="Trazado_823884" data-name="Trazado 823884" d="M27.08,44.352a5.6,5.6,0,0,0-2.986.868V45.2h0A7.526,7.526,0,0,0,13.1,39.741,15.588,15.588,0,0,0,.53,30.86V52.17H21.449c.111-.094.221-.179.323-.272.034.094.077.187.111.272h10.4a5.647,5.647,0,0,0-5.206-7.818Z" transform="translate(-0.079 -4.607)" fill="#95969c"/>
  <g id="Grupo_1074097" data-name="Grupo 1074097" transform="translate(97.423 124.033)">
    <g id="Grupo_1074092" data-name="Grupo 1074092" transform="translate(2.161 1.021)">
      <rect id="Rectángulo_378227" data-name="Rectángulo 378227" width="51.519" height="47.801" fill="#747176"/>
      <rect id="Rectángulo_378228" data-name="Rectángulo 378228" width="12.812" height="47.801" transform="translate(38.741 0.102)" fill="#a3a1a1"/>
    </g>
    <path id="Trazado_823885" data-name="Trazado 823885" d="M169.254,145.8H115.541a1.021,1.021,0,1,0,0,2.042h53.714a1.021,1.021,0,1,0,0-2.042Z" transform="translate(-114.52 -145.8)" fill="#525151"/>
    <g id="Grupo_1074096" data-name="Grupo 1074096" transform="translate(5.751 10.268)">
      <g id="Grupo_1074093" data-name="Grupo 1074093">
        <rect id="Rectángulo_378229" data-name="Rectángulo 378229" width="3.224" height="4.789" transform="translate(41.183)" fill="#edecec"/>
        <rect id="Rectángulo_378230" data-name="Rectángulo 378230" width="3.224" height="4.789" transform="translate(35.304)" fill="#edecec"/>
        <rect id="Rectángulo_378231" data-name="Rectángulo 378231" width="3.224" height="4.789" transform="translate(29.417)" fill="#edecec"/>
        <rect id="Rectángulo_378232" data-name="Rectángulo 378232" width="3.224" height="4.789" transform="translate(23.531)" fill="#edecec"/>
        <rect id="Rectángulo_378233" data-name="Rectángulo 378233" width="3.224" height="4.789" transform="translate(17.652)" fill="#edecec"/>
        <rect id="Rectángulo_378234" data-name="Rectángulo 378234" width="3.224" height="4.789" transform="translate(11.765)" fill="#edecec"/>
        <rect id="Rectángulo_378235" data-name="Rectángulo 378235" width="3.224" height="4.789" transform="translate(5.878)" fill="#edecec"/>
        <rect id="Rectángulo_378236" data-name="Rectángulo 378236" width="3.224" height="4.789" fill="#edecec"/>
      </g>
      <g id="Grupo_1074094" data-name="Grupo 1074094" transform="translate(0 9.205)">
        <rect id="Rectángulo_378237" data-name="Rectángulo 378237" width="3.224" height="4.789" transform="translate(41.183)" fill="#edecec"/>
        <rect id="Rectángulo_378238" data-name="Rectángulo 378238" width="3.224" height="4.789" transform="translate(35.304)" fill="#edecec"/>
        <rect id="Rectángulo_378239" data-name="Rectángulo 378239" width="3.224" height="4.789" transform="translate(29.417)" fill="#edecec"/>
        <rect id="Rectángulo_378240" data-name="Rectángulo 378240" width="3.224" height="4.789" transform="translate(23.531)" fill="#edecec"/>
        <rect id="Rectángulo_378241" data-name="Rectángulo 378241" width="3.224" height="4.789" transform="translate(17.652)" fill="#edecec"/>
        <rect id="Rectángulo_378242" data-name="Rectángulo 378242" width="3.224" height="4.789" transform="translate(11.765)" fill="#edecec"/>
        <rect id="Rectángulo_378243" data-name="Rectángulo 378243" width="3.224" height="4.789" transform="translate(5.878)" fill="#edecec"/>
        <rect id="Rectángulo_378244" data-name="Rectángulo 378244" width="3.224" height="4.789" fill="#edecec"/>
      </g>
      <g id="Grupo_1074095" data-name="Grupo 1074095" transform="translate(0 18.401)">
        <rect id="Rectángulo_378245" data-name="Rectángulo 378245" width="3.224" height="4.789" transform="translate(41.183)" fill="#edecec"/>
        <rect id="Rectángulo_378246" data-name="Rectángulo 378246" width="3.224" height="4.789" transform="translate(35.304)" fill="#edecec"/>
        <rect id="Rectángulo_378247" data-name="Rectángulo 378247" width="3.224" height="4.789" transform="translate(29.417)" fill="#edecec"/>
        <rect id="Rectángulo_378248" data-name="Rectángulo 378248" width="3.224" height="4.789" transform="translate(23.531)" fill="#edecec"/>
        <rect id="Rectángulo_378249" data-name="Rectángulo 378249" width="3.224" height="4.789" transform="translate(17.652)" fill="#edecec"/>
        <rect id="Rectángulo_378250" data-name="Rectángulo 378250" width="3.224" height="4.789" transform="translate(11.765)" fill="#edecec"/>
        <rect id="Rectángulo_378251" data-name="Rectángulo 378251" width="3.224" height="4.789" transform="translate(5.878)" fill="#edecec"/>
        <rect id="Rectángulo_378252" data-name="Rectángulo 378252" width="3.224" height="4.789" fill="#edecec"/>
      </g>
    </g>
    <rect id="Rectángulo_378253" data-name="Rectángulo 378253" width="51.553" height="3.088" transform="translate(2.101 45.326)" fill="#525151"/>
  </g>
  <g id="Grupo_1074098" data-name="Grupo 1074098" transform="translate(64.254 110.353)">
    <path id="Trazado_823886" data-name="Trazado 823886" d="M84.037,129.72s-2.671,55.636-8.507,62.6h42.765s-8.745-18.945-10.208-62.6H84.029Z" transform="translate(-75.53 -129.72)" fill="#7d6660"/>
    <path id="Trazado_823887" data-name="Trazado 823887" d="M100.668,129.72v62.6h21.378s-8.745-18.945-10.208-62.6H100.66Z" transform="translate(-79.282 -129.72)" fill="#97776c"/>
    <path id="Trazado_823888" data-name="Trazado 823888" d="M84.178,150.07l-.238,3.165h26.738l-.3-3.165Z" transform="translate(-76.786 -132.758)" fill="#624800"/>
    <path id="Trazado_823889" data-name="Trazado 823889" d="M82.935,164.64l-.315,3.173h29.392l-.451-3.173Z" transform="translate(-76.589 -134.933)" fill="#624800"/>
    <path id="Trazado_823890" data-name="Trazado 823890" d="M85.807,129.72l-.187,3.5,24.117.051-.136-3.556Z" transform="translate(-77.036 -129.72)" fill="#624800"/>
  </g>
  <g id="Grupo_1074100" data-name="Grupo 1074100" transform="translate(0.281 81.617)">
    <path id="Trazado_823891" data-name="Trazado 823891" d="M14.554,114.817C8.2,107.68.4,95.94.4,95.94L.33,187.28H24.55s-.34-51.8-.961-55.279S20.909,121.955,14.554,114.817Z" transform="translate(-0.33 -95.94)" fill="#8f534a"/>
    <path id="Trazado_823892" data-name="Trazado 823892" d="M14.566,114.817C8.211,107.68.41,95.94.41,95.94l8.72,19.549c.366.825,6.721,13.594,6.8,27.12l.417,44.671h8.218s-.34-51.8-.961-55.279S20.92,121.955,14.566,114.817Z" transform="translate(-0.342 -95.94)" fill="#a5756e"/>
    <rect id="Rectángulo_378254" data-name="Rectángulo 378254" width="23.488" height="4.33" transform="translate(0.051 37.712)" fill="#bfa8a6"/>
    <g id="Grupo_1074099" data-name="Grupo 1074099" transform="translate(0 49.987)">
      <rect id="Rectángulo_378255" data-name="Rectángulo 378255" width="23.837" height="1.038" fill="#bfa8a6"/>
      <rect id="Rectángulo_378256" data-name="Rectángulo 378256" width="23.837" height="1.038" transform="translate(0 2.382)" fill="#bfa8a6"/>
      <rect id="Rectángulo_378257" data-name="Rectángulo 378257" width="23.837" height="1.038" transform="translate(0 4.772)" fill="#bfa8a6"/>
      <rect id="Rectángulo_378258" data-name="Rectángulo 378258" width="23.837" height="1.038" transform="translate(0 7.163)" fill="#bfa8a6"/>
      <rect id="Rectángulo_378259" data-name="Rectángulo 378259" width="23.837" height="1.038" transform="translate(0 9.545)" fill="#bfa8a6"/>
    </g>
  </g>
  <path id="Trazado_823893" data-name="Trazado 823893" d="M91.6,90.92a4.8,4.8,0,1,0,4.8,4.8A4.8,4.8,0,0,0,91.6,90.92Z" transform="translate(-12.959 -13.574)" fill="#aaabb0"/>
  <path id="Trazado_823894" data-name="Trazado 823894" d="M43.7,90.37a3.054,3.054,0,1,0,3.054,3.054A3.057,3.057,0,0,0,43.7,90.37Z" transform="translate(-6.069 -13.492)" fill="#aaabb0"/>
  <path id="Trazado_823895" data-name="Trazado 823895" d="M51.464,76.82a5.9,5.9,0,1,0,5.9,5.9A5.907,5.907,0,0,0,51.464,76.82Z" transform="translate(-6.802 -11.469)" fill="#c8c7c7"/>
  <path id="Trazado_823896" data-name="Trazado 823896" d="M83.569,102.88a2.016,2.016,0,1,0,2.033,2A2.015,2.015,0,0,0,83.569,102.88Z" transform="translate(-12.178 -15.359)" fill="#aaabb0"/>
  <g id="Grupo_1074102" data-name="Grupo 1074102" transform="translate(105.624 58.979)">
    <g id="Grupo_1074101" data-name="Grupo 1074101">
      <path id="Trazado_823897" data-name="Trazado 823897" d="M160.315,80.405h-.408a6.317,6.317,0,0,0-6.44-6.185,6.161,6.161,0,0,0-1.327.17,7.39,7.39,0,0,0-14.275,1.276,5.723,5.723,0,0,0-6.423,5.674,10.638,10.638,0,0,0-7.282,7.716l45-.834c-1.251-4.534-3.939-7.9-8.847-7.809Z" transform="translate(-124.16 -69.346)" fill="#95969c"/>
      <path id="Trazado_823898" data-name="Trazado 823898" d="M160.375,80.406h-.408a6.312,6.312,0,0,0-6.4-6.236,5.8,5.8,0,0,0-1.336.162,7.39,7.39,0,0,0-14.283,1.174,5.7,5.7,0,0,0-6.457,5.632A10.606,10.606,0,0,0,124.16,88.8l45.385-.527c-1.216-4.543-4.271-7.929-9.171-7.869Z" transform="translate(-124.16 -69.33)" fill="#95969c"/>
    </g>
    <path id="Trazado_823899" data-name="Trazado 823899" d="M139.53,76.5s3.939,1.276,3.743,4.951A5.309,5.309,0,0,1,139.53,86.4a4.951,4.951,0,0,0,0-9.9Z" transform="translate(-126.455 -70.4)" fill="#a3a1a1"/>
    <path id="Trazado_823900" data-name="Trazado 823900" d="M166.96,82.31a7.306,7.306,0,0,0-7.41,7.2s1.957-6.142,7.367-5.768a8.022,8.022,0,0,1,7.239,5.989,7.306,7.306,0,0,0-7.2-7.41Z" transform="translate(-129.444 -71.267)" fill="#a3a1a1"/>
  </g>
  <path id="Trazado_823901" data-name="Trazado 823901" d="M68.832,60.49H58.785a5.555,5.555,0,1,0,0,11.11H68.832a5.555,5.555,0,0,0,0-11.11Z" transform="translate(-7.947 -9.031)" fill="#aaabb0"/>
  <path id="Trazado_823902" data-name="Trazado 823902" d="M60.422,0H50.375a5.555,5.555,0,0,0,0,11.11H60.422a5.555,5.555,0,1,0,0-11.11Z" transform="translate(-6.691)" fill="#c8c7c7"/>
  <path id="Trazado_823903" data-name="Trazado 823903" d="M6,77.22H1.14V88.339H6a5.573,5.573,0,0,0,5.555-5.555h0A5.573,5.573,0,0,0,6,77.229Z" transform="translate(-0.17 -11.529)" fill="#aaabb0"/>
  <path id="Trazado_823904" data-name="Trazado 823904" d="M97.507,38.39H81.428a8.9,8.9,0,0,0,0,17.8H97.507a8.9,8.9,0,1,0,0-17.8Z" transform="translate(-10.828 -5.731)" fill="#c8c7c7"/>
  <path id="Trazado_823905" data-name="Trazado 823905" d="M123.089,52.14H94.616a5.666,5.666,0,1,0,0,11.331h28.473a5.666,5.666,0,0,0,0-11.331Z" transform="translate(-13.28 -7.784)" fill="#c8c7c7"/>
  <path id="Trazado_823906" data-name="Trazado 823906" d="M100.523,246.98H84a3.292,3.292,0,0,0,0,6.584h16.521a3.292,3.292,0,1,0,0-6.584Z" transform="translate(-12.05 -36.873)" fill="#aaabb0"/>
  <path id="Trazado_823907" data-name="Trazado 823907" d="M86.287,251.85H59.328a5.368,5.368,0,1,0,0,10.736H86.287a5.368,5.368,0,1,0,0-10.736Z" transform="translate(-8.056 -37.6)" fill="#aaabb0"/>
  <g id="Grupo_1074103" data-name="Grupo 1074103" transform="translate(0.349 172.183)">
    <path id="Trazado_823908" data-name="Trazado 823908" d="M167.131,202.4H.41v10.9H167.123c9.213,0,8.277-10.9,0-10.9Z" transform="translate(-0.41 -202.4)" fill="#cf9e50"/>
    <path id="Trazado_823909" data-name="Trazado 823909" d="M143.594,228.03H.42v9.111H143.066c5.2,0,5.062-8.337.527-9.111Z" transform="translate(-0.411 -206.226)" fill="#84888a"/>
    <path id="Trazado_823910" data-name="Trazado 823910" d="M183.73,215.312a7.39,7.39,0,0,0-1.148-.1H.42v10.812H142.581a7.333,7.333,0,0,1,.97.077.108.108,0,0,1,.051.008h39.566c6.712,0,7.061-9.783.57-10.8Z" transform="translate(-0.411 -204.312)" fill="#ab6e37"/>
    <path id="Trazado_823911" data-name="Trazado 823911" d="M142.571,227.92H.41v.094H143.584a.108.108,0,0,1-.051-.009,6.13,6.13,0,0,0-.97-.077Z" transform="translate(-0.41 -206.21)" fill="#ab6e37"/>
  </g>
  <g id="Grupo_1074105" data-name="Grupo 1074105" transform="translate(58.231 97.125)">
    <path id="Trazado_823912" data-name="Trazado 823912" d="M71.853,114.17l-3.4,75.679L81.023,190l-1.6-75.747Z" transform="translate(-68.45 -114.17)" fill="#a3a1a1"/>
    <path id="Trazado_823913" data-name="Trazado 823913" d="M68.45,189.849l6.287.077.9-75.713-3.786-.043Z" transform="translate(-68.45 -114.17)" fill="#757474"/>
    <g id="Grupo_1074104" data-name="Grupo 1074104" transform="translate(1.872 18.256)">
      <path id="Trazado_823914" data-name="Trazado 823914" d="M75.844,135.681l-4.339-.051-.2,4.4,4.483.051,4.492.051-.094-4.4Z" transform="translate(-70.749 -135.63)" fill="#edecec"/>
      <path id="Trazado_823915" data-name="Trazado 823915" d="M75.627,147.761l-4.687-.051-.289,6.423,4.9.06,4.9.06-.136-6.431Z" transform="translate(-70.65 -137.433)" fill="#edecec"/>
    </g>
  </g>
</svg>
