<svg xmlns="http://www.w3.org/2000/svg" width="85" height="85" viewBox="0 0 85 85">
  <g id="Grupo_1075674" data-name="Grupo 1075674" transform="translate(-180.332 -9762.336)">
    <g id="Grupo_1075673" data-name="Grupo 1075673">
      <g id="Grupo_1075670" data-name="Grupo 1075670">
        <g id="Grupo_1075614" data-name="Grupo 1075614" transform="translate(-105 3311.336)">
          <circle id="Elipse_4872" data-name="Elipse 4872" cx="42.5" cy="42.5" r="42.5" transform="translate(285.332 6451)" fill="#eeffde"/>
          <g id="Grupo_156261" data-name="Grupo 156261" transform="translate(302.332 6467)">
            <rect id="Rectángulo_47312" data-name="Rectángulo 47312" width="7.049" height="3.525" transform="translate(4.424 16.762)" fill="#eeffde"/>
            <path id="Trazado_198297" data-name="Trazado 198297" d="M10.008,59.838h7.045l-3.525,4.405Z" transform="translate(-5.582 -33.378)" fill="#eeffde"/>
          </g>
        </g>
        <path id="Trazado_824316" data-name="Trazado 824316" d="M5.815,16.271H8.145q2.769,0,2.769-2.71a2.343,2.343,0,0,0-.659-1.721,2.5,2.5,0,0,0-1.86-.667,2.676,2.676,0,0,0-1.707.571,1.743,1.743,0,0,0-.725,1.421H1.025a5.053,5.053,0,0,1,.938-3A6.191,6.191,0,0,1,4.563,8.1a8.89,8.89,0,0,1,3.655-.74,8.735,8.735,0,0,1,5.6,1.626,5.405,5.405,0,0,1,2.036,4.468,4.505,4.505,0,0,1-.842,2.6,6,6,0,0,1-2.454,1.985,5.734,5.734,0,0,1,2.666,1.868,4.919,4.919,0,0,1,.967,3.1,5.5,5.5,0,0,1-2.2,4.57,9.12,9.12,0,0,1-5.771,1.714,9.458,9.458,0,0,1-3.889-.8,6.093,6.093,0,0,1-2.717-2.212,5.751,5.751,0,0,1-.923-3.215H5.654a2.223,2.223,0,0,0,.791,1.7,2.793,2.793,0,0,0,1.948.718,2.925,2.925,0,0,0,2.08-.725,2.424,2.424,0,0,0,.776-1.853,2.833,2.833,0,0,0-.806-2.285,3.368,3.368,0,0,0-2.227-.674h-2.4Z" transform="translate(214 9785.337)" fill="#12263f"/>
      </g>
    </g>
  </g>
</svg>
