<svg xmlns="http://www.w3.org/2000/svg" width="109.992" height="121.333" viewBox="0 0 109.992 121.333">
  <g id="Grupo_1073496" data-name="Grupo 1073496" transform="translate(-917.869 -383.694)">
    <path id="Unión_38" data-name="Unión 38" d="M12825.9,11832.6l-37.685-21.453a17.367,17.367,0,0,1-8.747-14.938l-.262-43.365a17.358,17.358,0,0,1,8.563-15.041l37.423-21.909a17.356,17.356,0,0,1,17.31-.107l37.685,21.457a17.347,17.347,0,0,1,8.747,14.938l.266,43.362a17.362,17.362,0,0,1-8.566,15.042l-.161-.271.161.271-37.423,21.909a17.286,17.286,0,0,1-7.835,2.342c-.3.016-.609.024-.914.024A17.31,17.31,0,0,1,12825.9,11832.6Z" transform="translate(-11861.333 -11329.837)" fill="#264100"/>
    <path id="Trazado_828589" data-name="Trazado 828589" d="M53.215,31.534A15.171,15.171,0,1,0,68.386,46.706,15.171,15.171,0,0,0,53.215,31.534Zm0,28.234A13.062,13.062,0,1,1,66.277,46.706,13.062,13.062,0,0,1,53.215,59.768Zm35.708,15L76.07,61.914a3.431,3.431,0,0,0-3.367-.871l-3.318-3.318A19.567,19.567,0,0,0,43.172,29.908v-9.4a4.2,4.2,0,0,0,3.7-4.163V13.192A4.2,4.2,0,0,0,42.676,9H22.508a4.2,4.2,0,0,0-4.193,4.192v3.156a4.2,4.2,0,0,0,3.7,4.163V72.835a10.58,10.58,0,1,0,21.161,0V63.5a19.536,19.536,0,0,0,21.062-.626L67.553,66.2a3.46,3.46,0,0,0-.132.941,3.406,3.406,0,0,0,1,2.425L81.276,82.414a3.435,3.435,0,0,0,4.851,0l2.8-2.8a3.437,3.437,0,0,0,0-4.851ZM33.639,46.705a19.544,19.544,0,0,0,.622,4.9H24.121V44.6h2.854a1.054,1.054,0,0,0,0-2.109H24.121V37.2h6.595a1.054,1.054,0,1,0,0-2.109H24.121V29.8h2.854a1.054,1.054,0,0,0,0-2.109H24.121V20.542H41.063V31.369a19.55,19.55,0,0,0-7.425,15.336ZM20.424,16.349V13.192a2.086,2.086,0,0,1,2.084-2.084H42.676a2.087,2.087,0,0,1,2.084,2.084v3.156a2.087,2.087,0,0,1-2.084,2.084H22.508A2.087,2.087,0,0,1,20.424,16.349Zm20.64,56.487a8.471,8.471,0,1,1-16.943,0V53.717H34.938a19.668,19.668,0,0,0,6.125,8.326Zm-5.316-26.13A17.467,17.467,0,1,1,53.215,64.173,17.467,17.467,0,0,1,35.748,46.705ZM68.092,59.414l2.814,2.814L68.737,64.4l-2.814-2.814a19.724,19.724,0,0,0,2.169-2.169Zm19.34,18.712-2.8,2.8a1.323,1.323,0,0,1-1.868,0L69.915,68.07a1.328,1.328,0,0,1,0-1.868l2.8-2.8a1.322,1.322,0,0,1,1.868,0L87.432,76.258a1.328,1.328,0,0,1,0,1.868ZM54.114,39.557a1.054,1.054,0,0,0-1.8,0l-3.028,4.936c-1.491,2.43-1.856,6.3.153,8.306a5.348,5.348,0,0,0,7.547,0c2.009-2.009,1.644-5.876.153-8.306ZM55.5,51.308a3.24,3.24,0,0,1-4.564,0c-1.224-1.224-.9-3.993.153-5.712l2.129-3.47L55.344,45.6c1.055,1.719,1.377,4.488.153,5.712Z" transform="translate(923.76 395.946)" fill="#fff"/>
  </g>
</svg>
