<svg xmlns="http://www.w3.org/2000/svg" width="295" height="394.5" viewBox="0 0 295 394.5">
  <g id="Grupo_1075606" data-name="Grupo 1075606" transform="translate(-1020.483 -428.156)">
    <rect id="Rectángulo_378296" data-name="Rectángulo 378296" width="295" height="394" transform="translate(1020.483 428.656)" fill="none"/>
    <g id="CONTAMINACION" transform="translate(1065.686 428.156)">
      <path id="Trazado_823916" data-name="Trazado 823916" d="M234.511,342.573V286.26H109.46A170.837,170.837,0,0,0,234.511,342.573Z" transform="translate(13.745 35.947)" fill="#83b7be"/>
      <path id="Trazado_823917" data-name="Trazado 823917" d="M113.328,294.962H239.269V227.18H75.61a171.175,171.175,0,0,0,37.718,67.782Z" transform="translate(9.494 28.528)" fill="#c5e2f2"/>
      <g id="Grupo_1074109" data-name="Grupo 1074109" transform="translate(11.357 157.859)">
        <g id="Grupo_1074108" data-name="Grupo 1074108">
          <g id="Grupo_1074107" data-name="Grupo 1074107">
            <path id="Trazado_823918" data-name="Trazado 823918" d="M59.884,156.041h-.563a8.638,8.638,0,0,0-8.509-8.768,9.638,9.638,0,0,0-1.823.169,10.1,10.1,0,0,0-19.551,1.081,6.353,6.353,0,0,0-1.047-.09,7.884,7.884,0,0,0-7.992,7.553,14.5,14.5,0,0,0-10.3,10.2l61.513.945c-1.5-6.258-5.02-10.986-11.728-11.087Z" transform="translate(-10.089 -140.235)" fill="#b8e3ff"/>
            <g id="Grupo_1074106" data-name="Grupo 1074106">
              <path id="Trazado_823919" data-name="Trazado 823919" d="M37.509,140.25a10.088,10.088,0,0,0-10.119,8.1,7.9,7.9,0,0,1,6.652,7.215l12.922-8.16a10.108,10.108,0,0,0-9.444-7.159Z" transform="translate(-7.918 -140.248)" fill="#b8e3ff"/>
              <path id="Trazado_823920" data-name="Trazado 823920" d="M19.321,154.847l9.083-7.4a7.826,7.826,0,0,0-9.095,7.4Z" transform="translate(-8.932 -139.356)" fill="#b8e3ff"/>
              <path id="Trazado_823921" data-name="Trazado 823921" d="M27.39,147.45l6.652,7.215A7.879,7.879,0,0,0,27.39,147.45Z" transform="translate(-7.918 -139.343)" fill="#b8e3ff"/>
              <path id="Trazado_823922" data-name="Trazado 823922" d="M46.734,146.47a8.8,8.8,0,0,0-1.823.158l-1.171,8.419,11.447.248a8.644,8.644,0,0,0-8.442-8.824Z" transform="translate(-5.864 -139.466)" fill="#b8e3ff"/>
              <path id="Trazado_823923" data-name="Trazado 823923" d="M59.964,154.348H59.4l-38.945-.113c0-.079.011-.146.011-.225A14.52,14.52,0,0,0,10.09,164.14l62.03,1.384c-1.452-6.269-5.459-11.031-12.167-11.177Z" transform="translate(-10.09 -138.519)" fill="#b8e3ff"/>
              <path id="Trazado_823924" data-name="Trazado 823924" d="M32.59,157.9a7.759,7.759,0,0,0,.81-3.309c0-.248,0-.5-.023-.743Z" transform="translate(-7.265 -138.54)" fill="#b8e3ff"/>
              <path id="Trazado_823925" data-name="Trazado 823925" d="M32.59,157.9a7.759,7.759,0,0,0,.81-3.309c0-.248,0-.5-.023-.743Z" transform="translate(-7.265 -138.54)" fill="#b8e3ff"/>
            </g>
          </g>
          <path id="Trazado_823926" data-name="Trazado 823926" d="M27.39,147.7s5.38,1.745,5.11,6.765a7.232,7.232,0,0,1-5.11,6.765,6.765,6.765,0,0,0,0-13.529Z" transform="translate(-7.918 -139.312)" fill="#c6e9ff"/>
        </g>
        <path id="Trazado_823927" data-name="Trazado 823927" d="M57.18,154.74a9.983,9.983,0,0,0-10.13,9.838s2.679-8.386,10.074-7.879c8.16.563,9.894,8.183,9.894,8.183a9.983,9.983,0,0,0-9.838-10.13Z" transform="translate(-5.449 -138.428)" fill="#c6e9ff"/>
      </g>
      <g id="Grupo_1074110" data-name="Grupo 1074110" transform="translate(127.335 90.709)">
        <path id="Trazado_823928" data-name="Trazado 823928" d="M177.777,100.31A9.947,9.947,0,0,0,167.7,90.788a10.052,10.052,0,0,0-1.317.113,12.742,12.742,0,0,0-24.673-1.362,11.071,11.071,0,0,0-2.307-.214,10.9,10.9,0,0,0-10.727,11.053h-.709c-8.464.135-12.9,6.1-14.79,13.991l77.586-1.193a18.29,18.29,0,0,0-13-12.865Z" transform="translate(-113.122 -80.589)" fill="#b8e3ff"/>
        <path id="Trazado_823929" data-name="Trazado 823929" d="M161.252,89.87a8.532,8.532,0,1,0,0,17.064A9.135,9.135,0,0,1,154.8,98.4C154.465,92.076,161.252,89.87,161.252,89.87Z" transform="translate(-108.157 -79.423)" fill="#c6e9ff"/>
        <path id="Trazado_823930" data-name="Trazado 823930" d="M125.534,98.741a12.594,12.594,0,0,0-12.4,12.775S115.314,101.9,125.6,101.2c9.331-.642,12.708,9.939,12.708,9.939a12.594,12.594,0,0,0-12.775-12.4Z" transform="translate(-113.129 -78.311)" fill="#c6e9ff"/>
      </g>
      <g id="Grupo_1074112" data-name="Grupo 1074112" transform="translate(93.524 44.449)">
        <path id="Trazado_823931" data-name="Trazado 823931" d="M142.644,54.66a6.278,6.278,0,0,0-3.343.968,8.4,8.4,0,0,0-12.28-6.1A17.419,17.419,0,0,0,111.252,39.51,17.766,17.766,0,0,0,95.134,50.316a10.041,10.041,0,0,0-1.306-.09A10.736,10.736,0,0,0,83.09,60.963a10.881,10.881,0,0,0,.281,2.431h52.97c.124-.1.248-.2.36-.3.034.1.079.2.124.3h11.616a6.207,6.207,0,0,0,.484-2.431,6.307,6.307,0,0,0-6.3-6.3Z" transform="translate(-83.09 -39.487)" fill="#c6e9ff"/>
        <g id="Grupo_1074111" data-name="Grupo 1074111" transform="translate(0.011)">
          <path id="Trazado_823932" data-name="Trazado 823932" d="M109.908,39.49A17.432,17.432,0,0,0,93.79,50.3a10.733,10.733,0,0,1,9.432,10.648l22.455-11.436A17.419,17.419,0,0,0,109.908,39.49Z" transform="translate(-81.758 -39.49)" fill="#c6e9ff"/>
          <path id="Trazado_823933" data-name="Trazado 823933" d="M83.1,59.748,95.144,49.1a10.042,10.042,0,0,0-1.306-.09A10.736,10.736,0,0,0,83.1,59.748Z" transform="translate(-83.1 -38.295)" fill="#c6e9ff"/>
          <path id="Trazado_823934" data-name="Trazado 823934" d="M93.79,49.09l9.432,10.648A10.733,10.733,0,0,0,93.79,49.09Z" transform="translate(-81.758 -38.284)" fill="#c6e9ff"/>
          <path id="Trazado_823935" data-name="Trazado 823935" d="M126.1,47.5a8.369,8.369,0,0,0-3.985,1l12.28,6.1a8.406,8.406,0,0,0-8.3-7.1Z" transform="translate(-78.2 -38.484)" fill="#c6e9ff"/>
        </g>
      </g>
      <g id="Grupo_1074114" data-name="Grupo 1074114" transform="translate(171.931)">
        <path id="Trazado_823936" data-name="Trazado 823936" d="M183.321,5.954c-.248,0-.484.023-.72.045a9.692,9.692,0,0,0-8.948-6,9.469,9.469,0,0,0-8.746,5.56,4.666,4.666,0,0,0-6.81,3.388A3.483,3.483,0,0,0,152.75,11.9a3.614,3.614,0,0,0,.27,1.351h6.438l.068-.169.2.169h29.378a5.945,5.945,0,0,0-5.8-7.3Z" transform="translate(-152.75)" fill="#fff"/>
        <g id="Grupo_1074113" data-name="Grupo 1074113" transform="translate(5.346)">
          <path id="Trazado_823937" data-name="Trazado 823937" d="M172.3,0a9.651,9.651,0,0,0-8.746,5.56L176,11.909A5.961,5.961,0,0,1,181.233,6,9.667,9.667,0,0,0,172.3.011Z" transform="translate(-156.74)" fill="#fff"/>
          <path id="Trazado_823938" data-name="Trazado 823938" d="M179.99,5.28c-.248,0-.484.023-.72.045l6.675,5.909A5.957,5.957,0,0,0,179.99,5.28Z" transform="translate(-154.766 0.663)" fill="#fff"/>
          <path id="Trazado_823939" data-name="Trazado 823939" d="M174.61,11.229l5.234-5.909A5.952,5.952,0,0,0,174.61,11.229Z" transform="translate(-155.351 0.668)" fill="#fff"/>
          <path id="Trazado_823940" data-name="Trazado 823940" d="M157.5,8.38l6.81-3.388A4.666,4.666,0,0,0,157.5,8.38Z" transform="translate(-157.5 0.558)" fill="#fff"/>
        </g>
      </g>
      <path id="Trazado_823941" data-name="Trazado 823941" d="M70.6,95.127a7.579,7.579,0,0,0-2.533.439,14.9,14.9,0,0,0-29.738-.225,5.986,5.986,0,0,0-4.716,5.842,5.844,5.844,0,0,0,.383,2.082h44.19c.011-.169.023-.349.023-.518a7.619,7.619,0,0,0-7.62-7.62Z" transform="translate(4.22 10.227)" fill="#fff"/>
      <path id="Trazado_823942" data-name="Trazado 823942" d="M105.843,53.16a20.161,20.161,0,0,0-40.251.293,10.17,10.17,0,0,0-3.422-.6,10.309,10.309,0,0,0-10.31,10.31c0,.236.023.473.034.7h59.824a8.05,8.05,0,0,0-5.864-10.715Z" transform="translate(6.512 4.312)" fill="#b8e3ff"/>
      <g id="Grupo_1074116" data-name="Grupo 1074116" transform="translate(39.542 138.243)">
        <g id="Grupo_1074115" data-name="Grupo 1074115">
          <path id="Trazado_823943" data-name="Trazado 823943" d="M90.508,156.728a3.346,3.346,0,0,1-3.332-3.332v-11a3.327,3.327,0,0,0-3.332-3.309,3.287,3.287,0,0,0-2.746,1.463,3.377,3.377,0,0,0-.563,1.857v3.579a3.086,3.086,0,0,1-3.084,3.073h-.293a3.08,3.08,0,0,1-3.039-2.645L36.278,200.028c-2.623,3.714-.5,9.263,3.8,9.579.135.011.293.011.428.011H157.379c.146,0,.293,0,.428-.011,4.3-.315,6.427-5.876,3.793-9.579L120.178,141.78v7.4a3.084,3.084,0,0,1-3.073,3.073h-.293a3.086,3.086,0,0,1-3.084-3.073v-8.836a3.32,3.32,0,0,0-6.641,0v11.807a3.346,3.346,0,0,1-3.332,3.332,3.242,3.242,0,0,1-3.287-3.062v-6.011a3.332,3.332,0,1,0-6.663,0v7a3.334,3.334,0,0,1-3.309,3.332Z" transform="translate(-35.131 -121.036)" fill="#fff"/>
          <path id="Trazado_823944" data-name="Trazado 823944" d="M82.269,155.192a3.32,3.32,0,1,0,6.641,0v-7a3.332,3.332,0,1,1,6.663,0V154.2a3.312,3.312,0,0,0,3.287,3.062,3.346,3.346,0,0,0,3.332-3.332V142.124a3.32,3.32,0,0,1,6.641,0v8.836a3.086,3.086,0,0,0,3.084,3.073h.293a3.084,3.084,0,0,0,3.073-3.073v-7.4L104.567,128.5A13.068,13.068,0,0,0,93.93,122.82a13.542,13.542,0,0,0-10.918,5.842L74.3,141l1.891,1.339a3.324,3.324,0,0,1,6.078,1.846v11Z" transform="translate(-30.212 -122.82)" fill="#fff"/>
        </g>
        <path id="Trazado_823945" data-name="Trazado 823945" d="M149.007,177.341H48.786L36.337,194.968c-2.611,3.7-.484,9.241,3.8,9.556.135,0,.281.011.428.011H157.325c.146,0,.281,0,.428-.011,4.288-.315,6.416-5.864,3.782-9.567L149.007,177.33Z" transform="translate(-35.122 -115.975)" fill="#007980"/>
      </g>
      <g id="Grupo_1074118" data-name="Grupo 1074118" transform="translate(71.18 101.842)">
        <g id="Grupo_1074117" data-name="Grupo 1074117">
          <path id="Trazado_823946" data-name="Trazado 823946" d="M165.15,135.421v-16.31a4.943,4.943,0,0,0-4.93-4.93,4.882,4.882,0,0,0-3.478,1.452,4.949,4.949,0,0,0-1.452,3.478v10.4a4.862,4.862,0,0,1-1.452,3.478,4.919,4.919,0,0,1-8.408-3.478h.034V109.6a4.943,4.943,0,0,0-4.93-4.93,4.862,4.862,0,0,0-3.478,1.452A4.929,4.929,0,0,0,135.6,109.6v28.995a4.958,4.958,0,0,1-4.93,4.93,4.943,4.943,0,0,1-4.93-4.93v-27.07L64.816,197.834c-3.613,5.133-.664,12.775,5.268,13.214.191.011.394.023.574.023h161.5c.2,0,.394-.011.574-.023,5.943-.439,8.87-8.115,5.245-13.214l-63-88.617v26.2a4.882,4.882,0,0,1-1.452,3.478,4.927,4.927,0,0,1-8.419-3.478Z" transform="translate(-63.239 -88.698)" fill="#e9efff"/>
          <path id="Trazado_823947" data-name="Trazado 823947" d="M118.79,113.453v26.935a4.943,4.943,0,0,0,4.93,4.93,4.862,4.862,0,0,0,3.478-1.452,4.949,4.949,0,0,0,1.452-3.478V111.393a4.862,4.862,0,0,1,1.452-3.478,4.919,4.919,0,0,1,8.408,3.478V131.3h-.034a4.943,4.943,0,0,0,4.93,4.93,4.958,4.958,0,0,0,4.93-4.93V120.9a4.882,4.882,0,0,1,1.452-3.478A4.919,4.919,0,0,1,158.2,120.9v16.31a4.943,4.943,0,0,0,4.93,4.93,4.889,4.889,0,0,0,3.489-1.452,4.949,4.949,0,0,0,1.452-3.478v-26.2l-9.038-12.685a18.08,18.08,0,0,0-14.711-7.845,18.724,18.724,0,0,0-15.083,8.082l-10.423,14.768v.135Z" transform="translate(-56.263 -90.48)" fill="#83b7be"/>
        </g>
        <path id="Trazado_823948" data-name="Trazado 823948" d="M220.672,165.78H82.046l-17.21,24.38c-3.613,5.121-.675,12.787,5.256,13.226.191.011.394.023.585.023h161.5a4.993,4.993,0,0,0,.585-.023c5.932-.439,8.87-8.115,5.234-13.226l-17.334-24.38Z" transform="translate(-63.237 -81.024)" fill="#62898f"/>
      </g>
      <path id="Trazado_823949" data-name="Trazado 823949" d="M204.475,42.634a13.8,13.8,0,0,0-1.531-.1A12.583,12.583,0,0,0,190.36,55.117h0v.023a12.481,12.481,0,0,0,.338,2.848h34.69V30.073a20,20,0,0,0-2.026-.113,20.442,20.442,0,0,0-18.9,12.663Z" transform="translate(23.904 3.762)" fill="#b8e3ff"/>
      <path id="Trazado_823950" data-name="Trazado 823950" d="M134.291,187.19c-19.045,0-35.152,6.956-40.431,16.512h80.861C169.442,194.146,153.335,187.19,134.291,187.19Z" transform="translate(11.786 23.506)" fill="#93b033"/>
      <g id="Grupo_1074120" data-name="Grupo 1074120" transform="translate(169.354 204.967)">
        <path id="Trazado_823951" data-name="Trazado 823951" d="M190.1,182.1c-18.673,0-34.465,9.466-39.643,22.466h79.274c-5.178-13-20.958-22.466-39.643-22.466Z" transform="translate(-150.46 -182.1)" fill="#789c00"/>
        <g id="Grupo_1074119" data-name="Grupo 1074119" transform="translate(15.916 5.264)">
          <path id="Trazado_823952" data-name="Trazado 823952" d="M169.935,187.208c-3.726,1.092-5.966,3.838-5.178,5.538s3.883,1.891,7.08.945,5.684-2.769,5.425-4.615-3.6-2.96-7.327-1.868Z" transform="translate(-164.6 -186.777)" fill="#93b033"/>
          <path id="Trazado_823953" data-name="Trazado 823953" d="M181.462,187.751c-1.981.011-3.512.979-3.422,1.981s1.621,1.677,3.444,1.655,3.365-.709,3.433-1.711-1.486-1.947-3.467-1.936Z" transform="translate(-162.913 -186.656)" fill="#93b033"/>
        </g>
      </g>
      <g id="Grupo_1074122" data-name="Grupo 1074122" transform="translate(92.905 197.077)">
        <path id="Trazado_823954" data-name="Trazado 823954" d="M96.587,181.281a6.191,6.191,0,1,0-12.381,0,5.514,5.514,0,0,0,.068.867,7.857,7.857,0,1,0,12.246,0A5.513,5.513,0,0,0,96.587,181.281Z" transform="translate(-82.54 -175.09)" fill="#dadf4d"/>
        <g id="Grupo_1074121" data-name="Grupo 1074121" transform="translate(4.165 9.076)">
          <path id="Trazado_823955" data-name="Trazado 823955" d="M89.8,183.228l-.3,20.362a.3.3,0,0,0,.3.3h.045a.3.3,0,0,0,.3-.3s-.135-20.362-.3-20.362C89.849,183.228,89.8,183.06,89.8,183.228Z" transform="translate(-85.831 -183.153)" fill="#624800"/>
          <path id="Trazado_823956" data-name="Trazado 823956" d="M88.063,189.433a9.365,9.365,0,0,1-1.823-1.823c2.06,3.32,3.962,3.219,3.962,3.219l.045-.473s-.405.315-2.172-.934Z" transform="translate(-86.24 -182.594)" fill="#624800"/>
          <path id="Trazado_823957" data-name="Trazado 823957" d="M91.636,188.352c-1.5,1.058-1.846.8-1.846.8l.034.394s1.61.079,3.365-2.735a8.155,8.155,0,0,1-1.553,1.542Z" transform="translate(-85.794 -182.694)" fill="#624800"/>
          <path id="Trazado_823958" data-name="Trazado 823958" d="M88.609,186.309a6.02,6.02,0,0,1-1.249-1.249c1.418,2.274,2.713,2.206,2.713,2.206l.023-.315S89.814,187.165,88.609,186.309Z" transform="translate(-86.099 -182.914)" fill="#624800"/>
        </g>
      </g>
      <g id="Grupo_1074124" data-name="Grupo 1074124" transform="translate(218.712 162.873)">
        <path id="Trazado_823959" data-name="Trazado 823959" d="M212.173,145.521a5.6,5.6,0,0,0-5.83,0c-6.359,3.985-25.067,55.221,2.915,55.221C238.883,200.742,218.532,149.506,212.173,145.521Z" transform="translate(-194.311 -144.702)" fill="#33a257"/>
        <path id="Trazado_823960" data-name="Trazado 823960" d="M201.784,180.042c-.45-20.182,5.538-35.208,4.559-34.6-6.359,3.985-25.067,55.221,2.915,55.221C209.257,200.663,202.234,200.089,201.784,180.042Z" transform="translate(-194.311 -144.612)" fill="#00744c"/>
        <g id="Grupo_1074123" data-name="Grupo 1074123" transform="translate(5.165 25.46)">
          <path id="Trazado_823961" data-name="Trazado 823961" d="M208.811,167.522,206.83,206.1c.473-.023,3.568.023,4.041,0-.146-16.5-1.643-38.573-1.936-38.573,0,0-.113-.45-.113,0Z" transform="translate(-197.904 -167.322)" fill="#624800"/>
          <path id="Trazado_823962" data-name="Trazado 823962" d="M203.909,184.516a25.4,25.4,0,0,1-5.009-4.986c5.662,9.106,10.862,8.836,10.862,8.836l.113-1.283s-1.114.855-5.954-2.566Z" transform="translate(-198.9 -165.789)" fill="#624800"/>
          <path id="Trazado_823963" data-name="Trazado 823963" d="M213.705,181.572c-4.108,2.9-5.065,2.184-5.065,2.184l.09,1.092s4.424.225,9.23-7.508A21.622,21.622,0,0,1,213.705,181.572Z" transform="translate(-197.677 -166.064)" fill="#624800"/>
          <path id="Trazado_823964" data-name="Trazado 823964" d="M205.393,175.962a17.038,17.038,0,0,1-3.433-3.422c3.883,6.247,7.451,6.067,7.451,6.067l.079-.878s-.765.585-4.086-1.767Z" transform="translate(-198.516 -166.667)" fill="#624800"/>
        </g>
      </g>
      <g id="Grupo_1074126" data-name="Grupo 1074126" transform="translate(158.26 182.579)">
        <path id="Trazado_823965" data-name="Trazado 823965" d="M153.048,162.784a3.882,3.882,0,0,0-4.063,0c-4.435,2.78-17.458,38.461,2.026,38.461,20.632,0,6.461-35.692,2.026-38.461Z" transform="translate(-140.604 -162.21)" fill="#33a257"/>
        <path id="Trazado_823966" data-name="Trazado 823966" d="M145.811,186.82c-.315-14.058,3.849-24.526,3.174-24.1-4.435,2.78-17.458,38.461,2.026,38.461,0,0-4.9-.394-5.211-14.362Z" transform="translate(-140.604 -162.147)" fill="#00744c"/>
        <g id="Grupo_1074125" data-name="Grupo 1074125" transform="translate(3.598 17.734)">
          <path id="Trazado_823967" data-name="Trazado 823967" d="M150.7,178.106l-1.384,26.867c.326-.011,2.488.023,2.814,0-.1-11.492-1.148-26.867-1.351-26.867C150.783,178.106,150.7,177.79,150.7,178.106Z" transform="translate(-143.107 -177.966)" fill="#624800"/>
          <path id="Trazado_823968" data-name="Trazado 823968" d="M147.289,189.937a17.713,17.713,0,0,1-3.489-3.467c3.939,6.337,7.564,6.157,7.564,6.157l.079-.889s-.777.6-4.142-1.79Z" transform="translate(-143.8 -176.898)" fill="#624800"/>
          <path id="Trazado_823969" data-name="Trazado 823969" d="M154.113,187.89c-2.859,2.026-3.523,1.52-3.523,1.52l.068.754s3.073.158,6.427-5.234a15.268,15.268,0,0,1-2.972,2.949Z" transform="translate(-142.947 -177.091)" fill="#624800"/>
          <path id="Trazado_823970" data-name="Trazado 823970" d="M148.327,183.986a12.132,12.132,0,0,1-2.4-2.386c2.7,4.345,5.189,4.221,5.189,4.221l.056-.608s-.529.405-2.848-1.227Z" transform="translate(-143.533 -177.509)" fill="#624800"/>
        </g>
      </g>
      <g id="Grupo_1074128" data-name="Grupo 1074128" transform="translate(203.69 176.653)">
        <path id="Trazado_823971" data-name="Trazado 823971" d="M195.359,157.57a4.208,4.208,0,0,0-4.412,0c-4.817,3.017-20.227,41.826,2.206,41.826,21.195,0,7.024-38.81,2.206-41.826Z" transform="translate(-180.924 -156.945)" fill="#97c266"/>
        <path id="Trazado_823972" data-name="Trazado 823972" d="M186.43,183.873c-.326-14.756,4.041-25.742,3.332-25.292-4.649,2.915-18.324,40.363,2.127,40.363C191.889,198.945,186.756,198.528,186.43,183.873Z" transform="translate(-180.966 -156.741)" fill="#71924d"/>
        <g id="Grupo_1074127" data-name="Grupo 1074127" transform="translate(3.573 22.018)">
          <path id="Trazado_823973" data-name="Trazado 823973" d="M191.5,176.657l-1.475,28.668c.349-.011,2.645.023,2.994,0-.113-12.258-1.216-28.668-1.441-28.668C191.583,176.657,191.5,176.319,191.5,176.657Z" transform="translate(-183.4 -176.507)" fill="#624800"/>
          <path id="Trazado_823974" data-name="Trazado 823974" d="M187.866,189.283a19.045,19.045,0,0,1-3.726-3.7c4.2,6.765,8.07,6.562,8.07,6.562l.079-.957s-.833.63-4.423-1.913Z" transform="translate(-184.14 -175.367)" fill="#624800"/>
          <path id="Trazado_823975" data-name="Trazado 823975" d="M195.139,187.1c-3.05,2.161-3.759,1.621-3.759,1.621l.068.81s3.287.169,6.855-5.583A16.041,16.041,0,0,1,195.139,187.1Z" transform="translate(-183.231 -175.572)" fill="#624800"/>
          <path id="Trazado_823976" data-name="Trazado 823976" d="M188.965,182.934a13.052,13.052,0,0,1-2.555-2.544c2.881,4.637,5.538,4.5,5.538,4.5l.056-.653S191.43,184.678,188.965,182.934Z" transform="translate(-183.855 -176.019)" fill="#624800"/>
        </g>
      </g>
      <g id="Grupo_1074130" data-name="Grupo 1074130" transform="translate(124.63 176.484)">
        <path id="Trazado_823977" data-name="Trazado 823977" d="M125.129,157.42a4.208,4.208,0,0,0-4.412,0c-4.817,3.017-20.227,41.826,2.206,41.826C144.117,199.246,129.946,160.436,125.129,157.42Z" transform="translate(-110.683 -156.795)" fill="#009969"/>
        <path id="Trazado_823978" data-name="Trazado 823978" d="M116.19,183.723c-.326-14.756,4.041-25.742,3.332-25.292-4.649,2.915-18.324,40.363,2.127,40.363C121.649,198.795,116.516,198.378,116.19,183.723Z" transform="translate(-110.726 -156.591)" fill="#00744c"/>
        <g id="Grupo_1074129" data-name="Grupo 1074129" transform="translate(3.573 22.018)">
          <path id="Trazado_823979" data-name="Trazado 823979" d="M121.265,176.507l-1.475,28.668c.349-.011,2.645.023,2.994,0-.113-12.258-1.216-28.668-1.441-28.668C121.343,176.507,121.265,176.169,121.265,176.507Z" transform="translate(-113.16 -176.357)" fill="#624800"/>
          <path id="Trazado_823980" data-name="Trazado 823980" d="M117.626,189.133a19.045,19.045,0,0,1-3.726-3.7c4.2,6.765,8.07,6.562,8.07,6.562l.079-.957s-.833.63-4.424-1.913Z" transform="translate(-113.9 -175.217)" fill="#624800"/>
          <path id="Trazado_823981" data-name="Trazado 823981" d="M124.9,186.952c-3.05,2.161-3.759,1.621-3.759,1.621l.068.81s3.287.169,6.855-5.583a16.04,16.04,0,0,1-3.163,3.152Z" transform="translate(-112.991 -175.422)" fill="#624800"/>
          <path id="Trazado_823982" data-name="Trazado 823982" d="M118.725,182.784a13.052,13.052,0,0,1-2.555-2.544c2.881,4.637,5.538,4.5,5.538,4.5l.056-.653s-.574.439-3.039-1.306Z" transform="translate(-113.615 -175.869)" fill="#624800"/>
        </g>
      </g>
      <g id="Grupo_1074132" data-name="Grupo 1074132" transform="translate(138.66 168.586)">
        <path id="Trazado_823983" data-name="Trazado 823983" d="M139.807,150.512a4.97,4.97,0,0,0-5.2,0c-5.673,3.557-23.806,49.221,2.6,49.221C162.15,199.733,145.48,154.057,139.807,150.512Z" transform="translate(-123.184 -149.777)" fill="#00b452"/>
        <path id="Trazado_823984" data-name="Trazado 823984" d="M129.673,181.743c-.394-17.525,4.806-30.571,3.962-30.042-5.527,3.467-21.757,47.938,2.533,47.938,0,0-6.1-.5-6.483-17.9Z" transform="translate(-123.191 -149.538)" fill="#00873e"/>
        <g id="Grupo_1074131" data-name="Grupo 1074131" transform="translate(4.67 26.705)">
          <path id="Trazado_823985" data-name="Trazado 823985" d="M135.533,173.668l-1.643,31.865c.394-.023,2.949.023,3.332,0-.124-13.631-1.351-31.865-1.6-31.865C135.623,173.668,135.533,173.3,135.533,173.668Z" transform="translate(-126.517 -173.503)" fill="#624800"/>
          <path id="Trazado_823986" data-name="Trazado 823986" d="M131.482,187.7a20.823,20.823,0,0,1-4.142-4.12c4.671,7.519,8.971,7.294,8.971,7.294l.09-1.058s-.923.709-4.919-2.127Z" transform="translate(-127.34 -172.238)" fill="#624800"/>
          <path id="Trazado_823987" data-name="Trazado 823987" d="M139.566,185.271c-3.4,2.4-4.176,1.8-4.176,1.8l.079.9s3.647.191,7.62-6.2a17.7,17.7,0,0,1-3.523,3.5Z" transform="translate(-126.329 -172.465)" fill="#624800"/>
          <path id="Trazado_823988" data-name="Trazado 823988" d="M132.706,180.645a14.141,14.141,0,0,1-2.836-2.825c3.208,5.155,6.157,5.009,6.157,5.009l.068-.732s-.63.484-3.377-1.452Z" transform="translate(-127.022 -172.961)" fill="#624800"/>
        </g>
      </g>
      <g id="Grupo_1074134" data-name="Grupo 1074134" transform="translate(108.212 183.199)">
        <path id="Trazado_823989" data-name="Trazado 823989" d="M117.031,171.967a9.207,9.207,0,1,0-18.414,0,9.872,9.872,0,0,0,.1,1.294,11.695,11.695,0,1,0,18.234,0,9.869,9.869,0,0,0,.1-1.294Z" transform="translate(-96.14 -162.76)" fill="#c2d56a"/>
        <g id="Grupo_1074133" data-name="Grupo 1074133" transform="translate(5.527 9.048)">
          <path id="Trazado_823990" data-name="Trazado 823990" d="M106.987,170.924l-.507,34.443a.5.5,0,0,0,.507.507h.068a.5.5,0,0,0,.507-.507s-.225-34.443-.507-34.443C107.054,170.924,106.987,170.643,106.987,170.924Z" transform="translate(-100.368 -170.799)" fill="#624800"/>
          <path id="Trazado_823991" data-name="Trazado 823991" d="M104.089,181.413a15.4,15.4,0,0,1-3.039-3.073c3.433,5.617,6.585,5.459,6.585,5.459l.068-.788s-.675.529-3.613-1.587Z" transform="translate(-101.05 -169.852)" fill="#624800"/>
          <path id="Trazado_823992" data-name="Trazado 823992" d="M110.023,179.6c-2.488,1.8-3.073,1.351-3.073,1.351l.056.675s2.679.135,5.594-4.637a13.549,13.549,0,0,1-2.578,2.611Z" transform="translate(-100.309 -170.021)" fill="#624800"/>
          <path id="Trazado_823993" data-name="Trazado 823993" d="M104.992,176.136a10.619,10.619,0,0,1-2.082-2.116c2.352,3.849,4.514,3.737,4.514,3.737l.045-.54s-.461.36-2.476-1.092Z" transform="translate(-100.816 -170.394)" fill="#624800"/>
        </g>
      </g>
      <g id="Grupo_1074136" data-name="Grupo 1074136" transform="translate(65.328 195.231)">
        <path id="Trazado_823994" data-name="Trazado 823994" d="M73.044,180.057a6.607,6.607,0,0,0-13.214,0,8.485,8.485,0,0,0,.068.934,8.386,8.386,0,1,0,13.057,0,6.292,6.292,0,0,0,.068-.934Z" transform="translate(-58.04 -173.45)" fill="#c2d56a"/>
        <g id="Grupo_1074135" data-name="Grupo 1074135" transform="translate(3.985 6.495)">
          <path id="Trazado_823995" data-name="Trazado 823995" d="M65.84,179.31l-.36,24.706a.356.356,0,0,0,.36.36h.045a.356.356,0,0,0,.36-.36s-.158-24.706-.36-24.706C65.885,179.31,65.84,179.107,65.84,179.31Z" transform="translate(-61.09 -179.22)" fill="#624800"/>
          <path id="Trazado_823996" data-name="Trazado 823996" d="M63.764,186.836a11.058,11.058,0,0,1-2.184-2.206c2.465,4.03,4.727,3.917,4.727,3.917l.045-.563s-.484.383-2.589-1.137Z" transform="translate(-61.58 -178.541)" fill="#624800"/>
          <path id="Trazado_823997" data-name="Trazado 823997" d="M68.016,185.528c-1.79,1.283-2.206.968-2.206.968l.045.484s1.925.1,4.018-3.32a9.484,9.484,0,0,1-1.857,1.88Z" transform="translate(-61.049 -178.662)" fill="#624800"/>
          <path id="Trazado_823998" data-name="Trazado 823998" d="M64.407,183.05a7.591,7.591,0,0,1-1.5-1.52c1.688,2.769,3.242,2.679,3.242,2.679l.034-.394s-.338.259-1.778-.777Z" transform="translate(-61.413 -178.93)" fill="#624800"/>
        </g>
      </g>
      <g id="Grupo_1074138" data-name="Grupo 1074138" transform="translate(34.273 213.488)">
        <path id="Trazado_823999" data-name="Trazado 823999" d="M60.874,198.146a2.581,2.581,0,0,0-1.643.6c0-.124.023-.236.023-.36a4.872,4.872,0,0,0-8.644-3.084,3.516,3.516,0,0,0-1.047-.169,3.428,3.428,0,0,0-1.407.3,6.793,6.793,0,0,0-13.507,1.036v.1a3.7,3.7,0,0,0-.8-.1,3.4,3.4,0,0,0,0,6.8v.124H61.223v-.158a2.556,2.556,0,0,0-.349-5.088Z" transform="translate(-30.45 -189.67)" fill="#93b033"/>
        <g id="Grupo_1074137" data-name="Grupo 1074137" transform="translate(4.063 0.203)">
          <path id="Trazado_824000" data-name="Trazado 824000" d="M40.273,189.85a6.213,6.213,0,1,0,0,12.426s-3.568-1.126-3.838-6.213A6.39,6.39,0,0,1,40.273,189.85Z" transform="translate(-34.06 -189.85)" fill="#6d9300"/>
          <path id="Trazado_824001" data-name="Trazado 824001" d="M47.855,194.58a3.226,3.226,0,0,0-3.185,3.287,3.353,3.353,0,0,1,3.208-2.049,3.319,3.319,0,0,1,3.264,1.958,3.226,3.226,0,0,0-3.287-3.185Z" transform="translate(-32.728 -189.256)" fill="#6d9300"/>
        </g>
      </g>
      <path id="Trazado_824002" data-name="Trazado 824002" d="M130.086,144.133a4.821,4.821,0,0,0-1.475,1.745,4.8,4.8,0,0,0-2.094-.81c-1.857-.27-3.219.371-3.388,1.52,0,0,.518-1.047,3.275-.732a5,5,0,0,1,2,.63l-.056,1.429.687-.158.8-.18-.732-1.249a6.784,6.784,0,0,1,1.452-1.553c1.97-1.576,3.219-.934,3.219-.934-.7-.934-2.206-.833-3.7.293Z" transform="translate(15.462 17.983)" fill="#84888a"/>
      <path id="Trazado_824003" data-name="Trazado 824003" d="M72.713,116.891a4.076,4.076,0,0,0-1.2,1.621,4.092,4.092,0,0,0-1.8-.822c-1.587-.3-2.735.281-2.848,1.362,0,0,.405-.979,2.769-.608a4.308,4.308,0,0,1,1.722.642v1.362l.574-.135.675-.158-.653-1.2a5.649,5.649,0,0,1,1.193-1.429c1.632-1.452,2.713-.81,2.713-.81-.608-.9-1.891-.844-3.14.191Z" transform="translate(8.396 14.576)" fill="#84888a"/>
      <path id="Trazado_824004" data-name="Trazado 824004" d="M70.654,131.019a2.346,2.346,0,0,0-.754.867,2.417,2.417,0,0,0-1.058-.394c-.934-.124-1.632.191-1.722.765,0,0,.259-.518,1.666-.371a2.572,2.572,0,0,1,1.013.3l-.034.709.349-.079.405-.09-.36-.608a3.283,3.283,0,0,1,.743-.765c1-.788,1.632-.473,1.632-.473-.349-.45-1.114-.405-1.88.158Z" transform="translate(8.428 16.397)" fill="#84888a"/>
      <path id="Trazado_824005" data-name="Trazado 824005" d="M44.207,124.5a3.386,3.386,0,0,0-1.024,1.171,3.381,3.381,0,0,0-1.441-.54c-1.283-.18-2.229.27-2.352,1.036,0,0,.36-.7,2.262-.507a3.477,3.477,0,0,1,1.384.416l-.045.957.473-.113.552-.124-.5-.833a4.5,4.5,0,0,1,1.013-1.047c1.362-1.069,2.229-.642,2.229-.642-.473-.619-1.52-.552-2.555.214Z" transform="translate(4.946 15.554)" fill="#84888a"/>
      <path id="Trazado_824006" data-name="Trazado 824006" d="M130.738,136.536a1.8,1.8,0,0,0-.552.63,1.721,1.721,0,0,0-.777-.281c-.687-.09-1.193.146-1.249.552,0,0,.191-.371,1.2-.27a1.754,1.754,0,0,1,.732.225l-.023.518.259-.056.293-.068-.27-.45a2.675,2.675,0,0,1,.54-.563c.732-.574,1.193-.338,1.193-.338-.259-.326-.81-.293-1.362.113Z" transform="translate(16.093 17.105)" fill="#84888a"/>
      <g id="Grupo_1074140" data-name="Grupo 1074140" transform="translate(221.501 218.902)">
        <path id="Trazado_824007" data-name="Trazado 824007" d="M216.33,199.917a1.668,1.668,0,0,0-1.058.383c0-.079.011-.158.011-.236a3.128,3.128,0,0,0-5.549-1.981,2.229,2.229,0,0,0-.675-.1,2,2,0,0,0-.9.2,4.364,4.364,0,0,0-8.678.664v.056a2.606,2.606,0,0,0-.507-.068,2.184,2.184,0,1,0,0,4.367v.079h17.57v-.1a1.64,1.64,0,0,0-.225-3.264Z" transform="translate(-196.79 -194.48)" fill="#93b033"/>
        <g id="Grupo_1074139" data-name="Grupo 1074139" transform="translate(2.623 0.124)">
          <path id="Trazado_824008" data-name="Trazado 824008" d="M203.1,194.59a3.985,3.985,0,0,0,0,7.969s-2.3-.72-2.465-3.985A4.09,4.09,0,0,1,203.1,194.59Z" transform="translate(-199.12 -194.59)" fill="#6d9300"/>
          <path id="Trazado_824009" data-name="Trazado 824009" d="M207.969,197.631a2.083,2.083,0,0,0-2.049,2.1,2.322,2.322,0,0,1,4.153-.068,2.083,2.083,0,0,0-2.1-2.049Z" transform="translate(-198.266 -194.21)" fill="#6d9300"/>
        </g>
      </g>
      <g id="Grupo_1074142" data-name="Grupo 1074142" transform="translate(89.426 218.114)">
        <path id="Trazado_824010" data-name="Trazado 824010" d="M99.046,198.282a2.066,2.066,0,0,0-.529.068v-.068a4.5,4.5,0,0,0-8.948-.687,2.142,2.142,0,0,0-.934-.2,2.107,2.107,0,0,0-.7.113,3.231,3.231,0,0,0-5.729,2.049,1.662,1.662,0,0,0,.011.236,1.689,1.689,0,1,0-1.317,2.972v.1H99.035v-.079a2.251,2.251,0,1,0,0-4.5Z" transform="translate(-79.45 -193.78)" fill="#789c00"/>
        <g id="Grupo_1074141" data-name="Grupo 1074141" transform="translate(6.956 0.135)">
          <path id="Trazado_824011" data-name="Trazado 824011" d="M92.81,193.9a4.218,4.218,0,0,1,2.544,4.12c-.18,3.365-2.544,4.12-2.544,4.12a4.12,4.12,0,1,0,0-8.239Z" transform="translate(-84.728 -193.9)" fill="#00744c"/>
          <path id="Trazado_824012" data-name="Trazado 824012" d="M87.8,197.04a2.133,2.133,0,0,0-2.172,2.116,2.2,2.2,0,0,1,2.161-1.294,2.228,2.228,0,0,1,2.127,1.362,2.133,2.133,0,0,0-2.116-2.172Z" transform="translate(-85.63 -193.506)" fill="#00744c"/>
        </g>
      </g>
      <g id="Grupo_1074144" data-name="Grupo 1074144" transform="translate(73.95 186.294)">
        <path id="Trazado_824013" data-name="Trazado 824013" d="M84.936,173.986a8.476,8.476,0,0,0-16.951,0,8.387,8.387,0,0,0,.09,1.193,10.749,10.749,0,1,0,16.749,0,8.387,8.387,0,0,0,.09-1.193Z" transform="translate(-65.7 -165.51)" fill="#97c266"/>
        <g id="Grupo_1074143" data-name="Grupo 1074143" transform="translate(5.11 8.327)">
          <path id="Trazado_824014" data-name="Trazado 824014" d="M75.691,173.023l-.461,31.685a.456.456,0,0,0,.461.461h.056a.456.456,0,0,0,.461-.461s-.2-31.685-.461-31.685C75.748,173.023,75.691,172.764,75.691,173.023Z" transform="translate(-69.613 -172.908)" fill="#624800"/>
          <path id="Trazado_824015" data-name="Trazado 824015" d="M73.031,182.665a14.272,14.272,0,0,1-2.791-2.825c3.152,5.166,6.056,5.02,6.056,5.02l.056-.732s-.619.484-3.32-1.463Z" transform="translate(-70.24 -172.037)" fill="#624800"/>
          <path id="Trazado_824016" data-name="Trazado 824016" d="M78.5,181c-2.3,1.655-2.825,1.238-2.825,1.238l.056.619s2.465.124,5.144-4.266A12.543,12.543,0,0,1,78.5,181Z" transform="translate(-69.558 -172.194)" fill="#624800"/>
          <path id="Trazado_824017" data-name="Trazado 824017" d="M73.853,177.817a9.606,9.606,0,0,1-1.913-1.947c2.161,3.546,4.153,3.444,4.153,3.444l.045-.5s-.428.338-2.274-1Z" transform="translate(-70.027 -172.536)" fill="#624800"/>
        </g>
      </g>
      <path id="Trazado_824018" data-name="Trazado 824018" d="M92.467,43.56a4.817,4.817,0,1,0,4.817,4.817A4.823,4.823,0,0,0,92.467,43.56Z" transform="translate(11.006 5.47)" fill="#dceef7"/>
      <path id="Trazado_824019" data-name="Trazado 824019" d="M68.86,55.27a1.79,1.79,0,1,0,1.79,1.79A1.787,1.787,0,0,0,68.86,55.27Z" transform="translate(8.422 6.941)" fill="#fff"/>
      <path id="Trazado_824020" data-name="Trazado 824020" d="M151.664,103.01a2.274,2.274,0,1,0,2.274,2.274A2.275,2.275,0,0,0,151.664,103.01Z" transform="translate(18.759 12.935)" fill="#fff"/>
      <circle id="Elipse_5929" data-name="Elipse 5929" cx="11.526" cy="11.526" r="11.526" transform="translate(120.993 141.658) rotate(-45)" fill="#fdffb2"/>
      <path id="Trazado_824021" data-name="Trazado 824021" d="M123.606,115.61a11.526,11.526,0,0,0,0,23.052s-6.258-5.763-6.258-11.526S123.606,115.61,123.606,115.61Z" transform="translate(14.074 14.518)" fill="#fff566"/>
      <path id="Trazado_824022" data-name="Trazado 824022" d="M174.123,275.98h-18.4a3.669,3.669,0,0,0,0,7.339h18.4a3.669,3.669,0,0,0,0-7.339Z" transform="translate(19.093 34.656)" fill="#a1d1e0"/>
      <path id="Trazado_824023" data-name="Trazado 824023" d="M166.892,257.33H110.051c-6.224,0-9.061,2.42-9.061,5.38s2.836,5.38,9.061,5.38h56.842c6.224,0,9.061-2.42,9.061-5.38S173.117,257.33,166.892,257.33Z" transform="translate(12.681 32.314)" fill="#a1d1e0"/>
      <g id="Grupo_1074146" data-name="Grupo 1074146" transform="translate(0.003 226.725)">
        <path id="Trazado_824027" data-name="Trazado 824027" d="M246.558,201.43v14.43H27.825c-13.417,0-14.655-14.43,0-14.43Z" transform="translate(2.168 -201.43)" fill="#009969"/>
        <path id="Trazado_824028" data-name="Trazado 824028" d="M57.795,226.95H242.614v12.179H57.795c-11.886,0-11.762-10.839-1.733-12.055a14.107,14.107,0,0,1,1.733-.124Z" transform="translate(6.112 -198.225)" fill="#84888a"/>
        <path id="Trazado_824029" data-name="Trazado 824029" d="M248.729,214.25v14.419H10.839c-14.655,0-14.239-14.419,0-14.419h237.89Z" transform="translate(-0.003 -199.82)" fill="#00744c"/>
      </g>
    </g>
  </g>
</svg>
