<svg xmlns="http://www.w3.org/2000/svg" width="85" height="85" viewBox="0 0 85 85">
  <g id="Grupo_1075669" data-name="Grupo 1075669" transform="translate(-180.332 -9559.387)">
    <g id="Grupo_1075601" data-name="Grupo 1075601" transform="translate(-105 3108.387)">
      <circle id="Elipse_4872" data-name="Elipse 4872" cx="42.5" cy="42.5" r="42.5" transform="translate(285.332 6451)" fill="#eeffde"/>
      <g id="Grupo_156261" data-name="Grupo 156261" transform="translate(302.332 6467)">
        <rect id="Rectángulo_47312" data-name="Rectángulo 47312" width="7.049" height="3.525" transform="translate(4.424 16.762)" fill="#eeffde"/>
        <path id="Trazado_198297" data-name="Trazado 198297" d="M10.008,59.838h7.045l-3.525,4.405Z" transform="translate(-5.582 -33.378)" fill="#eeffde"/>
      </g>
    </g>
    <path id="Trazado_824315" data-name="Trazado 824315" d="M16.187,29H1.3V25.777L8.159,18.57q2.534-2.886,2.534-4.585a3.189,3.189,0,0,0-.6-2.095,2.144,2.144,0,0,0-1.743-.718,2.171,2.171,0,0,0-1.831.959,3.943,3.943,0,0,0-.7,2.4H.864A7,7,0,0,1,1.846,10.9,6.882,6.882,0,0,1,4.57,8.3a8.094,8.094,0,0,1,3.9-.937,7.962,7.962,0,0,1,5.325,1.6,5.7,5.7,0,0,1,1.868,4.585A6.658,6.658,0,0,1,15.19,16a10.76,10.76,0,0,1-1.458,2.5,36.715,36.715,0,0,1-3.186,3.508L7.793,25.191h8.394Z" transform="translate(214 9582.387)" fill="#12263f"/>
  </g>
</svg>
