<svg xmlns="http://www.w3.org/2000/svg" xmlns:xlink="http://www.w3.org/1999/xlink" width="505" height="600" viewBox="0 0 505 600">
  <defs>
    <clipPath id="clip-path">
      <rect id="Rectángulo_378295" data-name="Rectángulo 378295" width="505" height="600" transform="translate(284.667 10393.808)" fill="#7816c2"/>
    </clipPath>
    <clipPath id="clip-path-2">
      <rect id="Rectángulo_378297" data-name="Rectángulo 378297" width="505" height="552.318" fill="none"/>
    </clipPath>
  </defs>
  <g id="Enmascarar_grupo_395" data-name="Enmascarar grupo 395" transform="translate(-284.667 -10393.807)" clip-path="url(#clip-path)">
    <g id="mujer_renovable" data-name="mujer renovable" transform="translate(284.667 10417.648)" clip-path="url(#clip-path-2)">
      <g id="Grupo_1075648" data-name="Grupo 1075648">
        <g id="Grupo_1075623" data-name="Grupo 1075623">
          <g id="Grupo_1075617" data-name="Grupo 1075617">
            <path id="Trazado_824133" data-name="Trazado 824133" d="M242.031,153.539c22.835,39.24,66.732,43.435,104.6,19.8,19.614-11.723,31.6-29.1,45.12-46.831,3.683,7.828,17.1,16.53,16.6,24.683a134.225,134.225,0,0,1-19.177,32.885C348.24,238.96,250.883,259.7,202.392,204.514" fill="#f3d54a"/>
            <path id="Trazado_824134" data-name="Trazado 824134" d="M233.454,172.853c14.145,15.569,34.945,24.458,55.957,25.569s42.086-5.206,59.977-16.28,32.685-26.73,44.246-44.3" fill="none" stroke="#e9bc38" stroke-linecap="round" stroke-linejoin="round" stroke-width="1.248"/>
            <path id="Trazado_824135" data-name="Trazado 824135" d="M221.332,203.853c10.9,8.989,24.47,14.47,38.416,16.692s28.291,1.3,42.111-1.611a152.161,152.161,0,0,0,100.253-73.873" fill="none" stroke="#e9bc38" stroke-linecap="round" stroke-linejoin="round" stroke-width="1.248"/>
          </g>
          <g id="Grupo_1075622" data-name="Grupo 1075622">
            <g id="Grupo_1075618" data-name="Grupo 1075618">
              <path id="Trazado_824136" data-name="Trazado 824136" d="M398.667,121.153c10.6-12.085,23.784-16.043,35.532-3.084,4.857,4.42,14.52,3.646,17.691,9.464-.574,4.907-8.265,4.257-11.686,2.7,3.408.25,10.45.674,12.073,4.569.774,1.86-.674,3.5-2.21,4.357a9.814,9.814,0,0,1-3.6,1.111c-2.285.287-4.52.812-6.467-.936a5.34,5.34,0,0,1,2.048,4.033c-.075,1.561-1.548,3.071-3.071,2.722a2.935,2.935,0,0,1,.112,5.231,5.455,5.455,0,0,1-3.2.325,33.317,33.317,0,0,1-18.265-8.24,19.478,19.478,0,0,1-4.557,5.656,8.336,8.336,0,0,1-6.829,1.81,9.716,9.716,0,0,1-4.894-3.333c-2.335-2.684-4.707-6.642-4.27-10.3" fill="#9c522a"/>
              <path id="Trazado_824137" data-name="Trazado 824137" d="M423.3,120.579a87.223,87.223,0,0,0,12.647,7.915" fill="none" stroke="#111414" stroke-linecap="round" stroke-linejoin="round" stroke-width="1.248"/>
              <path id="Trazado_824138" data-name="Trazado 824138" d="M420.378,137.009a66.327,66.327,0,0,0,11.436,7.029" fill="none" stroke="#111414" stroke-linecap="round" stroke-linejoin="round" stroke-width="1.248"/>
            </g>
            <g id="Grupo_1075621" data-name="Grupo 1075621">
              <g id="Grupo_1075619" data-name="Grupo 1075619">
                <path id="Trazado_824139" data-name="Trazado 824139" d="M487.009,134a30.443,30.443,0,1,0-51.4,22.086,15.2,15.2,0,0,1,4.944,11.186c0,.4,0,.8.025,1.2a16.018,16.018,0,0,0,32.011-.9V167.5a15.257,15.257,0,0,1,4.807-11.3,30.365,30.365,0,0,0,9.613-22.211Z" fill="#aad447"/>
                <path id="Trazado_824140" data-name="Trazado 824140" d="M467.708,117.071c2.672,4.981,8.527,6.8,12.71,10.2C483.176,117.445,462.826,98.818,467.708,117.071Z" fill="#fff"/>
                <path id="Trazado_824141" data-name="Trazado 824141" d="M451.9,166.211l-.237.35c1.923-8.6-9.538-13.633-8.2-22.186.262-1.536,1.523-3,3.171-2.584,1.523.375,1.573,1.785,2.6,2.772a2.254,2.254,0,0,0,2.6.487,4.677,4.677,0,0,0,1.348-1.935,4.571,4.571,0,0,1,2.809-2.235,3.533,3.533,0,0,1,3.4.924c.712.762,1.124,1.923,2.11,2.185a2.376,2.376,0,0,0,1.848-.437,13.538,13.538,0,0,1,1.635-1.061,3.745,3.745,0,0,1,4.42,1.573c1.3,2.035.637,4.132.013,6.217-1.76,5.706-7.528,10.412-6.8,16.78" fill="none" stroke="#111414" stroke-linecap="round" stroke-linejoin="round" stroke-width="1.248"/>
              </g>
              <g id="Grupo_1075620" data-name="Grupo 1075620">
                <path id="Trazado_824142" data-name="Trazado 824142" d="M439.292,165.612H473.6v4.844a17.152,17.152,0,0,1-17.154,17.154h0a17.152,17.152,0,0,1-17.154-17.154v-4.844Z" fill="#7cac35"/>
                <line id="Línea_1151" data-name="Línea 1151" y1="2.097" x2="23.222" transform="translate(445.972 181.929)" fill="none" stroke="#111414" stroke-linecap="round" stroke-linejoin="round" stroke-width="1.248"/>
                <line id="Línea_1152" data-name="Línea 1152" y1="1.91" x2="31.687" transform="translate(440.99 175.999)" fill="none" stroke="#111414" stroke-linecap="round" stroke-linejoin="round" stroke-width="1.248"/>
              </g>
            </g>
            <path id="Trazado_824143" data-name="Trazado 824143" d="M407.156,138.232c-6.53,3.933-15.631.712-18.5-6.2,2.472-7.141,9.863-15.182,18.165-14.1,8.2,2.909,14.795,10.025,23.921,11.087,5.506.325,6.3,5.768,1.473,8.015-9.563,6.567-17.217-4.769-25.045,1.2Z" fill="#ba704f"/>
          </g>
        </g>
        <g id="Grupo_1075627" data-name="Grupo 1075627">
          <g id="Grupo_1075625" data-name="Grupo 1075625">
            <g id="Grupo_1075624" data-name="Grupo 1075624">
              <path id="Trazado_824144" data-name="Trazado 824144" d="M126.122,62.05c-16.493-14.857-57.88-1.061-35.969,15.107-11.911-.062-26.568,11.274-18.627,22.872,11.549,12.335,32.91,2.759,38.266-10.862-3.733,19.064,23.6,6.992,21.936-5.631" fill="#111414"/>
              <path id="Trazado_824145" data-name="Trazado 824145" d="M122.988,66.02a22.168,22.168,0,0,0-16.967-5.031c-3.658.474-7.516,2.2-8.989,5.568a8.939,8.939,0,0,0,0,6.58,16.8,16.8,0,0,0,3.7,5.593,15.09,15.09,0,0,0-12.747,5.793c-1.186,1.548-2.023,3.833-.812,5.344.886,1.111,2.5,1.3,3.933,1.261,8.277-.262,15.981-5.468,20.275-12.547a6.052,6.052,0,0,0,2.16,6.879,7.3,7.3,0,0,0,7.379.474,9.242,9.242,0,0,0,4.669-5.905" fill="none" stroke="#333" stroke-linecap="round" stroke-linejoin="round" stroke-width="1.248"/>
            </g>
            <path id="Trazado_824146" data-name="Trazado 824146" d="M130.379,56.481c-25.981,10.425-5.568,44.983,19.2,34.3" fill="#aad447"/>
          </g>
          <g id="Grupo_1075626" data-name="Grupo 1075626">
            <path id="Trazado_824147" data-name="Trazado 824147" d="M232.618,24.321c23.659,6.779,8.165,41.225-3,53.585,15.968,13.9-4.132,33.122-19.888,34.9-16.218,5.793-34.084,6.829-50.376.7-27.517-8.477-38.828-43.972-26.768-68.8,1.174-5.256,19.788-30.076,23.209-18.877,8.827-8.677,48.5-24.345,48.666-2.559a57.651,57.651,0,0,1,28.153,1.074Z" fill="#111414"/>
            <path id="Trazado_824148" data-name="Trazado 824148" d="M222.855,82.562a9.911,9.911,0,0,1,6.717,3.808,7.917,7.917,0,0,1,1.036,7.528,6.549,6.549,0,0,1-6.242,4.045,5.645,5.645,0,0,1-5.206-5.056" fill="none" stroke="#f3d54a" stroke-linecap="round" stroke-linejoin="round" stroke-width="1.248"/>
            <path id="Trazado_824149" data-name="Trazado 824149" d="M212.28,30.438a38.708,38.708,0,0,1,8.128-1.76,15.272,15.272,0,0,1,8.1,1.386,13.912,13.912,0,0,1,6.942,9.826,21.676,21.676,0,0,1-1.586,12.185,50.4,50.4,0,0,1-6.4,10.637" fill="none" stroke="#333" stroke-linecap="round" stroke-linejoin="round" stroke-width="1.248"/>
          </g>
        </g>
        <g id="Grupo_1075630" data-name="Grupo 1075630">
          <path id="Trazado_824150" data-name="Trazado 824150" d="M139.943,145.786c31.537,7.965,66.157,13.746,97.444,2.834-15.082-13.683-38.279-17.679-57.705-22-18.153-3.059-36.618-3.845-55.033-4.108-6.217-.449-13.334.112-19.064,2.659,6.2,12.585,21.349,17.6,34.358,20.613Z" fill="#ba704f"/>
          <g id="Grupo_1075629" data-name="Grupo 1075629">
            <path id="Trazado_824151" data-name="Trazado 824151" d="M237.387,148.632c-31.287,10.912-65.908,5.131-97.444-2.834-13-3.009-28.153-8.028-34.358-20.613-5.518,2.447-9.738,6.742-10.612,13.783-9.676,39.8-5.281,82.912,12.76,119.755l78.767,12.01c9.264-6.629,15.207-16.83,20.762-26.768,8.19-14.682,16.143-29.552,22.548-45.12a204.364,204.364,0,0,0,8.252-23.933c1.086-3.983,2.035-8,2.809-12.048.562-2.946,2.335-8.128-.037-10.762a44.861,44.861,0,0,0-3.446-3.446Z" fill="#f3d54a"/>
            <path id="Trazado_824152" data-name="Trazado 824152" d="M220.046,221.132c10.5-20.363,18.8-37.068,18.078-57.543" fill="none" stroke="#111414" stroke-linecap="round" stroke-linejoin="round" stroke-width="1.248"/>
            <g id="Grupo_1075628" data-name="Grupo 1075628">
              <path id="Trazado_824153" data-name="Trazado 824153" d="M139.306,155.262a223.339,223.339,0,0,1-17.841,106.783" fill="none" stroke="#e9bc38" stroke-linecap="round" stroke-linejoin="round" stroke-width="1.248"/>
              <path id="Trazado_824154" data-name="Trazado 824154" d="M216.1,160.043a160.9,160.9,0,0,1-36.618,106.5" fill="none" stroke="#e9bc38" stroke-linecap="round" stroke-linejoin="round" stroke-width="1.248"/>
              <path id="Trazado_824155" data-name="Trazado 824155" d="M175.1,162.316a230.038,230.038,0,0,1-18.265,105.41" fill="none" stroke="#e9bc38" stroke-linecap="round" stroke-linejoin="round" stroke-width="1.248"/>
              <path id="Trazado_824156" data-name="Trazado 824156" d="M110.017,183.315a298.889,298.889,0,0,0,6.33,78.455" fill="none" stroke="#e9bc38" stroke-linecap="round" stroke-linejoin="round" stroke-width="1.248"/>
            </g>
          </g>
        </g>
        <g id="Grupo_1075631" data-name="Grupo 1075631">
          <path id="Trazado_824157" data-name="Trazado 824157" d="M152.228,131.628a3.324,3.324,0,0,0-.375,1.71,3.23,3.23,0,0,0,1.523,1.935,53.4,53.4,0,0,0,31.162,10.35l7.341-38.616a8.387,8.387,0,0,0,.1-4.008,7.766,7.766,0,0,0-3.121-3.658c-3.533-2.609-7.553-4.794-11.923-5.231-4.969-.5-9.963,1.373-11.736,6.168-2.484,6.679-5.431,13.209-8.165,19.788q-2.4,5.787-4.807,11.573Z" fill="#ba704f"/>
          <path id="Trazado_824158" data-name="Trazado 824158" d="M163.339,102.888c.4,14.045,8.814,27.941,23.484,30.4q2.959-11.424,5.169-23.047" fill="#9c522a"/>
        </g>
        <g id="Grupo_1075633" data-name="Grupo 1075633">
          <path id="Trazado_824159" data-name="Trazado 824159" d="M54.222,361.149l1.049-4.507C23.784,418.28,28.216,492.053,17.192,559.272c18.665,4.557,40.426,8.764,59.428,5.281,2.072-52.574,29.8-99.542,49.989-146.972,7.816-18.428,14.757-36.743,23.447-54.809" fill="#ba704f"/>
          <path id="Trazado_824160" data-name="Trazado 824160" d="M205.176,309.837A1640.864,1640.864,0,0,1,224.54,567.624a389.575,389.575,0,0,1-69.653,4.857,1061.807,1061.807,0,0,0-14.432-217.024" fill="#ba704f"/>
          <g id="Grupo_1075632" data-name="Grupo 1075632">
            <path id="Trazado_824161" data-name="Trazado 824161" d="M105.584,255.94C60,299.612,30.575,362.086,26.218,425.372c19.539,9.027,41.237,12.023,62.574,14.907,45.882,7.853,92.326,8,137.508-3.82,6.967-43.66-1.66-87.956-17.416-128.894q-3.97-10.375-8.615-20.5c-1.361-2.984-6.779-18.852-9.738-19.626-31-8.128-53.56-3.945-84.947-11.5Z" fill="#111414"/>
            <path id="Trazado_824162" data-name="Trazado 824162" d="M114.049,260.684A333.267,333.267,0,0,0,48,431.377" fill="none" stroke="#fff" stroke-linecap="round" stroke-linejoin="round" stroke-width="1.248"/>
            <path id="Trazado_824163" data-name="Trazado 824163" d="M118.606,354.533a143.137,143.137,0,0,0,72.287-23.322c-.35.462-.712.924-1.074,1.373" fill="none" stroke="#fff" stroke-linecap="round" stroke-linejoin="round" stroke-width="1.248"/>
            <path id="Trazado_824164" data-name="Trazado 824164" d="M185.912,349.726a109.307,109.307,0,0,1-44.546,27.329" fill="none" stroke="#fff" stroke-linecap="round" stroke-linejoin="round" stroke-width="1.248"/>
          </g>
        </g>
        <g id="Grupo_1075638" data-name="Grupo 1075638">
          <path id="Trazado_824165" data-name="Trazado 824165" d="M220.121,101.577c-4.707,7.641-11.861,14.1-20.513,16.48-9.876,2.722-20.712-.162-29.165-5.943a45.287,45.287,0,0,1-19.451-32.673A42.026,42.026,0,0,1,164.962,44.3c9.925-8.54,24.358-11.673,36.805-7.628,26.743,8.677,31.749,43.148,18.34,64.921Z" fill="#ba704f"/>
          <g id="Grupo_1075634" data-name="Grupo 1075634">
            <path id="Trazado_824166" data-name="Trazado 824166" d="M149.931,71.226c8.165,17.8,18.053,4.869,13.172-8.34,8.7,4.182,23.534,1.7,14.994-13.933,14.3,13.933,60.327,3.845,30.975-14.482-11.286-7.041-26.405-7.191-38.216-1.061-12.922,6.867-25.282,24.545-19.589,39.252" fill="#111414"/>
            <path id="Trazado_824167" data-name="Trazado 824167" d="M129.818,62.387a25.176,25.176,0,0,0,10.325,2.172,11.936,11.936,0,0,0,9.214-4.544c2.06-2.884,2.135-7.254-.337-9.8a18.96,18.96,0,0,0,12.2,2.772,14.233,14.233,0,0,0,10.362-6.654,11.488,11.488,0,0,0-.275-12.073,24.141,24.141,0,0,0,13.771,9.376c5.543,1.224,11.761-.187,15.756-4.207s5.269-10.737,2.422-15.644" fill="none" stroke="#333" stroke-linecap="round" stroke-linejoin="round" stroke-width="1.248"/>
            <path id="Trazado_824168" data-name="Trazado 824168" d="M149.931,71.226c8.165,17.8,21.736,2.847,13.172-8.34,7.266,9.513,23.534,1.7,14.994-13.933,14.3,13.933,60.327,3.845,30.975-14.482-11.286-7.041-26.405-7.191-38.216-1.061-12.922,6.867-25.282,24.545-19.589,39.252" fill="#111414"/>
          </g>
          <g id="Grupo_1075635" data-name="Grupo 1075635">
            <path id="Trazado_824169" data-name="Trazado 824169" d="M185.512,91.452a6.921,6.921,0,0,1-1.835,5.481,5.158,5.158,0,0,1-5.493,1.2A6.092,6.092,0,0,1,175.25,95.1a7.855,7.855,0,0,1-.662-5.368,5.834,5.834,0,0,1,3.471-4.02,6.312,6.312,0,0,1,5.219.687c1.423,1.011,2.1,3.421,2.247,5.056Z" fill="#9c522a"/>
            <path id="Trazado_824170" data-name="Trazado 824170" d="M216.962,94.523a3.743,3.743,0,0,1,1.823,2.9,7.117,7.117,0,0,1-.612,3.471,7.8,7.8,0,0,1-1.673,2.672,4.146,4.146,0,0,1-2.834,1.248A3.9,3.9,0,0,1,210.2,102.3a5.3,5.3,0,0,1,.4-4.382c1.024-1.86,4.045-4.619,6.355-3.4Z" fill="#9c522a"/>
            <path id="Trazado_824171" data-name="Trazado 824171" d="M219.047,78.168c-.075,1.785-1.186,3.184-2.484,3.134s-2.3-1.548-2.222-3.321,1.186-3.184,2.484-3.134,2.3,1.536,2.222,3.321Z" fill="#111414"/>
            <path id="Trazado_824172" data-name="Trazado 824172" d="M194.4,78.692c-.075,1.785-1.186,3.184-2.484,3.134s-2.3-1.536-2.222-3.321,1.186-3.184,2.484-3.134S194.477,76.919,194.4,78.692Z" fill="#111414"/>
            <path id="Trazado_824173" data-name="Trazado 824173" d="M189.046,96.183a9.415,9.415,0,0,0,16.83,5.531" fill="none" stroke="#111414" stroke-linecap="round" stroke-linejoin="round" stroke-width="1.248"/>
            <path id="Trazado_824174" data-name="Trazado 824174" d="M203.728,71.488a65.383,65.383,0,0,1,7.928,15.219,2.874,2.874,0,0,1,.1,2.472,2.608,2.608,0,0,1-1.636.974,11.26,11.26,0,0,1-5.968-.087" fill="none" stroke="#111414" stroke-linecap="round" stroke-linejoin="round" stroke-width="1.248"/>
            <path id="Trazado_824175" data-name="Trazado 824175" d="M196.911,68.38a10.859,10.859,0,0,0-17.5,3.908" fill="none" stroke="#111414" stroke-linecap="round" stroke-linejoin="round" stroke-width="1.248"/>
            <path id="Trazado_824176" data-name="Trazado 824176" d="M208.822,68.679a7.99,7.99,0,0,1,14.67-2.472" fill="none" stroke="#111414" stroke-linecap="round" stroke-linejoin="round" stroke-width="1.248"/>
          </g>
          <g id="Grupo_1075637" data-name="Grupo 1075637">
            <path id="Trazado_824177" data-name="Trazado 824177" d="M156.423,73.686c-5.194-10.425-23.834-5.656-20.987,6.5,1.91,7.728,14.682,14.42,20.675,7.816,2.085-4.345,1.66-9.7.312-14.308Z" fill="#ba704f"/>
            <path id="Trazado_824178" data-name="Trazado 824178" d="M149.419,86.458c8.964,13.446-14.532,15.569-6.642,3" fill="none" stroke="#f3d54a" stroke-linecap="round" stroke-linejoin="round" stroke-width="1.248"/>
            <g id="Grupo_1075636" data-name="Grupo 1075636">
              <path id="Trazado_824179" data-name="Trazado 824179" d="M146.735,73.736A9.74,9.74,0,0,1,146.7,83.2" fill="none" stroke="#111414" stroke-linecap="round" stroke-linejoin="round" stroke-width="1.248"/>
              <path id="Trazado_824180" data-name="Trazado 824180" d="M147.846,78.68a5.589,5.589,0,0,1-5.793-2.1" fill="none" stroke="#111414" stroke-linecap="round" stroke-linejoin="round" stroke-width="1.248"/>
            </g>
          </g>
        </g>
        <g id="Grupo_1075647" data-name="Grupo 1075647">
          <g id="Grupo_1075645" data-name="Grupo 1075645">
            <path id="Trazado_824181" data-name="Trazado 824181" d="M139.893,195.076a23.064,23.064,0,0,1,10.462-7.528c4.195-1.486,8.814-1.748,12.772-3.8,1.061-.549,2.3-1.248,3.383-.724a2.743,2.743,0,0,1,1.273,2.372c.2,2.8-1.486,5.393-3.5,7.341s-4.432,3.458-6.342,5.493-3.346,4.857-2.734,7.591" fill="#ba704f"/>
            <g id="Grupo_1075639" data-name="Grupo 1075639">
              <path id="Trazado_824182" data-name="Trazado 824182" d="M177.847,241.769l-25.169-85.659-7,1.111,12.273,90.128a15.807,15.807,0,0,0,12.572.674,15.407,15.407,0,0,0,7.329-6.242Z" fill="#7cac35"/>
              <path id="Trazado_824183" data-name="Trazado 824183" d="M146.76,167.659l12.872,12.123L154.176,161.2l-7.728,6.592" fill="#487424"/>
            </g>
            <g id="Grupo_1075640" data-name="Grupo 1075640">
              <path id="Trazado_824184" data-name="Trazado 824184" d="M135,206.337c-1.1-5.693,3.471-12.348,8.839-13.958,5.344,2.16,9.351,7.741,15.481,9.027,2.734,1.486,3.333-2.372,4.495-4,3.7-3.858,8.8,1.723,6.954,5.893a4.944,4.944,0,0,1,3.034,7.054,5.029,5.029,0,0,1,.674,8.477c5.131,21.836-30.863,10.949-40.513,4.482l1.061-16.992Z" fill="#ba704f"/>
              <path id="Trazado_824185" data-name="Trazado 824185" d="M170.643,203.278a27.769,27.769,0,0,1-3.383,5.231,9.25,9.25,0,0,1-5.244,3.159c-2.11.35-4.257-.312-6.292-.949" fill="none" stroke="#111414" stroke-linecap="round" stroke-linejoin="round" stroke-width="1.248"/>
              <path id="Trazado_824186" data-name="Trazado 824186" d="M173.677,210.332a34.139,34.139,0,0,1-3.933,5.306,11.09,11.09,0,0,1-5.618,3.308,14.478,14.478,0,0,1-6.929-.749" fill="none" stroke="#111414" stroke-linecap="round" stroke-linejoin="round" stroke-width="1.248"/>
              <path id="Trazado_824187" data-name="Trazado 824187" d="M174.264,218.8a32.261,32.261,0,0,1-5.905,4.932,11.12,11.12,0,0,1-7.366,1.685,8.163,8.163,0,0,1-2.872-1.074" fill="none" stroke="#111414" stroke-linecap="round" stroke-linejoin="round" stroke-width="1.248"/>
            </g>
            <g id="Grupo_1075644" data-name="Grupo 1075644">
              <path id="Trazado_824188" data-name="Trazado 824188" d="M165.037,148.42l.649,15.007,40.364-7.3-.062-3.271Z" fill="#375b1a"/>
              <g id="Grupo_1075643" data-name="Grupo 1075643">
                <path id="Trazado_824189" data-name="Trazado 824189" d="M166.336,151.766,134.8,149.718a16.527,16.527,0,0,0-2.36,10.4,16.77,16.77,0,0,0,5.756,10.7q14.476-5.356,28.94-10.7a5.971,5.971,0,0,0,1.4-4.882A5.762,5.762,0,0,0,166.336,151.766Z" fill="#7cac35"/>
                <g id="Grupo_1075641" data-name="Grupo 1075641">
                  <path id="Trazado_824190" data-name="Trazado 824190" d="M161.417,168.97l-12.672-6.679-14.47,37.917,4.07.312Z" fill="#375b1a"/>
                  <path id="Trazado_824191" data-name="Trazado 824191" d="M152.777,165.624l2.884-6.58a6.268,6.268,0,0,0,2.909,3.546c-.812,1.536-1.636,3.059-2.447,4.594" fill="#375b1a"/>
                </g>
                <g id="Grupo_1075642" data-name="Grupo 1075642">
                  <path id="Trazado_824192" data-name="Trazado 824192" d="M159.007,144.25l-11,8.827L122.2,112.563l3.858-3Z" fill="#375b1a"/>
                  <path id="Trazado_824193" data-name="Trazado 824193" d="M154.937,146.71l2.772,4.719c-.275.125-.574-.062-1.011.524a7.537,7.537,0,0,0-1.261,2.46c-1.7-1.673-2.7-3.621-4.395-5.294" fill="#375b1a"/>
                </g>
                <path id="Trazado_824194" data-name="Trazado 824194" d="M159.332,163.04a6.268,6.268,0,0,1-4.582-5.206,8.121,8.121,0,0,1,2.41-6.7" fill="none" stroke="#111414" stroke-linecap="round" stroke-linejoin="round" stroke-width="1.248"/>
                <path id="Trazado_824195" data-name="Trazado 824195" d="M163.227,155.661a4.062,4.062,0,0,0,.911,2.5,2.027,2.027,0,0,0,1.149.787,1.619,1.619,0,0,0,1.386-.487,2.492,2.492,0,0,0,.624-1.361,5.212,5.212,0,0,0-.05-1.523,4.938,4.938,0,0,0-.437-1.536,2.145,2.145,0,0,0-1.149-1.074,1.718,1.718,0,0,0-1.8.437,3.851,3.851,0,0,0-.637,2.272Z" fill="#375b1a"/>
              </g>
            </g>
          </g>
          <g id="Grupo_1075646" data-name="Grupo 1075646">
            <path id="Trazado_824196" data-name="Trazado 824196" d="M41.325,167.484c-17.129,17.316-25.507,47.829-7.4,67.343,21.611,17.728,57.355,9.251,81.826,1.211,7.478-2.222,14.47-6.28,22.011-8.053,1.111-.137,1.6-.137,1.76-1.174.362-2.247-5.306-26.168-4.644-26.306-8.727,2.672-87.232,16.105-55.882-6.792,6.867-6.392,17.366-9.414,21.986-17.791,6.954-15.044,7.778-35.644,4.12-51.163a174.8,174.8,0,0,0-63.76,42.723Z" fill="#f3d54a"/>
            <path id="Trazado_824197" data-name="Trazado 824197" d="M91.551,205.988a353.105,353.105,0,0,0,42.561-5.231" fill="none" stroke="#111414" stroke-linecap="round" stroke-linejoin="round" stroke-width="1.248"/>
            <path id="Trazado_824198" data-name="Trazado 824198" d="M99.679,240.82c12.872-3.658,26.043-7.241,39.839-14.008" fill="none" stroke="#111414" stroke-linecap="round" stroke-linejoin="round" stroke-width="1.248"/>
            <path id="Trazado_824199" data-name="Trazado 824199" d="M90.578,186.411A41.632,41.632,0,0,0,113.45,168.92" fill="none" stroke="#111414" stroke-linecap="round" stroke-linejoin="round" stroke-width="1.248"/>
            <path id="Trazado_824200" data-name="Trazado 824200" d="M101.689,134.737c-32.536,8.7-64.884,39.028-63.336,74.622,5.568,42.573,74.809,21.474,99.517,8.352" fill="none" stroke="#e9bc38" stroke-linecap="round" stroke-linejoin="round" stroke-width="1.248"/>
            <path id="Trazado_824201" data-name="Trazado 824201" d="M105.41,155.349a66.858,66.858,0,0,0-45,36.368c-5.83,9.576-.537,19.7,10.088,22.248,21.2,7.241,41.125.5,61.475-6.03" fill="none" stroke="#e9bc38" stroke-linecap="round" stroke-linejoin="round" stroke-width="1.248"/>
          </g>
        </g>
      </g>
    </g>
  </g>
</svg>
