<svg xmlns="http://www.w3.org/2000/svg" width="85" height="85" viewBox="0 0 85 85">
  <g id="Grupo_1075671" data-name="Grupo 1075671" transform="translate(-180.332 -10151.969)">
    <g id="Grupo_1075616" data-name="Grupo 1075616" transform="translate(-105 3700.969)">
      <circle id="Elipse_4872" data-name="Elipse 4872" cx="42.5" cy="42.5" r="42.5" transform="translate(285.332 6451)" fill="#eeffde"/>
      <g id="Grupo_156261" data-name="Grupo 156261" transform="translate(302.332 6467)">
        <rect id="Rectángulo_47312" data-name="Rectángulo 47312" width="7.049" height="3.525" transform="translate(4.424 16.762)" fill="#eeffde"/>
        <path id="Trazado_198297" data-name="Trazado 198297" d="M10.008,59.838h7.045l-3.525,4.405Z" transform="translate(-5.582 -33.378)" fill="#eeffde"/>
      </g>
    </g>
    <path id="Trazado_824318" data-name="Trazado 824318" d="M1.6,18.582,2.9,7.672H15.366V11.51H6.914l-.483,4.237A5.822,5.822,0,0,1,7.815,15.2a6.316,6.316,0,0,1,1.677-.235,6.257,6.257,0,0,1,4.885,1.882,7.582,7.582,0,0,1,1.707,5.281,7.569,7.569,0,0,1-.916,3.713A6.293,6.293,0,0,1,12.6,28.4a8.116,8.116,0,0,1-3.911.894,8.733,8.733,0,0,1-3.765-.827A6.754,6.754,0,0,1,2.168,26.2a5.513,5.513,0,0,1-.981-3.257H6.138A2.8,2.8,0,0,0,6.885,24.8a2.371,2.371,0,0,0,1.772.687q2.49,0,2.49-3.684,0-3.406-3.047-3.406a3.04,3.04,0,0,0-2.578,1.111Z" transform="translate(214 10175.97)" fill="#12263f"/>
  </g>
</svg>
